<ttFont>
    <TTGlyph name="A" xMin="4" yMin="-9" xMax="594" yMax="665">
      <contour>
        <pt x="310" y="665" on="1"/>
        <pt x="369" y="657" on="0"/>
        <pt x="369" y="643" on="1"/>
        <pt x="417" y="500" on="1"/>
        <pt x="449" y="386" on="1"/>
        <pt x="471" y="284" on="0"/>
        <pt x="506" y="166" on="1"/>
        <pt x="508" y="167" on="0"/>
        <pt x="510" y="167" on="1"/>
        <pt x="510" y="157" on="1"/>
        <pt x="509" y="157" on="1"/>
        <pt x="510" y="154" on="0"/>
        <pt x="513" y="146" on="0"/>
        <pt x="513" y="144" on="1"/>
        <pt x="532" y="103" on="1"/>
        <pt x="537" y="78" on="1"/>
        <pt x="535" y="67" on="1"/>
        <pt x="546" y="59" on="0"/>
        <pt x="560" y="58" on="1"/>
        <pt x="580" y="58" on="1"/>
        <pt x="581" y="58" on="1"/>
        <pt x="592" y="56" on="0"/>
        <pt x="594" y="53" on="1"/>
        <pt x="588" y="41" on="1"/>
        <pt x="589" y="24" on="1"/>
        <pt x="589" y="13" on="0"/>
        <pt x="579" y="3" on="1"/>
        <pt x="575" y="3" on="1"/>
        <pt x="567" y="11" on="0"/>
        <pt x="562" y="11" on="1"/>
        <pt x="560" y="11" on="1"/>
        <pt x="550" y="11" on="0"/>
        <pt x="549" y="5" on="1"/>
        <pt x="549" y="2" on="0"/>
        <pt x="567" y="1" on="1"/>
        <pt x="567" y="-2" on="1"/>
        <pt x="567" y="-6" on="0"/>
        <pt x="555" y="-7" on="1"/>
        <pt x="542" y="-3" on="1"/>
        <pt x="532" y="-3" on="1"/>
        <pt x="470" y="-9" on="1"/>
        <pt x="449" y="-9" on="0"/>
        <pt x="418" y="16" on="1"/>
        <pt x="426" y="24" on="1"/>
        <pt x="426" y="28" on="1"/>
        <pt x="416" y="49" on="1"/>
        <pt x="416" y="61" on="0"/>
        <pt x="453" y="61" on="1"/>
        <pt x="454" y="63" on="1"/>
        <pt x="454" y="67" on="1"/>
        <pt x="454" y="112" on="0"/>
        <pt x="413" y="168" on="1"/>
        <pt x="412" y="168" on="1"/>
        <pt x="308" y="160" on="0"/>
        <pt x="169" y="147" on="1"/>
        <pt x="147" y="147" on="1"/>
        <pt x="143" y="143" on="0"/>
        <pt x="120" y="67" on="1"/>
        <pt x="124" y="63" on="0"/>
        <pt x="131" y="63" on="1"/>
        <pt x="151" y="63" on="1"/>
        <pt x="186" y="63" on="0"/>
        <pt x="211" y="35" on="1"/>
        <pt x="211" y="34" on="1"/>
        <pt x="211" y="27" on="0"/>
        <pt x="185" y="7" on="1"/>
        <pt x="185" y="-4" on="0"/>
        <pt x="33" y="-4" on="1"/>
        <pt x="8" y="-3" on="0"/>
        <pt x="8" y="2" on="1"/>
        <pt x="12" y="15" on="1"/>
        <pt x="12" y="16" on="1"/>
        <pt x="12" y="20" on="0"/>
        <pt x="4" y="34" on="1"/>
        <pt x="4" y="40" on="0"/>
        <pt x="22" y="49" on="1"/>
        <pt x="23" y="52" on="1"/>
        <pt x="23" y="67" on="1"/>
        <pt x="23" y="76" on="0"/>
        <pt x="33" y="76" on="1"/>
        <pt x="37" y="72" on="1"/>
        <pt x="33" y="60" on="1"/>
        <pt x="34" y="59" on="1"/>
        <pt x="35" y="59" on="1"/>
        <pt x="47" y="76" on="0"/>
        <pt x="47" y="83" on="1"/>
        <pt x="47" y="87" on="1"/>
        <pt x="47" y="93" on="0"/>
        <pt x="44" y="93" on="1"/>
        <pt x="54" y="111" on="0"/>
        <pt x="60" y="141" on="1"/>
        <pt x="112" y="285" on="1"/>
        <pt x="131" y="332" on="1"/>
        <pt x="131" y="341" on="0"/>
        <pt x="149" y="362" on="1"/>
        <pt x="149" y="364" on="1"/>
        <pt x="146" y="374" on="1"/>
        <pt x="157" y="382" on="0"/>
        <pt x="157" y="387" on="1"/>
        <pt x="154" y="390" on="1"/>
        <pt x="154" y="400" on="0"/>
        <pt x="166" y="411" on="1"/>
        <pt x="165" y="418" on="1"/>
        <pt x="211" y="553" on="1"/>
        <pt x="228" y="583" on="0"/>
        <pt x="242" y="625" on="1"/>
        <pt x="245" y="625" on="0"/>
        <pt x="257" y="644" on="1"/>
        <pt x="298" y="664" on="0"/>
      </contour>
      <contour>
        <pt x="166" y="220" on="1"/>
        <pt x="166" y="215" on="1"/>
        <pt x="169" y="213" on="1"/>
        <pt x="300" y="234" on="0"/>
        <pt x="375" y="234" on="1"/>
        <pt x="416" y="234" on="1"/>
        <pt x="419" y="238" on="1"/>
        <pt x="419" y="239" on="1"/>
        <pt x="414" y="275" on="0"/>
        <pt x="401" y="275" on="1"/>
        <pt x="338" y="465" on="1"/>
        <pt x="327" y="506" on="0"/>
        <pt x="316" y="531" on="1"/>
        <pt x="311" y="543" on="0"/>
        <pt x="304" y="548" on="1"/>
        <pt x="304" y="538" on="0"/>
        <pt x="303" y="527" on="1"/>
        <pt x="233" y="387" on="0"/>
        <pt x="202" y="337" on="1"/>
        <pt x="186" y="306" on="0"/>
      </contour>
      <contour>
        <pt x="546" y="28" on="1"/>
        <pt x="546" y="26" on="1"/>
        <pt x="547" y="26" on="1"/>
        <pt x="567" y="26" on="0"/>
        <pt x="567" y="32" on="1"/>
        <pt x="562" y="36" on="1"/>
        <pt x="554" y="36" on="0"/>
      </contour>
      <contour>
        <pt x="300" y="567" on="1"/>
        <pt x="301" y="567" on="1"/>
        <pt x="310" y="567" on="0"/>
        <pt x="310" y="575" on="1"/>
        <pt x="310" y="579" on="1"/>
        <pt x="307" y="579" on="1"/>
        <pt x="300" y="575" on="0"/>
      </contour>
      <contour>
        <pt x="330" y="650" on="1"/>
        <pt x="325" y="650" on="1"/>
        <pt x="325" y="645" on="1"/>
        <pt x="328" y="642" on="1"/>
        <pt x="336" y="642" on="1"/>
        <pt x="338" y="644" on="1"/>
        <pt x="338" y="645" on="1"/>
        <pt x="336" y="650" on="0"/>
      </contour>
      <contour>
        <pt x="342" y="218" on="1"/>
        <pt x="340" y="214" on="1"/>
        <pt x="342" y="212" on="1"/>
        <pt x="347" y="212" on="1"/>
        <pt x="356" y="212" on="0"/>
        <pt x="357" y="216" on="1"/>
        <pt x="357" y="218" on="1"/>
      </contour>
      <contour>
        <pt x="499" y="134" on="1"/>
        <pt x="470" y="134" on="1"/>
        <pt x="470" y="130" on="1"/>
        <pt x="499" y="132" on="1"/>
      </contour>
      <contour>
        <pt x="113" y="139" on="1"/>
        <pt x="111" y="139" on="1"/>
        <pt x="110" y="133" on="1"/>
        <pt x="111" y="128" on="1"/>
        <pt x="113" y="128" on="1"/>
        <pt x="116" y="131" on="1"/>
        <pt x="116" y="138" on="1"/>
      </contour>
      <contour>
        <pt x="462" y="-3" on="1"/>
        <pt x="462" y="-5" on="1"/>
        <pt x="466" y="-5" on="1"/>
        <pt x="472" y="-5" on="0"/>
        <pt x="473" y="-1" on="1"/>
        <pt x="471" y="2" on="1"/>
        <pt x="464" y="2" on="0"/>
      </contour>
      <contour>
        <pt x="74" y="132" on="1"/>
        <pt x="67" y="126" on="1"/>
        <pt x="67" y="123" on="1"/>
        <pt x="75" y="123" on="0"/>
        <pt x="76" y="130" on="1"/>
      </contour>
      <contour>
        <pt x="404" y="251" on="1"/>
        <pt x="408" y="256" on="1"/>
        <pt x="409" y="255" on="1"/>
        <pt x="409" y="247" on="1"/>
        <pt x="406" y="244" on="1"/>
      </contour>
      <contour>
        <pt x="186" y="372" on="1"/>
        <pt x="183" y="392" on="1"/>
        <pt x="182" y="386" on="1"/>
        <pt x="182" y="383" on="1"/>
        <pt x="183" y="383" on="1"/>
        <pt x="186" y="366" on="0"/>
        <pt x="186" y="370" on="1"/>
      </contour>
      <contour>
        <pt x="517" y="77" on="1"/>
        <pt x="516" y="77" on="1"/>
        <pt x="516" y="70" on="1"/>
        <pt x="519" y="67" on="1"/>
        <pt x="520" y="67" on="1"/>
        <pt x="520" y="74" on="1"/>
      </contour>
      <contour>
        <pt x="67" y="67" on="1"/>
        <pt x="63" y="66" on="1"/>
        <pt x="63" y="63" on="1"/>
        <pt x="66" y="60" on="1"/>
        <pt x="67" y="60" on="1"/>
        <pt x="69" y="63" on="1"/>
      </contour>
      <contour>
        <pt x="304" y="616" on="1"/>
        <pt x="303" y="616" on="1"/>
        <pt x="303" y="614" on="1"/>
        <pt x="305" y="611" on="1"/>
        <pt x="307" y="611" on="1"/>
        <pt x="307" y="614" on="1"/>
      </contour>
      <contour>
        <pt x="267" y="198" on="1"/>
        <pt x="264" y="198" on="1"/>
        <pt x="264" y="195" on="1"/>
        <pt x="267" y="195" on="1"/>
      </contour>
      <contour>
        <pt x="176" y="361" on="1"/>
        <pt x="175" y="361" on="1"/>
        <pt x="175" y="358" on="1"/>
        <pt x="176" y="358" on="1"/>
      </contour>
    </TTGlyph>
    <TTGlyph name="AE" xMin="4" yMin="-19" xMax="908" yMax="677">
      <contour>
        <pt x="427" y="673" on="1"/>
        <pt x="621" y="677" on="1"/>
        <pt x="849" y="674" on="0"/>
        <pt x="849" y="667" on="1"/>
        <pt x="849" y="664" on="0"/>
        <pt x="842" y="663" on="1"/>
        <pt x="842" y="661" on="1"/>
        <pt x="844" y="661" on="1"/>
        <pt x="854" y="672" on="0"/>
        <pt x="895" y="676" on="1"/>
        <pt x="899" y="677" on="1"/>
        <pt x="903" y="670" on="0"/>
        <pt x="903" y="663" on="1"/>
        <pt x="903" y="611" on="0"/>
        <pt x="908" y="563" on="1"/>
        <pt x="889" y="525" on="1"/>
        <pt x="878" y="518" on="0"/>
        <pt x="866" y="518" on="1"/>
        <pt x="834" y="518" on="0"/>
        <pt x="834" y="537" on="1"/>
        <pt x="834" y="540" on="1"/>
        <pt x="836" y="545" on="0"/>
        <pt x="844" y="555" on="1"/>
        <pt x="834" y="559" on="0"/>
        <pt x="834" y="572" on="1"/>
        <pt x="834" y="590" on="0"/>
        <pt x="819" y="590" on="1"/>
        <pt x="819" y="599" on="0"/>
        <pt x="817" y="599" on="1"/>
        <pt x="790" y="599" on="1"/>
        <pt x="790" y="598" on="1"/>
        <pt x="790" y="596" on="0"/>
        <pt x="802" y="591" on="1"/>
        <pt x="802" y="588" on="1"/>
        <pt x="794" y="586" on="1"/>
        <pt x="671" y="589" on="1"/>
        <pt x="607" y="589" on="1"/>
        <pt x="542" y="589" on="0"/>
        <pt x="542" y="580" on="1"/>
        <pt x="547" y="580" on="0"/>
        <pt x="553" y="392" on="1"/>
        <pt x="560" y="386" on="0"/>
        <pt x="565" y="386" on="1"/>
        <pt x="572" y="386" on="1"/>
        <pt x="622" y="389" on="1"/>
        <pt x="703" y="380" on="1"/>
        <pt x="714" y="380" on="0"/>
        <pt x="714" y="408" on="1"/>
        <pt x="714" y="419" on="0"/>
        <pt x="738" y="425" on="1"/>
        <pt x="745" y="430" on="1"/>
        <pt x="758" y="430" on="0"/>
        <pt x="758" y="327" on="1"/>
        <pt x="758" y="286" on="1"/>
        <pt x="758" y="277" on="0"/>
        <pt x="753" y="275" on="1"/>
        <pt x="742" y="281" on="0"/>
        <pt x="715" y="286" on="1"/>
        <pt x="711" y="286" on="0"/>
        <pt x="705" y="317" on="1"/>
        <pt x="705" y="327" on="0"/>
        <pt x="627" y="327" on="1"/>
        <pt x="556" y="327" on="0"/>
        <pt x="556" y="320" on="1"/>
        <pt x="555" y="305" on="1"/>
        <pt x="562" y="203" on="1"/>
        <pt x="559" y="145" on="0"/>
        <pt x="553" y="84" on="1"/>
        <pt x="556" y="82" on="1"/>
        <pt x="631" y="87" on="0"/>
        <pt x="668" y="92" on="1"/>
        <pt x="670" y="92" on="1"/>
        <pt x="721" y="92" on="0"/>
        <pt x="812" y="81" on="1"/>
        <pt x="814" y="81" on="1"/>
        <pt x="821" y="81" on="0"/>
        <pt x="823" y="92" on="1"/>
        <pt x="829" y="92" on="1"/>
        <pt x="839" y="82" on="1"/>
        <pt x="840" y="82" on="1"/>
        <pt x="841" y="87" on="1"/>
        <pt x="841" y="105" on="0"/>
        <pt x="833" y="105" on="1"/>
        <pt x="826" y="103" on="1"/>
        <pt x="816" y="110" on="0"/>
        <pt x="811" y="124" on="1"/>
        <pt x="811" y="135" on="0"/>
        <pt x="848" y="139" on="1"/>
        <pt x="850" y="139" on="0"/>
        <pt x="873" y="127" on="1"/>
        <pt x="884" y="127" on="0"/>
        <pt x="884" y="106" on="1"/>
        <pt x="886" y="21" on="0"/>
        <pt x="889" y="-9" on="1"/>
        <pt x="886" y="-19" on="1"/>
        <pt x="881" y="-19" on="1"/>
        <pt x="872" y="-13" on="0"/>
        <pt x="829" y="-9" on="1"/>
        <pt x="829" y="-5" on="0"/>
        <pt x="567" y="-1" on="1"/>
        <pt x="567" y="-2" on="1"/>
        <pt x="567" y="-6" on="0"/>
        <pt x="555" y="-7" on="1"/>
        <pt x="542" y="-3" on="1"/>
        <pt x="532" y="-3" on="1"/>
        <pt x="470" y="-9" on="1"/>
        <pt x="449" y="-9" on="0"/>
        <pt x="418" y="16" on="1"/>
        <pt x="426" y="24" on="1"/>
        <pt x="426" y="28" on="1"/>
        <pt x="416" y="49" on="1"/>
        <pt x="416" y="60" on="0"/>
        <pt x="449" y="61" on="1"/>
        <pt x="453" y="76" on="1"/>
        <pt x="452" y="86" on="1"/>
        <pt x="452" y="87" on="1"/>
        <pt x="444" y="124" on="0"/>
        <pt x="413" y="168" on="1"/>
        <pt x="412" y="168" on="1"/>
        <pt x="308" y="160" on="0"/>
        <pt x="169" y="147" on="1"/>
        <pt x="147" y="147" on="1"/>
        <pt x="143" y="143" on="0"/>
        <pt x="120" y="67" on="1"/>
        <pt x="124" y="63" on="0"/>
        <pt x="131" y="63" on="1"/>
        <pt x="151" y="63" on="1"/>
        <pt x="186" y="63" on="0"/>
        <pt x="211" y="35" on="1"/>
        <pt x="211" y="34" on="1"/>
        <pt x="211" y="27" on="0"/>
        <pt x="185" y="7" on="1"/>
        <pt x="185" y="-4" on="0"/>
        <pt x="33" y="-4" on="1"/>
        <pt x="8" y="-3" on="0"/>
        <pt x="8" y="2" on="1"/>
        <pt x="12" y="15" on="1"/>
        <pt x="12" y="16" on="1"/>
        <pt x="12" y="20" on="0"/>
        <pt x="4" y="34" on="1"/>
        <pt x="4" y="40" on="0"/>
        <pt x="22" y="49" on="1"/>
        <pt x="23" y="52" on="1"/>
        <pt x="23" y="67" on="1"/>
        <pt x="23" y="76" on="0"/>
        <pt x="33" y="76" on="1"/>
        <pt x="37" y="72" on="1"/>
        <pt x="33" y="60" on="1"/>
        <pt x="34" y="59" on="1"/>
        <pt x="35" y="59" on="1"/>
        <pt x="47" y="76" on="0"/>
        <pt x="47" y="83" on="1"/>
        <pt x="47" y="87" on="1"/>
        <pt x="47" y="93" on="0"/>
        <pt x="44" y="93" on="1"/>
        <pt x="54" y="111" on="0"/>
        <pt x="60" y="141" on="1"/>
        <pt x="112" y="285" on="1"/>
        <pt x="131" y="332" on="1"/>
        <pt x="131" y="341" on="0"/>
        <pt x="149" y="362" on="1"/>
        <pt x="149" y="364" on="1"/>
        <pt x="146" y="374" on="1"/>
        <pt x="157" y="382" on="0"/>
        <pt x="157" y="387" on="1"/>
        <pt x="154" y="390" on="1"/>
        <pt x="154" y="400" on="0"/>
        <pt x="166" y="411" on="1"/>
        <pt x="165" y="418" on="1"/>
        <pt x="211" y="553" on="1"/>
        <pt x="228" y="583" on="0"/>
        <pt x="242" y="625" on="1"/>
        <pt x="245" y="625" on="0"/>
        <pt x="257" y="644" on="1"/>
        <pt x="298" y="664" on="0"/>
        <pt x="310" y="665" on="1"/>
        <pt x="369" y="657" on="0"/>
        <pt x="369" y="643" on="1"/>
        <pt x="417" y="500" on="1"/>
        <pt x="449" y="386" on="1"/>
        <pt x="465" y="303" on="0"/>
        <pt x="494" y="207" on="1"/>
        <pt x="491" y="323" on="1"/>
        <pt x="491" y="331" on="0"/>
        <pt x="481" y="348" on="1"/>
        <pt x="484" y="348" on="0"/>
        <pt x="488" y="540" on="1"/>
        <pt x="491" y="544" on="0"/>
        <pt x="491" y="560" on="1"/>
        <pt x="491" y="563" on="1"/>
        <pt x="491" y="590" on="0"/>
        <pt x="459" y="590" on="1"/>
        <pt x="434" y="598" on="1"/>
        <pt x="421" y="596" on="1"/>
        <pt x="405" y="596" on="0"/>
        <pt x="405" y="641" on="1"/>
        <pt x="404" y="642" on="1"/>
        <pt x="405" y="673" on="0"/>
        <pt x="426" y="673" on="1"/>
      </contour>
      <contour>
        <pt x="166" y="220" on="1"/>
        <pt x="166" y="215" on="1"/>
        <pt x="169" y="213" on="1"/>
        <pt x="300" y="234" on="0"/>
        <pt x="375" y="234" on="1"/>
        <pt x="416" y="234" on="1"/>
        <pt x="419" y="238" on="1"/>
        <pt x="419" y="239" on="1"/>
        <pt x="414" y="275" on="0"/>
        <pt x="401" y="275" on="1"/>
        <pt x="338" y="465" on="1"/>
        <pt x="327" y="506" on="0"/>
        <pt x="316" y="531" on="1"/>
        <pt x="311" y="543" on="0"/>
        <pt x="304" y="548" on="1"/>
        <pt x="304" y="538" on="0"/>
        <pt x="303" y="527" on="1"/>
        <pt x="233" y="387" on="0"/>
        <pt x="202" y="337" on="1"/>
        <pt x="186" y="306" on="0"/>
      </contour>
      <contour>
        <pt x="540" y="610" on="1"/>
        <pt x="540" y="609" on="1"/>
        <pt x="543" y="603" on="0"/>
        <pt x="550" y="603" on="1"/>
        <pt x="552" y="603" on="1"/>
        <pt x="590" y="605" on="0"/>
        <pt x="590" y="609" on="1"/>
        <pt x="590" y="610" on="1"/>
        <pt x="590" y="616" on="0"/>
        <pt x="565" y="616" on="1"/>
        <pt x="562" y="616" on="1"/>
        <pt x="540" y="616" on="0"/>
      </contour>
      <contour>
        <pt x="808" y="639" on="1"/>
        <pt x="772" y="638" on="1"/>
        <pt x="772" y="635" on="1"/>
        <pt x="829" y="629" on="1"/>
        <pt x="834" y="634" on="1"/>
        <pt x="834" y="638" on="1"/>
      </contour>
      <contour>
        <pt x="654" y="49" on="1"/>
        <pt x="631" y="49" on="1"/>
        <pt x="631" y="46" on="1"/>
        <pt x="654" y="43" on="1"/>
        <pt x="713" y="43" on="1"/>
        <pt x="713" y="47" on="0"/>
      </contour>
      <contour>
        <pt x="761" y="43" on="1"/>
        <pt x="751" y="43" on="1"/>
        <pt x="751" y="41" on="1"/>
        <pt x="751" y="38" on="0"/>
        <pt x="799" y="36" on="1"/>
        <pt x="799" y="38" on="1"/>
        <pt x="781" y="43" on="0"/>
      </contour>
      <contour>
        <pt x="431" y="661" on="1"/>
        <pt x="427" y="661" on="1"/>
        <pt x="437" y="646" on="1"/>
        <pt x="444" y="656" on="0"/>
        <pt x="449" y="656" on="1"/>
        <pt x="456" y="654" on="1"/>
        <pt x="459" y="657" on="1"/>
        <pt x="450" y="661" on="0"/>
      </contour>
      <contour>
        <pt x="499" y="651" on="1"/>
        <pt x="495" y="646" on="1"/>
        <pt x="495" y="644" on="1"/>
        <pt x="497" y="639" on="0"/>
        <pt x="506" y="639" on="1"/>
        <pt x="518" y="639" on="1"/>
        <pt x="518" y="643" on="1"/>
        <pt x="505" y="651" on="0"/>
      </contour>
      <contour>
        <pt x="525" y="550" on="1"/>
        <pt x="522" y="545" on="1"/>
        <pt x="522" y="537" on="1"/>
        <pt x="525" y="531" on="0"/>
        <pt x="530" y="531" on="1"/>
        <pt x="532" y="535" on="1"/>
        <pt x="532" y="547" on="0"/>
      </contour>
      <contour>
        <pt x="536" y="144" on="1"/>
        <pt x="534" y="144" on="1"/>
        <pt x="532" y="138" on="1"/>
        <pt x="532" y="125" on="1"/>
        <pt x="534" y="124" on="1"/>
        <pt x="534" y="122" on="1"/>
        <pt x="540" y="122" on="0"/>
        <pt x="540" y="134" on="1"/>
        <pt x="540" y="143" on="0"/>
      </contour>
      <contour>
        <pt x="827" y="51" on="1"/>
        <pt x="823" y="47" on="1"/>
        <pt x="823" y="46" on="1"/>
        <pt x="825" y="41" on="0"/>
        <pt x="831" y="41" on="1"/>
        <pt x="841" y="44" on="0"/>
        <pt x="841" y="47" on="1"/>
        <pt x="841" y="49" on="1"/>
        <pt x="839" y="51" on="1"/>
      </contour>
      <contour>
        <pt x="770" y="14" on="1"/>
        <pt x="780" y="12" on="1"/>
        <pt x="789" y="12" on="1"/>
        <pt x="796" y="12" on="0"/>
        <pt x="797" y="16" on="1"/>
        <pt x="796" y="16" on="1"/>
        <pt x="784" y="18" on="1"/>
        <pt x="770" y="16" on="0"/>
      </contour>
      <contour>
        <pt x="849" y="571" on="1"/>
        <pt x="849" y="569" on="1"/>
        <pt x="851" y="566" on="1"/>
        <pt x="854" y="566" on="0"/>
        <pt x="856" y="578" on="1"/>
        <pt x="855" y="584" on="1"/>
        <pt x="852" y="584" on="1"/>
        <pt x="849" y="584" on="0"/>
      </contour>
      <contour>
        <pt x="300" y="567" on="1"/>
        <pt x="301" y="567" on="1"/>
        <pt x="310" y="567" on="0"/>
        <pt x="310" y="575" on="1"/>
        <pt x="310" y="579" on="1"/>
        <pt x="307" y="579" on="1"/>
        <pt x="300" y="575" on="0"/>
      </contour>
      <contour>
        <pt x="330" y="650" on="1"/>
        <pt x="325" y="650" on="1"/>
        <pt x="325" y="645" on="1"/>
        <pt x="328" y="642" on="1"/>
        <pt x="336" y="642" on="1"/>
        <pt x="338" y="644" on="1"/>
        <pt x="338" y="645" on="1"/>
        <pt x="336" y="650" on="0"/>
      </contour>
      <contour>
        <pt x="530" y="499" on="1"/>
        <pt x="525" y="495" on="1"/>
        <pt x="525" y="488" on="1"/>
        <pt x="528" y="484" on="1"/>
        <pt x="531" y="484" on="1"/>
        <pt x="534" y="487" on="1"/>
      </contour>
      <contour>
        <pt x="869" y="545" on="1"/>
        <pt x="871" y="545" on="1"/>
        <pt x="874" y="542" on="1"/>
        <pt x="874" y="541" on="1"/>
        <pt x="880" y="541" on="0"/>
        <pt x="880" y="553" on="1"/>
        <pt x="877" y="553" on="1"/>
        <pt x="872" y="551" on="0"/>
      </contour>
      <contour>
        <pt x="861" y="24" on="1"/>
        <pt x="851" y="24" on="1"/>
        <pt x="851" y="21" on="1"/>
        <pt x="862" y="18" on="1"/>
        <pt x="865" y="18" on="1"/>
        <pt x="868" y="21" on="1"/>
        <pt x="868" y="23" on="1"/>
      </contour>
      <contour>
        <pt x="623" y="611" on="1"/>
        <pt x="621" y="609" on="1"/>
        <pt x="622" y="606" on="0"/>
        <pt x="628" y="606" on="1"/>
        <pt x="629" y="606" on="1"/>
        <pt x="636" y="606" on="0"/>
        <pt x="637" y="609" on="1"/>
        <pt x="634" y="611" on="1"/>
      </contour>
      <contour>
        <pt x="342" y="218" on="1"/>
        <pt x="340" y="214" on="1"/>
        <pt x="342" y="212" on="1"/>
        <pt x="347" y="212" on="1"/>
        <pt x="356" y="212" on="0"/>
        <pt x="357" y="216" on="1"/>
        <pt x="357" y="218" on="1"/>
      </contour>
      <contour>
        <pt x="693" y="16" on="1"/>
        <pt x="688" y="16" on="1"/>
        <pt x="688" y="14" on="1"/>
        <pt x="689" y="12" on="1"/>
        <pt x="705" y="12" on="1"/>
        <pt x="705" y="14" on="1"/>
      </contour>
      <contour>
        <pt x="495" y="134" on="1"/>
        <pt x="470" y="134" on="1"/>
        <pt x="470" y="130" on="1"/>
        <pt x="495" y="131" on="1"/>
      </contour>
      <contour>
        <pt x="515" y="292" on="1"/>
        <pt x="511" y="292" on="1"/>
        <pt x="509" y="285" on="1"/>
        <pt x="509" y="276" on="1"/>
        <pt x="512" y="276" on="1"/>
        <pt x="515" y="279" on="1"/>
      </contour>
      <contour>
        <pt x="477" y="652" on="1"/>
        <pt x="477" y="650" on="0"/>
        <pt x="481" y="650" on="1"/>
        <pt x="490" y="652" on="1"/>
        <pt x="490" y="656" on="1"/>
        <pt x="484" y="656" on="1"/>
        <pt x="477" y="655" on="0"/>
      </contour>
      <contour>
        <pt x="113" y="139" on="1"/>
        <pt x="111" y="139" on="1"/>
        <pt x="110" y="133" on="1"/>
        <pt x="111" y="128" on="1"/>
        <pt x="113" y="128" on="1"/>
        <pt x="116" y="131" on="1"/>
        <pt x="116" y="138" on="1"/>
      </contour>
      <contour>
        <pt x="547" y="642" on="1"/>
        <pt x="542" y="642" on="1"/>
        <pt x="542" y="641" on="1"/>
        <pt x="544" y="635" on="0"/>
        <pt x="552" y="635" on="1"/>
        <pt x="556" y="635" on="1"/>
        <pt x="556" y="636" on="1"/>
        <pt x="554" y="642" on="0"/>
      </contour>
      <contour>
        <pt x="613" y="52" on="1"/>
        <pt x="603" y="52" on="1"/>
        <pt x="603" y="49" on="1"/>
        <pt x="606" y="47" on="1"/>
        <pt x="609" y="47" on="1"/>
        <pt x="616" y="49" on="1"/>
      </contour>
      <contour>
        <pt x="484" y="607" on="1"/>
        <pt x="461" y="607" on="1"/>
        <pt x="461" y="606" on="1"/>
        <pt x="484" y="606" on="1"/>
      </contour>
      <contour>
        <pt x="462" y="-3" on="1"/>
        <pt x="462" y="-5" on="1"/>
        <pt x="466" y="-5" on="1"/>
        <pt x="472" y="-5" on="0"/>
        <pt x="473" y="-1" on="1"/>
        <pt x="472" y="1" on="1"/>
        <pt x="468" y="1" on="0"/>
        <pt x="466" y="2" on="1"/>
        <pt x="464" y="1" on="0"/>
      </contour>
      <contour>
        <pt x="859" y="112" on="1"/>
        <pt x="862" y="110" on="1"/>
        <pt x="868" y="112" on="0"/>
        <pt x="868" y="113" on="1"/>
        <pt x="868" y="117" on="1"/>
        <pt x="865" y="119" on="1"/>
        <pt x="859" y="118" on="0"/>
      </contour>
      <contour>
        <pt x="588" y="636" on="1"/>
        <pt x="588" y="633" on="0"/>
        <pt x="606" y="633" on="1"/>
        <pt x="606" y="636" on="0"/>
      </contour>
      <contour>
        <pt x="74" y="132" on="1"/>
        <pt x="67" y="126" on="1"/>
        <pt x="67" y="123" on="1"/>
        <pt x="75" y="123" on="0"/>
        <pt x="76" y="130" on="1"/>
      </contour>
      <contour>
        <pt x="404" y="251" on="1"/>
        <pt x="408" y="256" on="1"/>
        <pt x="409" y="255" on="1"/>
        <pt x="409" y="247" on="1"/>
        <pt x="406" y="244" on="1"/>
      </contour>
      <contour>
        <pt x="186" y="372" on="1"/>
        <pt x="183" y="392" on="1"/>
        <pt x="182" y="386" on="1"/>
        <pt x="182" y="383" on="1"/>
        <pt x="183" y="383" on="1"/>
        <pt x="186" y="366" on="0"/>
        <pt x="186" y="370" on="1"/>
      </contour>
      <contour>
        <pt x="614" y="14" on="1"/>
        <pt x="610" y="11" on="1"/>
        <pt x="610" y="8" on="1"/>
        <pt x="616" y="8" on="1"/>
        <pt x="617" y="11" on="1"/>
        <pt x="617" y="12" on="1"/>
        <pt x="616" y="14" on="1"/>
      </contour>
      <contour>
        <pt x="562" y="371" on="1"/>
        <pt x="559" y="367" on="1"/>
        <pt x="559" y="365" on="1"/>
        <pt x="567" y="365" on="1"/>
        <pt x="567" y="369" on="1"/>
        <pt x="563" y="371" on="1"/>
      </contour>
      <contour>
        <pt x="660" y="358" on="1"/>
        <pt x="654" y="358" on="1"/>
        <pt x="654" y="357" on="1"/>
        <pt x="658" y="354" on="1"/>
        <pt x="662" y="354" on="1"/>
        <pt x="662" y="355" on="1"/>
      </contour>
      <contour>
        <pt x="67" y="67" on="1"/>
        <pt x="63" y="66" on="1"/>
        <pt x="63" y="63" on="1"/>
        <pt x="66" y="60" on="1"/>
        <pt x="67" y="60" on="1"/>
        <pt x="69" y="63" on="1"/>
      </contour>
      <contour>
        <pt x="632" y="361" on="1"/>
        <pt x="629" y="361" on="1"/>
        <pt x="629" y="358" on="1"/>
        <pt x="632" y="355" on="1"/>
        <pt x="634" y="355" on="1"/>
        <pt x="634" y="358" on="1"/>
      </contour>
      <contour>
        <pt x="304" y="616" on="1"/>
        <pt x="303" y="616" on="1"/>
        <pt x="303" y="614" on="1"/>
        <pt x="305" y="611" on="1"/>
        <pt x="307" y="611" on="1"/>
        <pt x="307" y="614" on="1"/>
      </contour>
      <contour>
        <pt x="267" y="198" on="1"/>
        <pt x="264" y="198" on="1"/>
        <pt x="264" y="195" on="1"/>
        <pt x="267" y="195" on="1"/>
      </contour>
      <contour>
        <pt x="646" y="358" on="1"/>
        <pt x="643" y="358" on="1"/>
        <pt x="643" y="355" on="1"/>
        <pt x="646" y="355" on="1"/>
      </contour>
      <contour>
        <pt x="537" y="214" on="1"/>
        <pt x="535" y="214" on="1"/>
        <pt x="535" y="211" on="1"/>
        <pt x="537" y="211" on="1"/>
      </contour>
      <contour>
        <pt x="176" y="361" on="1"/>
        <pt x="175" y="361" on="1"/>
        <pt x="175" y="358" on="1"/>
        <pt x="176" y="358" on="1"/>
      </contour>
      <contour>
        <pt x="574" y="654" on="1"/>
        <pt x="571" y="654" on="1"/>
        <pt x="571" y="653" on="1"/>
        <pt x="574" y="653" on="1"/>
      </contour>
    </TTGlyph>
    <TTGlyph name="AEacute" xMin="4" yMin="-19" xMax="908" yMax="932">
      <component glyphName="AE" x="0" y="0" flags="0x1004"/>
      <component glyphName="acute" x="380" y="326" flags="0x1004"/>
    </TTGlyph>
    <TTGlyph name="Aacute" xMin="4" yMin="-9" xMax="594" yMax="850">
      <contour>
        <pt x="310" y="665" on="1"/>
        <pt x="369" y="657" on="0"/>
        <pt x="369" y="643" on="1"/>
        <pt x="417" y="500" on="1"/>
        <pt x="449" y="386" on="1"/>
        <pt x="471" y="284" on="0"/>
        <pt x="506" y="166" on="1"/>
        <pt x="508" y="167" on="0"/>
        <pt x="510" y="167" on="1"/>
        <pt x="510" y="157" on="1"/>
        <pt x="509" y="157" on="1"/>
        <pt x="510" y="154" on="0"/>
        <pt x="513" y="146" on="0"/>
        <pt x="513" y="144" on="1"/>
        <pt x="532" y="103" on="1"/>
        <pt x="537" y="78" on="1"/>
        <pt x="535" y="67" on="1"/>
        <pt x="546" y="59" on="0"/>
        <pt x="560" y="58" on="1"/>
        <pt x="580" y="58" on="1"/>
        <pt x="581" y="58" on="1"/>
        <pt x="592" y="56" on="0"/>
        <pt x="594" y="53" on="1"/>
        <pt x="588" y="41" on="1"/>
        <pt x="589" y="24" on="1"/>
        <pt x="589" y="13" on="0"/>
        <pt x="579" y="3" on="1"/>
        <pt x="575" y="3" on="1"/>
        <pt x="567" y="11" on="0"/>
        <pt x="562" y="11" on="1"/>
        <pt x="560" y="11" on="1"/>
        <pt x="550" y="11" on="0"/>
        <pt x="549" y="5" on="1"/>
        <pt x="549" y="2" on="0"/>
        <pt x="567" y="1" on="1"/>
        <pt x="567" y="-2" on="1"/>
        <pt x="567" y="-6" on="0"/>
        <pt x="555" y="-7" on="1"/>
        <pt x="542" y="-3" on="1"/>
        <pt x="532" y="-3" on="1"/>
        <pt x="470" y="-9" on="1"/>
        <pt x="449" y="-9" on="0"/>
        <pt x="418" y="16" on="1"/>
        <pt x="426" y="24" on="1"/>
        <pt x="426" y="28" on="1"/>
        <pt x="416" y="49" on="1"/>
        <pt x="416" y="61" on="0"/>
        <pt x="453" y="61" on="1"/>
        <pt x="454" y="63" on="1"/>
        <pt x="454" y="67" on="1"/>
        <pt x="454" y="112" on="0"/>
        <pt x="413" y="168" on="1"/>
        <pt x="412" y="168" on="1"/>
        <pt x="308" y="160" on="0"/>
        <pt x="169" y="147" on="1"/>
        <pt x="147" y="147" on="1"/>
        <pt x="143" y="143" on="0"/>
        <pt x="120" y="67" on="1"/>
        <pt x="124" y="63" on="0"/>
        <pt x="131" y="63" on="1"/>
        <pt x="151" y="63" on="1"/>
        <pt x="186" y="63" on="0"/>
        <pt x="211" y="35" on="1"/>
        <pt x="211" y="34" on="1"/>
        <pt x="211" y="27" on="0"/>
        <pt x="185" y="7" on="1"/>
        <pt x="185" y="-4" on="0"/>
        <pt x="33" y="-4" on="1"/>
        <pt x="8" y="-3" on="0"/>
        <pt x="8" y="2" on="1"/>
        <pt x="12" y="15" on="1"/>
        <pt x="12" y="16" on="1"/>
        <pt x="12" y="20" on="0"/>
        <pt x="4" y="34" on="1"/>
        <pt x="4" y="40" on="0"/>
        <pt x="22" y="49" on="1"/>
        <pt x="23" y="52" on="1"/>
        <pt x="23" y="67" on="1"/>
        <pt x="23" y="76" on="0"/>
        <pt x="33" y="76" on="1"/>
        <pt x="37" y="72" on="1"/>
        <pt x="33" y="60" on="1"/>
        <pt x="34" y="59" on="1"/>
        <pt x="35" y="59" on="1"/>
        <pt x="47" y="76" on="0"/>
        <pt x="47" y="83" on="1"/>
        <pt x="47" y="87" on="1"/>
        <pt x="47" y="93" on="0"/>
        <pt x="44" y="93" on="1"/>
        <pt x="54" y="111" on="0"/>
        <pt x="60" y="141" on="1"/>
        <pt x="112" y="285" on="1"/>
        <pt x="131" y="332" on="1"/>
        <pt x="131" y="341" on="0"/>
        <pt x="149" y="362" on="1"/>
        <pt x="149" y="364" on="1"/>
        <pt x="146" y="374" on="1"/>
        <pt x="157" y="382" on="0"/>
        <pt x="157" y="387" on="1"/>
        <pt x="154" y="390" on="1"/>
        <pt x="154" y="400" on="0"/>
        <pt x="166" y="411" on="1"/>
        <pt x="165" y="418" on="1"/>
        <pt x="211" y="553" on="1"/>
        <pt x="228" y="583" on="0"/>
        <pt x="242" y="625" on="1"/>
        <pt x="245" y="625" on="0"/>
        <pt x="257" y="644" on="1"/>
        <pt x="298" y="664" on="0"/>
      </contour>
      <contour>
        <pt x="166" y="220" on="1"/>
        <pt x="166" y="215" on="1"/>
        <pt x="169" y="213" on="1"/>
        <pt x="300" y="234" on="0"/>
        <pt x="375" y="234" on="1"/>
        <pt x="416" y="234" on="1"/>
        <pt x="419" y="238" on="1"/>
        <pt x="419" y="239" on="1"/>
        <pt x="414" y="275" on="0"/>
        <pt x="401" y="275" on="1"/>
        <pt x="338" y="465" on="1"/>
        <pt x="327" y="506" on="0"/>
        <pt x="316" y="531" on="1"/>
        <pt x="311" y="543" on="0"/>
        <pt x="304" y="548" on="1"/>
        <pt x="304" y="538" on="0"/>
        <pt x="303" y="527" on="1"/>
        <pt x="233" y="387" on="0"/>
        <pt x="202" y="337" on="1"/>
        <pt x="186" y="306" on="0"/>
      </contour>
      <contour>
        <pt x="546" y="28" on="1"/>
        <pt x="546" y="26" on="1"/>
        <pt x="547" y="26" on="1"/>
        <pt x="567" y="26" on="0"/>
        <pt x="567" y="32" on="1"/>
        <pt x="562" y="36" on="1"/>
        <pt x="554" y="36" on="0"/>
      </contour>
      <contour>
        <pt x="300" y="567" on="1"/>
        <pt x="301" y="567" on="1"/>
        <pt x="310" y="567" on="0"/>
        <pt x="310" y="575" on="1"/>
        <pt x="310" y="579" on="1"/>
        <pt x="307" y="579" on="1"/>
        <pt x="300" y="575" on="0"/>
      </contour>
      <contour>
        <pt x="330" y="650" on="1"/>
        <pt x="325" y="650" on="1"/>
        <pt x="325" y="645" on="1"/>
        <pt x="328" y="642" on="1"/>
        <pt x="336" y="642" on="1"/>
        <pt x="338" y="644" on="1"/>
        <pt x="338" y="645" on="1"/>
        <pt x="336" y="650" on="0"/>
      </contour>
      <contour>
        <pt x="342" y="218" on="1"/>
        <pt x="340" y="214" on="1"/>
        <pt x="342" y="212" on="1"/>
        <pt x="347" y="212" on="1"/>
        <pt x="356" y="212" on="0"/>
        <pt x="357" y="216" on="1"/>
        <pt x="357" y="218" on="1"/>
      </contour>
      <contour>
        <pt x="499" y="134" on="1"/>
        <pt x="470" y="134" on="1"/>
        <pt x="470" y="130" on="1"/>
        <pt x="499" y="132" on="1"/>
      </contour>
      <contour>
        <pt x="113" y="139" on="1"/>
        <pt x="111" y="139" on="1"/>
        <pt x="110" y="133" on="1"/>
        <pt x="111" y="128" on="1"/>
        <pt x="113" y="128" on="1"/>
        <pt x="116" y="131" on="1"/>
        <pt x="116" y="138" on="1"/>
      </contour>
      <contour>
        <pt x="462" y="-3" on="1"/>
        <pt x="462" y="-5" on="1"/>
        <pt x="466" y="-5" on="1"/>
        <pt x="472" y="-5" on="0"/>
        <pt x="473" y="-1" on="1"/>
        <pt x="471" y="2" on="1"/>
        <pt x="464" y="2" on="0"/>
      </contour>
      <contour>
        <pt x="74" y="132" on="1"/>
        <pt x="67" y="126" on="1"/>
        <pt x="67" y="123" on="1"/>
        <pt x="75" y="123" on="0"/>
        <pt x="76" y="130" on="1"/>
      </contour>
      <contour>
        <pt x="404" y="251" on="1"/>
        <pt x="408" y="256" on="1"/>
        <pt x="409" y="255" on="1"/>
        <pt x="409" y="247" on="1"/>
        <pt x="406" y="244" on="1"/>
      </contour>
      <contour>
        <pt x="186" y="372" on="1"/>
        <pt x="183" y="392" on="1"/>
        <pt x="182" y="386" on="1"/>
        <pt x="182" y="383" on="1"/>
        <pt x="183" y="383" on="1"/>
        <pt x="186" y="366" on="0"/>
        <pt x="186" y="370" on="1"/>
      </contour>
      <contour>
        <pt x="517" y="77" on="1"/>
        <pt x="516" y="77" on="1"/>
        <pt x="516" y="70" on="1"/>
        <pt x="519" y="67" on="1"/>
        <pt x="520" y="67" on="1"/>
        <pt x="520" y="74" on="1"/>
      </contour>
      <contour>
        <pt x="67" y="67" on="1"/>
        <pt x="63" y="66" on="1"/>
        <pt x="63" y="63" on="1"/>
        <pt x="66" y="60" on="1"/>
        <pt x="67" y="60" on="1"/>
        <pt x="69" y="63" on="1"/>
      </contour>
      <contour>
        <pt x="304" y="616" on="1"/>
        <pt x="303" y="616" on="1"/>
        <pt x="303" y="614" on="1"/>
        <pt x="305" y="611" on="1"/>
        <pt x="307" y="611" on="1"/>
        <pt x="307" y="614" on="1"/>
      </contour>
      <contour>
        <pt x="267" y="198" on="1"/>
        <pt x="264" y="198" on="1"/>
        <pt x="264" y="195" on="1"/>
        <pt x="267" y="195" on="1"/>
      </contour>
      <contour>
        <pt x="176" y="361" on="1"/>
        <pt x="175" y="361" on="1"/>
        <pt x="175" y="358" on="1"/>
        <pt x="176" y="358" on="1"/>
      </contour>
      <contour>
        <pt x="293" y="739" on="1"/>
        <pt x="292" y="739" on="1"/>
        <pt x="288" y="735" on="1"/>
        <pt x="295" y="744" on="0"/>
        <pt x="297" y="745" on="1"/>
        <pt x="297" y="746" on="1"/>
        <pt x="290" y="746" on="1"/>
        <pt x="282" y="744" on="1"/>
        <pt x="282" y="743" on="1"/>
        <pt x="287" y="735" on="1"/>
        <pt x="290" y="731" on="1"/>
        <pt x="264" y="702" on="1"/>
        <pt x="255" y="692" on="1"/>
        <pt x="216" y="714" on="1"/>
        <pt x="255" y="768" on="1"/>
        <pt x="257" y="774" on="0"/>
        <pt x="260" y="775" on="1"/>
        <pt x="291" y="802" on="0"/>
        <pt x="298" y="816" on="1"/>
        <pt x="310" y="835" on="0"/>
        <pt x="328" y="850" on="1"/>
        <pt x="348" y="842" on="0"/>
        <pt x="358" y="829" on="1"/>
        <pt x="338" y="769" on="0"/>
        <pt x="299" y="743" on="1"/>
        <pt x="299" y="740" on="1"/>
        <pt x="291" y="732" on="1"/>
      </contour>
      <contour>
        <pt x="322" y="793" on="1"/>
        <pt x="310" y="806" on="1"/>
        <pt x="321" y="820" on="0"/>
        <pt x="311" y="820" on="1"/>
        <pt x="309" y="820" on="1"/>
        <pt x="309" y="818" on="1"/>
        <pt x="314" y="811" on="1"/>
        <pt x="310" y="809" on="1"/>
        <pt x="302" y="809" on="1"/>
        <pt x="300" y="807" on="1"/>
        <pt x="300" y="806" on="1"/>
        <pt x="300" y="804" on="1"/>
        <pt x="305" y="801" on="0"/>
        <pt x="311" y="793" on="1"/>
        <pt x="311" y="798" on="0"/>
      </contour>
      <contour>
        <pt x="296" y="778" on="1"/>
        <pt x="296" y="779" on="1"/>
        <pt x="297" y="786" on="0"/>
        <pt x="293" y="787" on="1"/>
        <pt x="291" y="787" on="1"/>
        <pt x="288" y="785" on="1"/>
        <pt x="287" y="781" on="0"/>
        <pt x="289" y="776" on="0"/>
        <pt x="293" y="777" on="1"/>
      </contour>
      <contour>
        <pt x="270" y="722" on="1"/>
        <pt x="267" y="722" on="1"/>
        <pt x="266" y="719" on="1"/>
        <pt x="271" y="714" on="1"/>
        <pt x="272" y="714" on="1"/>
      </contour>
      <contour>
        <pt x="285" y="735" on="1"/>
        <pt x="284" y="738" on="1"/>
        <pt x="281" y="734" on="1"/>
        <pt x="281" y="733" on="1"/>
        <pt x="282" y="729" on="1"/>
        <pt x="285" y="732" on="1"/>
      </contour>
      <contour>
        <pt x="289" y="790" on="1"/>
        <pt x="287" y="794" on="1"/>
        <pt x="285" y="793" on="1"/>
        <pt x="285" y="788" on="0"/>
        <pt x="286" y="788" on="1"/>
        <pt x="289" y="788" on="1"/>
      </contour>
      <contour>
        <pt x="279" y="760" on="1"/>
        <pt x="278" y="761" on="1"/>
        <pt x="275" y="761" on="1"/>
        <pt x="275" y="759" on="1"/>
        <pt x="277" y="757" on="1"/>
        <pt x="279" y="757" on="1"/>
      </contour>
    </TTGlyph>
    <TTGlyph name="Abreve" xMin="4" yMin="-9" xMax="594" yMax="788">
      <component glyphName="A" x="0" y="0" flags="0x1004"/>
      <component glyphName="breve" x="171" y="185" flags="0x1004"/>
    </TTGlyph>
    <TTGlyph name="Acircumflex" xMin="4" yMin="-9" xMax="594" yMax="852">
      <component glyphName="A" x="0" y="0" flags="0x1004"/>
      <component glyphName="circumflex" x="142" y="266" flags="0x1004"/>
    </TTGlyph>
    <TTGlyph name="Adieresis" xMin="4" yMin="-9" xMax="594" yMax="804">
      <component glyphName="A" x="0" y="0" flags="0x1004"/>
      <component glyphName="dieresis" x="47" y="185" flags="0x1004"/>
    </TTGlyph>
    <TTGlyph name="Agrave" xMin="4" yMin="-9" xMax="594" yMax="836">
      <component glyphName="A" x="0" y="0" flags="0x1004"/>
      <component glyphName="grave" x="193" y="257" flags="0x1004"/>
    </TTGlyph>
    <TTGlyph name="Amacron" xMin="4" yMin="-9" xMax="594" yMax="790">
      <component glyphName="A" x="0" y="0" flags="0x1004"/>
      <component glyphName="macron" x="108" y="185" flags="0x1004"/>
    </TTGlyph>
    <TTGlyph name="Aogonek" xMin="4" yMin="-167" xMax="594" yMax="665">
      <contour>
        <pt x="310" y="665" on="1"/>
        <pt x="369" y="657" on="0"/>
        <pt x="369" y="643" on="1"/>
        <pt x="417" y="500" on="1"/>
        <pt x="449" y="386" on="1"/>
        <pt x="471" y="284" on="0"/>
        <pt x="506" y="166" on="1"/>
        <pt x="508" y="167" on="0"/>
        <pt x="510" y="167" on="1"/>
        <pt x="510" y="157" on="1"/>
        <pt x="509" y="157" on="1"/>
        <pt x="510" y="154" on="0"/>
        <pt x="513" y="146" on="0"/>
        <pt x="513" y="144" on="1"/>
        <pt x="532" y="103" on="1"/>
        <pt x="537" y="78" on="1"/>
        <pt x="535" y="67" on="1"/>
        <pt x="546" y="59" on="0"/>
        <pt x="560" y="58" on="1"/>
        <pt x="580" y="58" on="1"/>
        <pt x="581" y="58" on="1"/>
        <pt x="592" y="56" on="0"/>
        <pt x="594" y="53" on="1"/>
        <pt x="588" y="41" on="1"/>
        <pt x="589" y="24" on="1"/>
        <pt x="589" y="13" on="0"/>
        <pt x="579" y="3" on="1"/>
        <pt x="575" y="3" on="1"/>
        <pt x="567" y="11" on="0"/>
        <pt x="562" y="11" on="1"/>
        <pt x="560" y="11" on="1"/>
        <pt x="550" y="11" on="0"/>
        <pt x="549" y="5" on="1"/>
        <pt x="549" y="2" on="0"/>
        <pt x="567" y="1" on="1"/>
        <pt x="567" y="-2" on="1"/>
        <pt x="567" y="-6" on="0"/>
        <pt x="555" y="-7" on="1"/>
        <pt x="542" y="-3" on="1"/>
        <pt x="532" y="-3" on="1"/>
        <pt x="470" y="-9" on="1"/>
        <pt x="462" y="-9" on="0"/>
        <pt x="459" y="-8" on="1"/>
        <pt x="432" y="-39" on="0"/>
        <pt x="446" y="-80" on="1"/>
        <pt x="446" y="-83" on="1"/>
        <pt x="446" y="-96" on="0"/>
        <pt x="502" y="-122" on="1"/>
        <pt x="502" y="-125" on="1"/>
        <pt x="486" y="-129" on="0"/>
        <pt x="486" y="-131" on="1"/>
        <pt x="486" y="-132" on="1"/>
        <pt x="488" y="-134" on="1"/>
        <pt x="504" y="-134" on="0"/>
        <pt x="513" y="-153" on="1"/>
        <pt x="512" y="-157" on="1"/>
        <pt x="508" y="-157" on="0"/>
        <pt x="512" y="-167" on="1"/>
        <pt x="437" y="-176" on="0"/>
        <pt x="409" y="-143" on="1"/>
        <pt x="390" y="-119" on="0"/>
        <pt x="382" y="-99" on="1"/>
        <pt x="397" y="-97" on="1"/>
        <pt x="397" y="-93" on="1"/>
        <pt x="386" y="-88" on="0"/>
        <pt x="386" y="-86" on="1"/>
        <pt x="386" y="-85" on="1"/>
        <pt x="391" y="-85" on="0"/>
        <pt x="391" y="-81" on="1"/>
        <pt x="373" y="-70" on="0"/>
        <pt x="373" y="-32" on="1"/>
        <pt x="373" y="-25" on="0"/>
        <pt x="377" y="-17" on="1"/>
        <pt x="373" y="-5" on="1"/>
        <pt x="376" y="1" on="0"/>
        <pt x="380" y="1" on="1"/>
        <pt x="391" y="-2" on="1"/>
        <pt x="396" y="-2" on="0"/>
        <pt x="418" y="23" on="1"/>
        <pt x="418" y="27" on="0"/>
        <pt x="401" y="30" on="1"/>
        <pt x="401" y="31" on="1"/>
        <pt x="419" y="40" on="1"/>
        <pt x="416" y="49" on="1"/>
        <pt x="416" y="61" on="0"/>
        <pt x="453" y="61" on="1"/>
        <pt x="454" y="63" on="1"/>
        <pt x="454" y="67" on="1"/>
        <pt x="454" y="112" on="0"/>
        <pt x="413" y="168" on="1"/>
        <pt x="412" y="168" on="1"/>
        <pt x="308" y="160" on="0"/>
        <pt x="169" y="147" on="1"/>
        <pt x="147" y="147" on="1"/>
        <pt x="143" y="143" on="0"/>
        <pt x="120" y="67" on="1"/>
        <pt x="124" y="63" on="0"/>
        <pt x="131" y="63" on="1"/>
        <pt x="151" y="63" on="1"/>
        <pt x="186" y="63" on="0"/>
        <pt x="211" y="35" on="1"/>
        <pt x="211" y="34" on="1"/>
        <pt x="211" y="27" on="0"/>
        <pt x="185" y="7" on="1"/>
        <pt x="185" y="-4" on="0"/>
        <pt x="33" y="-4" on="1"/>
        <pt x="8" y="-3" on="0"/>
        <pt x="8" y="2" on="1"/>
        <pt x="12" y="15" on="1"/>
        <pt x="12" y="16" on="1"/>
        <pt x="12" y="20" on="0"/>
        <pt x="4" y="34" on="1"/>
        <pt x="4" y="40" on="0"/>
        <pt x="22" y="49" on="1"/>
        <pt x="23" y="52" on="1"/>
        <pt x="23" y="67" on="1"/>
        <pt x="23" y="76" on="0"/>
        <pt x="33" y="76" on="1"/>
        <pt x="37" y="72" on="1"/>
        <pt x="33" y="60" on="1"/>
        <pt x="34" y="59" on="1"/>
        <pt x="35" y="59" on="1"/>
        <pt x="47" y="76" on="0"/>
        <pt x="47" y="83" on="1"/>
        <pt x="47" y="87" on="1"/>
        <pt x="47" y="93" on="0"/>
        <pt x="44" y="93" on="1"/>
        <pt x="54" y="111" on="0"/>
        <pt x="60" y="141" on="1"/>
        <pt x="112" y="285" on="1"/>
        <pt x="131" y="332" on="1"/>
        <pt x="131" y="341" on="0"/>
        <pt x="149" y="362" on="1"/>
        <pt x="149" y="364" on="1"/>
        <pt x="146" y="374" on="1"/>
        <pt x="157" y="382" on="0"/>
        <pt x="157" y="387" on="1"/>
        <pt x="154" y="390" on="1"/>
        <pt x="154" y="400" on="0"/>
        <pt x="166" y="411" on="1"/>
        <pt x="165" y="418" on="1"/>
        <pt x="211" y="553" on="1"/>
        <pt x="228" y="583" on="0"/>
        <pt x="242" y="625" on="1"/>
        <pt x="245" y="625" on="0"/>
        <pt x="257" y="644" on="1"/>
        <pt x="298" y="664" on="0"/>
      </contour>
      <contour>
        <pt x="166" y="220" on="1"/>
        <pt x="166" y="215" on="1"/>
        <pt x="169" y="213" on="1"/>
        <pt x="300" y="234" on="0"/>
        <pt x="375" y="234" on="1"/>
        <pt x="416" y="234" on="1"/>
        <pt x="419" y="238" on="1"/>
        <pt x="419" y="239" on="1"/>
        <pt x="414" y="275" on="0"/>
        <pt x="401" y="275" on="1"/>
        <pt x="338" y="465" on="1"/>
        <pt x="327" y="506" on="0"/>
        <pt x="316" y="531" on="1"/>
        <pt x="311" y="543" on="0"/>
        <pt x="304" y="548" on="1"/>
        <pt x="304" y="538" on="0"/>
        <pt x="303" y="527" on="1"/>
        <pt x="233" y="387" on="0"/>
        <pt x="202" y="337" on="1"/>
        <pt x="186" y="306" on="0"/>
      </contour>
      <contour>
        <pt x="546" y="28" on="1"/>
        <pt x="546" y="26" on="1"/>
        <pt x="547" y="26" on="1"/>
        <pt x="567" y="26" on="0"/>
        <pt x="567" y="32" on="1"/>
        <pt x="562" y="36" on="1"/>
        <pt x="554" y="36" on="0"/>
      </contour>
      <contour>
        <pt x="300" y="567" on="1"/>
        <pt x="301" y="567" on="1"/>
        <pt x="310" y="567" on="0"/>
        <pt x="310" y="575" on="1"/>
        <pt x="310" y="579" on="1"/>
        <pt x="307" y="579" on="1"/>
        <pt x="300" y="575" on="0"/>
      </contour>
      <contour>
        <pt x="330" y="650" on="1"/>
        <pt x="325" y="650" on="1"/>
        <pt x="325" y="645" on="1"/>
        <pt x="328" y="642" on="1"/>
        <pt x="336" y="642" on="1"/>
        <pt x="338" y="644" on="1"/>
        <pt x="338" y="645" on="1"/>
        <pt x="336" y="650" on="0"/>
      </contour>
      <contour>
        <pt x="342" y="218" on="1"/>
        <pt x="340" y="214" on="1"/>
        <pt x="342" y="212" on="1"/>
        <pt x="347" y="212" on="1"/>
        <pt x="356" y="212" on="0"/>
        <pt x="357" y="216" on="1"/>
        <pt x="357" y="218" on="1"/>
      </contour>
      <contour>
        <pt x="499" y="134" on="1"/>
        <pt x="470" y="134" on="1"/>
        <pt x="470" y="130" on="1"/>
        <pt x="499" y="132" on="1"/>
      </contour>
      <contour>
        <pt x="113" y="139" on="1"/>
        <pt x="111" y="139" on="1"/>
        <pt x="110" y="133" on="1"/>
        <pt x="111" y="128" on="1"/>
        <pt x="113" y="128" on="1"/>
        <pt x="116" y="131" on="1"/>
        <pt x="116" y="138" on="1"/>
      </contour>
      <contour>
        <pt x="74" y="132" on="1"/>
        <pt x="67" y="126" on="1"/>
        <pt x="67" y="123" on="1"/>
        <pt x="75" y="123" on="0"/>
        <pt x="76" y="130" on="1"/>
      </contour>
      <contour>
        <pt x="404" y="251" on="1"/>
        <pt x="408" y="256" on="1"/>
        <pt x="409" y="255" on="1"/>
        <pt x="409" y="247" on="1"/>
        <pt x="406" y="244" on="1"/>
      </contour>
      <contour>
        <pt x="186" y="372" on="1"/>
        <pt x="183" y="392" on="1"/>
        <pt x="182" y="386" on="1"/>
        <pt x="182" y="383" on="1"/>
        <pt x="183" y="383" on="1"/>
        <pt x="186" y="366" on="0"/>
        <pt x="186" y="370" on="1"/>
      </contour>
      <contour>
        <pt x="517" y="77" on="1"/>
        <pt x="516" y="77" on="1"/>
        <pt x="516" y="70" on="1"/>
        <pt x="519" y="67" on="1"/>
        <pt x="520" y="67" on="1"/>
        <pt x="520" y="74" on="1"/>
      </contour>
      <contour>
        <pt x="463" y="-5" on="1"/>
        <pt x="466" y="-5" on="1"/>
        <pt x="472" y="-5" on="0"/>
        <pt x="473" y="-1" on="1"/>
        <pt x="471" y="2" on="1"/>
        <pt x="470" y="2" on="1"/>
        <pt x="467" y="0" on="1"/>
      </contour>
      <contour>
        <pt x="67" y="67" on="1"/>
        <pt x="63" y="66" on="1"/>
        <pt x="63" y="63" on="1"/>
        <pt x="66" y="60" on="1"/>
        <pt x="67" y="60" on="1"/>
        <pt x="69" y="63" on="1"/>
      </contour>
      <contour>
        <pt x="304" y="616" on="1"/>
        <pt x="303" y="616" on="1"/>
        <pt x="303" y="614" on="1"/>
        <pt x="305" y="611" on="1"/>
        <pt x="307" y="611" on="1"/>
        <pt x="307" y="614" on="1"/>
      </contour>
      <contour>
        <pt x="267" y="198" on="1"/>
        <pt x="264" y="198" on="1"/>
        <pt x="264" y="195" on="1"/>
        <pt x="267" y="195" on="1"/>
      </contour>
      <contour>
        <pt x="176" y="361" on="1"/>
        <pt x="175" y="361" on="1"/>
        <pt x="175" y="358" on="1"/>
        <pt x="176" y="358" on="1"/>
      </contour>
      <contour>
        <pt x="510" y="168" on="1"/>
        <pt x="511" y="168" on="1"/>
        <pt x="510" y="167" on="1"/>
      </contour>
    </TTGlyph>
    <TTGlyph name="Aring" xMin="4" yMin="-9" xMax="594" yMax="837">
      <contour>
        <pt x="298" y="837" on="1"/>
        <pt x="308" y="834" on="1"/>
        <pt x="311" y="834" on="1"/>
        <pt x="336" y="821" on="0"/>
        <pt x="352" y="808" on="1"/>
        <pt x="372" y="790" on="0"/>
        <pt x="372" y="782" on="1"/>
        <pt x="367" y="787" on="0"/>
        <pt x="365" y="787" on="1"/>
        <pt x="364" y="787" on="1"/>
        <pt x="364" y="786" on="1"/>
        <pt x="366" y="780" on="0"/>
        <pt x="370" y="771" on="1"/>
        <pt x="372" y="771" on="1"/>
        <pt x="373" y="771" on="0"/>
        <pt x="373" y="775" on="1"/>
        <pt x="374" y="775" on="0"/>
        <pt x="376" y="763" on="1"/>
        <pt x="380" y="755" on="1"/>
        <pt x="379" y="751" on="1"/>
        <pt x="380" y="736" on="1"/>
        <pt x="375" y="710" on="1"/>
        <pt x="374" y="702" on="0"/>
        <pt x="342" y="659" on="1"/>
        <pt x="369" y="652" on="0"/>
        <pt x="369" y="643" on="1"/>
        <pt x="417" y="500" on="1"/>
        <pt x="449" y="386" on="1"/>
        <pt x="471" y="284" on="0"/>
        <pt x="506" y="166" on="1"/>
        <pt x="508" y="167" on="0"/>
        <pt x="510" y="167" on="1"/>
        <pt x="510" y="157" on="1"/>
        <pt x="509" y="157" on="1"/>
        <pt x="510" y="154" on="0"/>
        <pt x="513" y="146" on="0"/>
        <pt x="513" y="144" on="1"/>
        <pt x="532" y="103" on="1"/>
        <pt x="537" y="78" on="1"/>
        <pt x="535" y="67" on="1"/>
        <pt x="546" y="59" on="0"/>
        <pt x="560" y="58" on="1"/>
        <pt x="580" y="58" on="1"/>
        <pt x="581" y="58" on="1"/>
        <pt x="592" y="56" on="0"/>
        <pt x="594" y="53" on="1"/>
        <pt x="588" y="41" on="1"/>
        <pt x="589" y="24" on="1"/>
        <pt x="589" y="13" on="0"/>
        <pt x="579" y="3" on="1"/>
        <pt x="575" y="3" on="1"/>
        <pt x="567" y="11" on="0"/>
        <pt x="562" y="11" on="1"/>
        <pt x="560" y="11" on="1"/>
        <pt x="550" y="11" on="0"/>
        <pt x="549" y="5" on="1"/>
        <pt x="549" y="2" on="0"/>
        <pt x="567" y="1" on="1"/>
        <pt x="567" y="-2" on="1"/>
        <pt x="567" y="-6" on="0"/>
        <pt x="555" y="-7" on="1"/>
        <pt x="542" y="-3" on="1"/>
        <pt x="532" y="-3" on="1"/>
        <pt x="470" y="-9" on="1"/>
        <pt x="449" y="-9" on="0"/>
        <pt x="418" y="16" on="1"/>
        <pt x="426" y="24" on="1"/>
        <pt x="426" y="28" on="1"/>
        <pt x="416" y="49" on="1"/>
        <pt x="416" y="61" on="0"/>
        <pt x="453" y="61" on="1"/>
        <pt x="454" y="63" on="1"/>
        <pt x="454" y="67" on="1"/>
        <pt x="454" y="112" on="0"/>
        <pt x="413" y="168" on="1"/>
        <pt x="412" y="168" on="1"/>
        <pt x="308" y="160" on="0"/>
        <pt x="169" y="147" on="1"/>
        <pt x="147" y="147" on="1"/>
        <pt x="143" y="143" on="0"/>
        <pt x="120" y="67" on="1"/>
        <pt x="124" y="63" on="0"/>
        <pt x="131" y="63" on="1"/>
        <pt x="151" y="63" on="1"/>
        <pt x="186" y="63" on="0"/>
        <pt x="211" y="35" on="1"/>
        <pt x="211" y="34" on="1"/>
        <pt x="211" y="27" on="0"/>
        <pt x="185" y="7" on="1"/>
        <pt x="185" y="-4" on="0"/>
        <pt x="33" y="-4" on="1"/>
        <pt x="8" y="-3" on="0"/>
        <pt x="8" y="2" on="1"/>
        <pt x="12" y="15" on="1"/>
        <pt x="12" y="16" on="1"/>
        <pt x="12" y="20" on="0"/>
        <pt x="4" y="34" on="1"/>
        <pt x="4" y="40" on="0"/>
        <pt x="22" y="49" on="1"/>
        <pt x="23" y="52" on="1"/>
        <pt x="23" y="67" on="1"/>
        <pt x="23" y="76" on="0"/>
        <pt x="33" y="76" on="1"/>
        <pt x="37" y="72" on="1"/>
        <pt x="33" y="60" on="1"/>
        <pt x="34" y="59" on="1"/>
        <pt x="35" y="59" on="1"/>
        <pt x="47" y="76" on="0"/>
        <pt x="47" y="83" on="1"/>
        <pt x="47" y="87" on="1"/>
        <pt x="47" y="93" on="0"/>
        <pt x="44" y="93" on="1"/>
        <pt x="54" y="111" on="0"/>
        <pt x="60" y="141" on="1"/>
        <pt x="112" y="285" on="1"/>
        <pt x="131" y="332" on="1"/>
        <pt x="131" y="341" on="0"/>
        <pt x="149" y="362" on="1"/>
        <pt x="149" y="364" on="1"/>
        <pt x="146" y="374" on="1"/>
        <pt x="157" y="382" on="0"/>
        <pt x="157" y="387" on="1"/>
        <pt x="154" y="390" on="1"/>
        <pt x="154" y="400" on="0"/>
        <pt x="166" y="411" on="1"/>
        <pt x="165" y="418" on="1"/>
        <pt x="211" y="553" on="1"/>
        <pt x="228" y="583" on="0"/>
        <pt x="242" y="625" on="1"/>
        <pt x="244" y="625" on="0"/>
        <pt x="255" y="642" on="1"/>
        <pt x="250" y="643" on="0"/>
        <pt x="238" y="649" on="1"/>
        <pt x="203" y="681" on="0"/>
        <pt x="203" y="697" on="1"/>
        <pt x="194" y="718" on="1"/>
        <pt x="194" y="721" on="0"/>
        <pt x="205" y="751" on="1"/>
        <pt x="205" y="769" on="0"/>
        <pt x="213" y="777" on="1"/>
        <pt x="231" y="816" on="0"/>
        <pt x="258" y="828" on="1"/>
        <pt x="283" y="837" on="0"/>
      </contour>
      <contour>
        <pt x="166" y="220" on="1"/>
        <pt x="166" y="215" on="1"/>
        <pt x="169" y="213" on="1"/>
        <pt x="300" y="234" on="0"/>
        <pt x="375" y="234" on="1"/>
        <pt x="416" y="234" on="1"/>
        <pt x="419" y="238" on="1"/>
        <pt x="419" y="239" on="1"/>
        <pt x="414" y="275" on="0"/>
        <pt x="401" y="275" on="1"/>
        <pt x="338" y="465" on="1"/>
        <pt x="327" y="506" on="0"/>
        <pt x="316" y="531" on="1"/>
        <pt x="311" y="543" on="0"/>
        <pt x="304" y="548" on="1"/>
        <pt x="304" y="538" on="0"/>
        <pt x="303" y="527" on="1"/>
        <pt x="233" y="387" on="0"/>
        <pt x="202" y="337" on="1"/>
        <pt x="186" y="306" on="0"/>
      </contour>
      <contour>
        <pt x="229" y="714" on="1"/>
        <pt x="229" y="711" on="1"/>
        <pt x="230" y="710" on="0"/>
        <pt x="237" y="693" on="0"/>
        <pt x="240" y="688" on="1"/>
        <pt x="240" y="684" on="0"/>
        <pt x="255" y="677" on="1"/>
        <pt x="262" y="670" on="0"/>
        <pt x="281" y="664" on="1"/>
        <pt x="288" y="664" on="1"/>
        <pt x="313" y="671" on="1"/>
        <pt x="327" y="683" on="1"/>
        <pt x="347" y="708" on="0"/>
        <pt x="347" y="723" on="1"/>
        <pt x="347" y="725" on="1"/>
        <pt x="345" y="735" on="0"/>
        <pt x="345" y="759" on="0"/>
        <pt x="346" y="764" on="1"/>
        <pt x="346" y="766" on="0"/>
        <pt x="332" y="778" on="1"/>
        <pt x="322" y="794" on="0"/>
        <pt x="310" y="797" on="1"/>
        <pt x="305" y="797" on="1"/>
        <pt x="260" y="796" on="0"/>
        <pt x="260" y="790" on="1"/>
        <pt x="250" y="780" on="0"/>
        <pt x="247" y="769" on="1"/>
        <pt x="234" y="757" on="0"/>
        <pt x="234" y="751" on="1"/>
        <pt x="231" y="742" on="0"/>
      </contour>
      <contour>
        <pt x="240" y="809" on="1"/>
        <pt x="239" y="807" on="1"/>
        <pt x="239" y="805" on="1"/>
        <pt x="240" y="805" on="0"/>
        <pt x="263" y="823" on="1"/>
        <pt x="265" y="823" on="1"/>
        <pt x="268" y="823" on="1"/>
        <pt x="293" y="826" on="0"/>
        <pt x="293" y="828" on="1"/>
        <pt x="288" y="830" on="1"/>
        <pt x="261" y="830" on="0"/>
      </contour>
      <contour>
        <pt x="546" y="28" on="1"/>
        <pt x="546" y="26" on="1"/>
        <pt x="547" y="26" on="1"/>
        <pt x="567" y="26" on="0"/>
        <pt x="567" y="32" on="1"/>
        <pt x="562" y="36" on="1"/>
        <pt x="554" y="36" on="0"/>
      </contour>
      <contour>
        <pt x="271" y="801" on="1"/>
        <pt x="271" y="800" on="1"/>
        <pt x="272" y="799" on="1"/>
        <pt x="276" y="799" on="1"/>
        <pt x="304" y="805" on="1"/>
        <pt x="304" y="806" on="1"/>
        <pt x="297" y="808" on="1"/>
        <pt x="271" y="805" on="0"/>
      </contour>
      <contour>
        <pt x="270" y="814" on="1"/>
        <pt x="270" y="812" on="1"/>
        <pt x="300" y="815" on="0"/>
        <pt x="300" y="817" on="1"/>
        <pt x="297" y="818" on="1"/>
        <pt x="296" y="818" on="1"/>
        <pt x="277" y="818" on="0"/>
      </contour>
      <contour>
        <pt x="300" y="567" on="1"/>
        <pt x="301" y="567" on="1"/>
        <pt x="310" y="567" on="0"/>
        <pt x="310" y="575" on="1"/>
        <pt x="310" y="579" on="1"/>
        <pt x="307" y="579" on="1"/>
        <pt x="300" y="575" on="0"/>
      </contour>
      <contour>
        <pt x="211" y="703" on="1"/>
        <pt x="209" y="701" on="1"/>
        <pt x="209" y="698" on="1"/>
        <pt x="211" y="686" on="0"/>
        <pt x="216" y="683" on="1"/>
        <pt x="216" y="685" on="1"/>
        <pt x="213" y="703" on="0"/>
      </contour>
      <contour>
        <pt x="342" y="218" on="1"/>
        <pt x="340" y="214" on="1"/>
        <pt x="342" y="212" on="1"/>
        <pt x="347" y="212" on="1"/>
        <pt x="356" y="212" on="0"/>
        <pt x="357" y="216" on="1"/>
        <pt x="357" y="218" on="1"/>
      </contour>
      <contour>
        <pt x="232" y="662" on="1"/>
        <pt x="229" y="662" on="1"/>
        <pt x="229" y="661" on="1"/>
        <pt x="237" y="656" on="0"/>
        <pt x="247" y="656" on="1"/>
        <pt x="252" y="656" on="1"/>
        <pt x="251" y="659" on="0"/>
      </contour>
      <contour>
        <pt x="302" y="829" on="1"/>
        <pt x="304" y="823" on="0"/>
        <pt x="310" y="823" on="1"/>
        <pt x="315" y="823" on="1"/>
        <pt x="315" y="825" on="1"/>
        <pt x="315" y="830" on="0"/>
        <pt x="308" y="831" on="1"/>
        <pt x="302" y="830" on="0"/>
      </contour>
      <contour>
        <pt x="499" y="134" on="1"/>
        <pt x="470" y="134" on="1"/>
        <pt x="470" y="130" on="1"/>
        <pt x="499" y="132" on="1"/>
      </contour>
      <contour>
        <pt x="113" y="139" on="1"/>
        <pt x="111" y="139" on="1"/>
        <pt x="110" y="133" on="1"/>
        <pt x="111" y="128" on="1"/>
        <pt x="113" y="128" on="1"/>
        <pt x="116" y="131" on="1"/>
        <pt x="116" y="138" on="1"/>
      </contour>
      <contour>
        <pt x="369" y="723" on="1"/>
        <pt x="369" y="711" on="0"/>
        <pt x="371" y="711" on="1"/>
        <pt x="372" y="711" on="1"/>
        <pt x="372" y="714" on="0"/>
        <pt x="374" y="720" on="1"/>
        <pt x="374" y="722" on="1"/>
        <pt x="370" y="727" on="1"/>
        <pt x="369" y="727" on="0"/>
      </contour>
      <contour>
        <pt x="326" y="643" on="1"/>
        <pt x="328" y="642" on="1"/>
        <pt x="336" y="642" on="1"/>
        <pt x="338" y="644" on="1"/>
        <pt x="338" y="645" on="1"/>
        <pt x="337" y="648" on="0"/>
        <pt x="333" y="649" on="1"/>
      </contour>
      <contour>
        <pt x="344" y="791" on="1"/>
        <pt x="342" y="791" on="1"/>
        <pt x="342" y="790" on="1"/>
        <pt x="343" y="787" on="0"/>
        <pt x="353" y="782" on="1"/>
        <pt x="355" y="782" on="1"/>
        <pt x="355" y="783" on="1"/>
        <pt x="349" y="791" on="0"/>
      </contour>
      <contour>
        <pt x="462" y="-3" on="1"/>
        <pt x="462" y="-5" on="1"/>
        <pt x="466" y="-5" on="1"/>
        <pt x="472" y="-5" on="0"/>
        <pt x="473" y="-1" on="1"/>
        <pt x="471" y="2" on="1"/>
        <pt x="464" y="2" on="0"/>
      </contour>
      <contour>
        <pt x="74" y="132" on="1"/>
        <pt x="67" y="126" on="1"/>
        <pt x="67" y="123" on="1"/>
        <pt x="75" y="123" on="0"/>
        <pt x="76" y="130" on="1"/>
      </contour>
      <contour>
        <pt x="347" y="794" on="1"/>
        <pt x="335" y="803" on="1"/>
        <pt x="336" y="798" on="0"/>
        <pt x="346" y="793" on="1"/>
      </contour>
      <contour>
        <pt x="404" y="251" on="1"/>
        <pt x="408" y="256" on="1"/>
        <pt x="409" y="255" on="1"/>
        <pt x="409" y="247" on="1"/>
        <pt x="406" y="244" on="1"/>
      </contour>
      <contour>
        <pt x="186" y="372" on="1"/>
        <pt x="183" y="392" on="1"/>
        <pt x="182" y="386" on="1"/>
        <pt x="182" y="383" on="1"/>
        <pt x="183" y="383" on="1"/>
        <pt x="186" y="366" on="0"/>
        <pt x="186" y="370" on="1"/>
      </contour>
      <contour>
        <pt x="517" y="77" on="1"/>
        <pt x="516" y="77" on="1"/>
        <pt x="516" y="70" on="1"/>
        <pt x="519" y="67" on="1"/>
        <pt x="520" y="67" on="1"/>
        <pt x="520" y="74" on="1"/>
      </contour>
      <contour>
        <pt x="310" y="816" on="1"/>
        <pt x="309" y="815" on="1"/>
        <pt x="317" y="810" on="0"/>
        <pt x="320" y="810" on="1"/>
        <pt x="320" y="811" on="1"/>
        <pt x="315" y="816" on="0"/>
      </contour>
      <contour>
        <pt x="239" y="786" on="1"/>
        <pt x="236" y="779" on="1"/>
        <pt x="236" y="778" on="1"/>
        <pt x="237" y="778" on="1"/>
        <pt x="242" y="783" on="0"/>
        <pt x="242" y="785" on="1"/>
        <pt x="241" y="786" on="1"/>
      </contour>
      <contour>
        <pt x="329" y="820" on="1"/>
        <pt x="328" y="819" on="1"/>
        <pt x="333" y="814" on="0"/>
        <pt x="337" y="814" on="1"/>
        <pt x="337" y="818" on="0"/>
      </contour>
      <contour>
        <pt x="258" y="658" on="1"/>
        <pt x="258" y="657" on="1"/>
        <pt x="258" y="654" on="0"/>
        <pt x="269" y="654" on="1"/>
        <pt x="270" y="654" on="1"/>
        <pt x="270" y="655" on="1"/>
        <pt x="266" y="658" on="0"/>
      </contour>
      <contour>
        <pt x="67" y="67" on="1"/>
        <pt x="63" y="66" on="1"/>
        <pt x="63" y="63" on="1"/>
        <pt x="66" y="60" on="1"/>
        <pt x="67" y="60" on="1"/>
        <pt x="69" y="63" on="1"/>
      </contour>
      <contour>
        <pt x="322" y="797" on="1"/>
        <pt x="325" y="794" on="0"/>
        <pt x="328" y="794" on="1"/>
        <pt x="328" y="795" on="1"/>
        <pt x="328" y="796" on="1"/>
        <pt x="328" y="799" on="0"/>
        <pt x="325" y="799" on="1"/>
        <pt x="322" y="798" on="0"/>
      </contour>
      <contour>
        <pt x="244" y="800" on="1"/>
        <pt x="247" y="800" on="0"/>
        <pt x="250" y="805" on="1"/>
        <pt x="250" y="806" on="1"/>
        <pt x="244" y="804" on="0"/>
      </contour>
      <contour>
        <pt x="359" y="694" on="1"/>
        <pt x="360" y="694" on="1"/>
        <pt x="362" y="694" on="0"/>
        <pt x="364" y="700" on="1"/>
        <pt x="362" y="700" on="0"/>
      </contour>
      <contour>
        <pt x="365" y="701" on="1"/>
        <pt x="367" y="701" on="1"/>
        <pt x="369" y="700" on="1"/>
        <pt x="369" y="706" on="0"/>
        <pt x="367" y="706" on="1"/>
        <pt x="366" y="706" on="1"/>
        <pt x="365" y="708" on="1"/>
      </contour>
      <contour>
        <pt x="304" y="616" on="1"/>
        <pt x="303" y="616" on="1"/>
        <pt x="303" y="614" on="1"/>
        <pt x="305" y="611" on="1"/>
        <pt x="307" y="611" on="1"/>
        <pt x="307" y="614" on="1"/>
      </contour>
      <contour>
        <pt x="224" y="677" on="1"/>
        <pt x="223" y="675" on="1"/>
        <pt x="226" y="671" on="1"/>
        <pt x="228" y="671" on="1"/>
        <pt x="228" y="676" on="0"/>
        <pt x="225" y="677" on="1"/>
      </contour>
      <contour>
        <pt x="250" y="652" on="1"/>
        <pt x="256" y="652" on="1"/>
        <pt x="256" y="653" on="1"/>
        <pt x="254" y="653" on="1"/>
        <pt x="250" y="653" on="0"/>
      </contour>
      <contour>
        <pt x="267" y="198" on="1"/>
        <pt x="264" y="198" on="1"/>
        <pt x="264" y="195" on="1"/>
        <pt x="267" y="195" on="1"/>
      </contour>
      <contour>
        <pt x="212" y="764" on="1"/>
        <pt x="214" y="764" on="0"/>
        <pt x="216" y="766" on="1"/>
        <pt x="216" y="768" on="1"/>
        <pt x="212" y="768" on="0"/>
      </contour>
      <contour>
        <pt x="374" y="751" on="1"/>
        <pt x="373" y="751" on="1"/>
        <pt x="373" y="748" on="1"/>
        <pt x="374" y="747" on="1"/>
        <pt x="376" y="748" on="1"/>
        <pt x="376" y="751" on="1"/>
        <pt x="375" y="751" on="1"/>
      </contour>
      <contour>
        <pt x="201" y="722" on="1"/>
        <pt x="200" y="720" on="1"/>
        <pt x="200" y="716" on="0"/>
        <pt x="201" y="716" on="1"/>
        <pt x="202" y="717" on="1"/>
        <pt x="202" y="718" on="1"/>
      </contour>
      <contour>
        <pt x="176" y="361" on="1"/>
        <pt x="175" y="361" on="1"/>
        <pt x="175" y="358" on="1"/>
        <pt x="176" y="358" on="1"/>
      </contour>
      <contour>
        <pt x="302" y="812" on="1"/>
        <pt x="307" y="815" on="1"/>
        <pt x="306" y="815" on="1"/>
        <pt x="302" y="814" on="0"/>
      </contour>
      <contour>
        <pt x="246" y="789" on="1"/>
        <pt x="243" y="789" on="1"/>
        <pt x="243" y="787" on="1"/>
        <pt x="244" y="787" on="1"/>
        <pt x="246" y="788" on="1"/>
      </contour>
      <contour>
        <pt x="220" y="778" on="1"/>
        <pt x="221" y="778" on="0"/>
        <pt x="221" y="780" on="1"/>
        <pt x="220" y="779" on="0"/>
      </contour>
      <contour>
        <pt x="222" y="729" on="1"/>
        <pt x="221" y="728" on="1"/>
        <pt x="223" y="729" on="1"/>
      </contour>
      <contour>
        <pt x="510" y="168" on="1"/>
        <pt x="511" y="168" on="1"/>
        <pt x="510" y="167" on="1"/>
      </contour>
    </TTGlyph>
    <TTGlyph name="Atilde" xMin="4" yMin="-9" xMax="594" yMax="834">
      <contour>
        <pt x="310" y="665" on="1"/>
        <pt x="369" y="657" on="0"/>
        <pt x="369" y="643" on="1"/>
        <pt x="417" y="500" on="1"/>
        <pt x="449" y="386" on="1"/>
        <pt x="471" y="284" on="0"/>
        <pt x="506" y="166" on="1"/>
        <pt x="508" y="167" on="0"/>
        <pt x="510" y="167" on="1"/>
        <pt x="510" y="157" on="1"/>
        <pt x="509" y="157" on="1"/>
        <pt x="510" y="154" on="0"/>
        <pt x="513" y="146" on="0"/>
        <pt x="513" y="144" on="1"/>
        <pt x="532" y="103" on="1"/>
        <pt x="537" y="78" on="1"/>
        <pt x="535" y="67" on="1"/>
        <pt x="546" y="59" on="0"/>
        <pt x="560" y="58" on="1"/>
        <pt x="580" y="58" on="1"/>
        <pt x="581" y="58" on="1"/>
        <pt x="592" y="56" on="0"/>
        <pt x="594" y="53" on="1"/>
        <pt x="588" y="41" on="1"/>
        <pt x="589" y="24" on="1"/>
        <pt x="589" y="13" on="0"/>
        <pt x="579" y="3" on="1"/>
        <pt x="575" y="3" on="1"/>
        <pt x="567" y="11" on="0"/>
        <pt x="562" y="11" on="1"/>
        <pt x="560" y="11" on="1"/>
        <pt x="550" y="11" on="0"/>
        <pt x="549" y="5" on="1"/>
        <pt x="549" y="2" on="0"/>
        <pt x="567" y="1" on="1"/>
        <pt x="567" y="-2" on="1"/>
        <pt x="567" y="-6" on="0"/>
        <pt x="555" y="-7" on="1"/>
        <pt x="542" y="-3" on="1"/>
        <pt x="532" y="-3" on="1"/>
        <pt x="470" y="-9" on="1"/>
        <pt x="449" y="-9" on="0"/>
        <pt x="418" y="16" on="1"/>
        <pt x="426" y="24" on="1"/>
        <pt x="426" y="28" on="1"/>
        <pt x="416" y="49" on="1"/>
        <pt x="416" y="61" on="0"/>
        <pt x="453" y="61" on="1"/>
        <pt x="454" y="63" on="1"/>
        <pt x="454" y="67" on="1"/>
        <pt x="454" y="112" on="0"/>
        <pt x="413" y="168" on="1"/>
        <pt x="412" y="168" on="1"/>
        <pt x="308" y="160" on="0"/>
        <pt x="169" y="147" on="1"/>
        <pt x="147" y="147" on="1"/>
        <pt x="143" y="143" on="0"/>
        <pt x="120" y="67" on="1"/>
        <pt x="124" y="63" on="0"/>
        <pt x="131" y="63" on="1"/>
        <pt x="151" y="63" on="1"/>
        <pt x="186" y="63" on="0"/>
        <pt x="211" y="35" on="1"/>
        <pt x="211" y="34" on="1"/>
        <pt x="211" y="27" on="0"/>
        <pt x="185" y="7" on="1"/>
        <pt x="185" y="-4" on="0"/>
        <pt x="33" y="-4" on="1"/>
        <pt x="8" y="-3" on="0"/>
        <pt x="8" y="2" on="1"/>
        <pt x="12" y="15" on="1"/>
        <pt x="12" y="16" on="1"/>
        <pt x="12" y="20" on="0"/>
        <pt x="4" y="34" on="1"/>
        <pt x="4" y="40" on="0"/>
        <pt x="22" y="49" on="1"/>
        <pt x="23" y="52" on="1"/>
        <pt x="23" y="67" on="1"/>
        <pt x="23" y="76" on="0"/>
        <pt x="33" y="76" on="1"/>
        <pt x="37" y="72" on="1"/>
        <pt x="33" y="60" on="1"/>
        <pt x="34" y="59" on="1"/>
        <pt x="35" y="59" on="1"/>
        <pt x="47" y="76" on="0"/>
        <pt x="47" y="83" on="1"/>
        <pt x="47" y="87" on="1"/>
        <pt x="47" y="93" on="0"/>
        <pt x="44" y="93" on="1"/>
        <pt x="54" y="111" on="0"/>
        <pt x="60" y="141" on="1"/>
        <pt x="112" y="285" on="1"/>
        <pt x="131" y="332" on="1"/>
        <pt x="131" y="341" on="0"/>
        <pt x="149" y="362" on="1"/>
        <pt x="149" y="364" on="1"/>
        <pt x="146" y="374" on="1"/>
        <pt x="157" y="382" on="0"/>
        <pt x="157" y="387" on="1"/>
        <pt x="154" y="390" on="1"/>
        <pt x="154" y="400" on="0"/>
        <pt x="166" y="411" on="1"/>
        <pt x="165" y="418" on="1"/>
        <pt x="211" y="553" on="1"/>
        <pt x="228" y="583" on="0"/>
        <pt x="242" y="625" on="1"/>
        <pt x="245" y="625" on="0"/>
        <pt x="257" y="644" on="1"/>
        <pt x="298" y="664" on="0"/>
      </contour>
      <contour>
        <pt x="166" y="220" on="1"/>
        <pt x="166" y="215" on="1"/>
        <pt x="169" y="213" on="1"/>
        <pt x="300" y="234" on="0"/>
        <pt x="375" y="234" on="1"/>
        <pt x="416" y="234" on="1"/>
        <pt x="419" y="238" on="1"/>
        <pt x="419" y="239" on="1"/>
        <pt x="414" y="275" on="0"/>
        <pt x="401" y="275" on="1"/>
        <pt x="338" y="465" on="1"/>
        <pt x="327" y="506" on="0"/>
        <pt x="316" y="531" on="1"/>
        <pt x="311" y="543" on="0"/>
        <pt x="304" y="548" on="1"/>
        <pt x="304" y="538" on="0"/>
        <pt x="303" y="527" on="1"/>
        <pt x="233" y="387" on="0"/>
        <pt x="202" y="337" on="1"/>
        <pt x="186" y="306" on="0"/>
      </contour>
      <contour>
        <pt x="546" y="28" on="1"/>
        <pt x="546" y="26" on="1"/>
        <pt x="547" y="26" on="1"/>
        <pt x="567" y="26" on="0"/>
        <pt x="567" y="32" on="1"/>
        <pt x="562" y="36" on="1"/>
        <pt x="554" y="36" on="0"/>
      </contour>
      <contour>
        <pt x="300" y="567" on="1"/>
        <pt x="301" y="567" on="1"/>
        <pt x="310" y="567" on="0"/>
        <pt x="310" y="575" on="1"/>
        <pt x="310" y="579" on="1"/>
        <pt x="307" y="579" on="1"/>
        <pt x="300" y="575" on="0"/>
      </contour>
      <contour>
        <pt x="330" y="650" on="1"/>
        <pt x="325" y="650" on="1"/>
        <pt x="325" y="645" on="1"/>
        <pt x="328" y="642" on="1"/>
        <pt x="336" y="642" on="1"/>
        <pt x="338" y="644" on="1"/>
        <pt x="338" y="645" on="1"/>
        <pt x="336" y="650" on="0"/>
      </contour>
      <contour>
        <pt x="342" y="218" on="1"/>
        <pt x="340" y="214" on="1"/>
        <pt x="342" y="212" on="1"/>
        <pt x="347" y="212" on="1"/>
        <pt x="356" y="212" on="0"/>
        <pt x="357" y="216" on="1"/>
        <pt x="357" y="218" on="1"/>
      </contour>
      <contour>
        <pt x="499" y="134" on="1"/>
        <pt x="470" y="134" on="1"/>
        <pt x="470" y="130" on="1"/>
        <pt x="499" y="132" on="1"/>
      </contour>
      <contour>
        <pt x="113" y="139" on="1"/>
        <pt x="111" y="139" on="1"/>
        <pt x="110" y="133" on="1"/>
        <pt x="111" y="128" on="1"/>
        <pt x="113" y="128" on="1"/>
        <pt x="116" y="131" on="1"/>
        <pt x="116" y="138" on="1"/>
      </contour>
      <contour>
        <pt x="462" y="-3" on="1"/>
        <pt x="462" y="-5" on="1"/>
        <pt x="466" y="-5" on="1"/>
        <pt x="472" y="-5" on="0"/>
        <pt x="473" y="-1" on="1"/>
        <pt x="471" y="2" on="1"/>
        <pt x="464" y="2" on="0"/>
      </contour>
      <contour>
        <pt x="74" y="132" on="1"/>
        <pt x="67" y="126" on="1"/>
        <pt x="67" y="123" on="1"/>
        <pt x="75" y="123" on="0"/>
        <pt x="76" y="130" on="1"/>
      </contour>
      <contour>
        <pt x="404" y="251" on="1"/>
        <pt x="408" y="256" on="1"/>
        <pt x="409" y="255" on="1"/>
        <pt x="409" y="247" on="1"/>
        <pt x="406" y="244" on="1"/>
      </contour>
      <contour>
        <pt x="186" y="372" on="1"/>
        <pt x="183" y="392" on="1"/>
        <pt x="182" y="386" on="1"/>
        <pt x="182" y="383" on="1"/>
        <pt x="183" y="383" on="1"/>
        <pt x="186" y="366" on="0"/>
        <pt x="186" y="370" on="1"/>
      </contour>
      <contour>
        <pt x="517" y="77" on="1"/>
        <pt x="516" y="77" on="1"/>
        <pt x="516" y="70" on="1"/>
        <pt x="519" y="67" on="1"/>
        <pt x="520" y="67" on="1"/>
        <pt x="520" y="74" on="1"/>
      </contour>
      <contour>
        <pt x="67" y="67" on="1"/>
        <pt x="63" y="66" on="1"/>
        <pt x="63" y="63" on="1"/>
        <pt x="66" y="60" on="1"/>
        <pt x="67" y="60" on="1"/>
        <pt x="69" y="63" on="1"/>
      </contour>
      <contour>
        <pt x="304" y="616" on="1"/>
        <pt x="303" y="616" on="1"/>
        <pt x="303" y="614" on="1"/>
        <pt x="305" y="611" on="1"/>
        <pt x="307" y="611" on="1"/>
        <pt x="307" y="614" on="1"/>
      </contour>
      <contour>
        <pt x="267" y="198" on="1"/>
        <pt x="264" y="198" on="1"/>
        <pt x="264" y="195" on="1"/>
        <pt x="267" y="195" on="1"/>
      </contour>
      <contour>
        <pt x="176" y="361" on="1"/>
        <pt x="175" y="361" on="1"/>
        <pt x="175" y="358" on="1"/>
        <pt x="176" y="358" on="1"/>
      </contour>
      <contour>
        <pt x="403" y="810" on="1"/>
        <pt x="403" y="811" on="1"/>
        <pt x="405" y="811" on="1"/>
        <pt x="405" y="810" on="1"/>
        <pt x="411" y="809" on="0"/>
        <pt x="416" y="805" on="1"/>
        <pt x="418" y="805" on="0"/>
        <pt x="423" y="785" on="1"/>
        <pt x="423" y="777" on="1"/>
        <pt x="423" y="764" on="0"/>
        <pt x="407" y="751" on="1"/>
        <pt x="399" y="742" on="0"/>
        <pt x="388" y="737" on="1"/>
        <pt x="380" y="730" on="0"/>
        <pt x="346" y="728" on="1"/>
        <pt x="344" y="728" on="0"/>
        <pt x="333" y="731" on="1"/>
        <pt x="333" y="729" on="1"/>
        <pt x="332" y="729" on="1"/>
        <pt x="329" y="730" on="1"/>
        <pt x="306" y="744" on="0"/>
        <pt x="301" y="752" on="1"/>
        <pt x="301" y="761" on="0"/>
        <pt x="297" y="762" on="1"/>
        <pt x="295" y="768" on="0"/>
        <pt x="290" y="773" on="0"/>
        <pt x="288" y="772" on="1"/>
        <pt x="288" y="783" on="0"/>
        <pt x="283" y="786" on="1"/>
        <pt x="269" y="800" on="0"/>
        <pt x="250" y="799" on="1"/>
        <pt x="240" y="799" on="0"/>
        <pt x="228" y="793" on="0"/>
        <pt x="228" y="780" on="1"/>
        <pt x="229" y="773" on="1"/>
        <pt x="226" y="773" on="1"/>
        <pt x="227" y="772" on="0"/>
        <pt x="225" y="772" on="1"/>
        <pt x="224" y="771" on="1"/>
        <pt x="223" y="771" on="0"/>
        <pt x="223" y="772" on="1"/>
        <pt x="221" y="771" on="0"/>
        <pt x="206" y="762" on="1"/>
        <pt x="194" y="792" on="0"/>
        <pt x="194" y="799" on="1"/>
        <pt x="196" y="803" on="1"/>
        <pt x="201" y="804" on="0"/>
        <pt x="211" y="816" on="1"/>
        <pt x="227" y="830" on="0"/>
        <pt x="230" y="830" on="1"/>
        <pt x="237" y="834" on="0"/>
        <pt x="242" y="834" on="1"/>
        <pt x="256" y="834" on="1"/>
        <pt x="262" y="834" on="1"/>
        <pt x="267" y="834" on="0"/>
        <pt x="282" y="829" on="1"/>
        <pt x="293" y="819" on="1"/>
        <pt x="309" y="799" on="1"/>
        <pt x="320" y="790" on="0"/>
        <pt x="324" y="775" on="1"/>
        <pt x="340" y="762" on="0"/>
        <pt x="351" y="762" on="1"/>
        <pt x="368" y="765" on="0"/>
        <pt x="379" y="771" on="1"/>
        <pt x="391" y="777" on="0"/>
        <pt x="391" y="790" on="1"/>
        <pt x="391" y="798" on="1"/>
        <pt x="388" y="800" on="0"/>
        <pt x="382" y="805" on="1"/>
        <pt x="395" y="811" on="0"/>
      </contour>
      <contour>
        <pt x="308" y="759" on="1"/>
        <pt x="308" y="757" on="1"/>
        <pt x="315" y="744" on="0"/>
        <pt x="326" y="738" on="1"/>
        <pt x="327" y="739" on="1"/>
        <pt x="328" y="741" on="0"/>
        <pt x="320" y="746" on="1"/>
        <pt x="311" y="769" on="0"/>
        <pt x="309" y="769" on="1"/>
      </contour>
      <contour>
        <pt x="332" y="762" on="1"/>
        <pt x="329" y="762" on="1"/>
        <pt x="333" y="746" on="0"/>
        <pt x="338" y="746" on="1"/>
        <pt x="341" y="746" on="1"/>
        <pt x="340" y="758" on="1"/>
        <pt x="336" y="762" on="0"/>
      </contour>
      <contour>
        <pt x="293" y="786" on="1"/>
        <pt x="291" y="783" on="1"/>
        <pt x="293" y="772" on="0"/>
        <pt x="301" y="765" on="1"/>
        <pt x="301" y="769" on="1"/>
        <pt x="295" y="786" on="0"/>
      </contour>
      <contour>
        <pt x="398" y="762" on="1"/>
        <pt x="388" y="744" on="1"/>
        <pt x="388" y="743" on="1"/>
        <pt x="400" y="748" on="0"/>
        <pt x="399" y="761" on="1"/>
        <pt x="399" y="762" on="0"/>
      </contour>
      <contour>
        <pt x="220" y="783" on="1"/>
        <pt x="211" y="794" on="0"/>
        <pt x="211" y="790" on="1"/>
        <pt x="211" y="787" on="1"/>
        <pt x="218" y="774" on="1"/>
        <pt x="221" y="777" on="0"/>
        <pt x="221" y="780" on="1"/>
        <pt x="221" y="782" on="0"/>
      </contour>
      <contour>
        <pt x="416" y="793" on="1"/>
        <pt x="414" y="793" on="0"/>
        <pt x="415" y="789" on="1"/>
        <pt x="415" y="772" on="0"/>
        <pt x="417" y="772" on="1"/>
        <pt x="418" y="772" on="1"/>
        <pt x="418" y="783" on="1"/>
        <pt x="418" y="787" on="0"/>
      </contour>
      <contour>
        <pt x="202" y="801" on="1"/>
        <pt x="200" y="801" on="1"/>
        <pt x="197" y="800" on="0"/>
        <pt x="197" y="798" on="1"/>
        <pt x="197" y="790" on="0"/>
        <pt x="200" y="790" on="1"/>
        <pt x="202" y="790" on="1"/>
        <pt x="203" y="790" on="0"/>
        <pt x="203" y="798" on="1"/>
        <pt x="203" y="801" on="0"/>
      </contour>
      <contour>
        <pt x="232" y="818" on="1"/>
        <pt x="231" y="818" on="1"/>
        <pt x="223" y="816" on="0"/>
        <pt x="230" y="805" on="1"/>
        <pt x="230" y="806" on="0"/>
        <pt x="231" y="809" on="0"/>
        <pt x="232" y="814" on="0"/>
        <pt x="232" y="816" on="1"/>
      </contour>
      <contour>
        <pt x="272" y="815" on="1"/>
        <pt x="272" y="814" on="1"/>
        <pt x="275" y="799" on="0"/>
        <pt x="276" y="799" on="1"/>
        <pt x="277" y="799" on="1"/>
        <pt x="274" y="814" on="1"/>
        <pt x="273" y="815" on="1"/>
      </contour>
      <contour>
        <pt x="285" y="800" on="1"/>
        <pt x="284" y="800" on="1"/>
        <pt x="290" y="790" on="0"/>
        <pt x="292" y="790" on="1"/>
        <pt x="293" y="790" on="1"/>
        <pt x="290" y="798" on="0"/>
      </contour>
      <contour>
        <pt x="276" y="820" on="1"/>
        <pt x="275" y="820" on="1"/>
        <pt x="275" y="817" on="0"/>
        <pt x="282" y="816" on="1"/>
        <pt x="283" y="816" on="1"/>
        <pt x="284" y="816" on="1"/>
        <pt x="284" y="817" on="1"/>
        <pt x="284" y="818" on="0"/>
      </contour>
      <contour>
        <pt x="239" y="830" on="1"/>
        <pt x="238" y="830" on="1"/>
        <pt x="238" y="828" on="1"/>
        <pt x="249" y="828" on="1"/>
        <pt x="249" y="829" on="1"/>
        <pt x="246" y="830" on="0"/>
      </contour>
      <contour>
        <pt x="415" y="769" on="1"/>
        <pt x="413" y="769" on="1"/>
        <pt x="413" y="763" on="1"/>
        <pt x="415" y="762" on="1"/>
        <pt x="416" y="762" on="0"/>
        <pt x="416" y="768" on="1"/>
        <pt x="416" y="769" on="1"/>
      </contour>
      <contour>
        <pt x="386" y="766" on="1"/>
        <pt x="383" y="766" on="1"/>
        <pt x="379" y="762" on="1"/>
        <pt x="380" y="762" on="1"/>
        <pt x="386" y="765" on="1"/>
      </contour>
      <contour>
        <pt x="362" y="736" on="1"/>
        <pt x="359" y="734" on="1"/>
        <pt x="359" y="733" on="1"/>
        <pt x="363" y="733" on="0"/>
        <pt x="365" y="735" on="1"/>
        <pt x="364" y="736" on="1"/>
      </contour>
      <contour>
        <pt x="305" y="783" on="1"/>
        <pt x="304" y="783" on="1"/>
        <pt x="306" y="777" on="1"/>
        <pt x="308" y="777" on="1"/>
        <pt x="307" y="780" on="1"/>
      </contour>
      <contour>
        <pt x="282" y="797" on="1"/>
        <pt x="279" y="797" on="1"/>
        <pt x="279" y="794" on="0"/>
        <pt x="282" y="794" on="1"/>
        <pt x="283" y="794" on="1"/>
        <pt x="283" y="795" on="1"/>
      </contour>
      <contour>
        <pt x="294" y="808" on="1"/>
        <pt x="297" y="805" on="0"/>
        <pt x="298" y="805" on="1"/>
        <pt x="299" y="805" on="1"/>
        <pt x="298" y="808" on="0"/>
      </contour>
      <contour>
        <pt x="414" y="798" on="1"/>
        <pt x="413" y="798" on="1"/>
        <pt x="413" y="795" on="0"/>
        <pt x="415" y="795" on="1"/>
        <pt x="416" y="795" on="1"/>
        <pt x="416" y="798" on="1"/>
      </contour>
      <contour>
        <pt x="230" y="827" on="1"/>
        <pt x="230" y="826" on="1"/>
        <pt x="231" y="826" on="1"/>
        <pt x="235" y="827" on="1"/>
        <pt x="233" y="828" on="1"/>
        <pt x="232" y="828" on="1"/>
      </contour>
      <contour>
        <pt x="274" y="825" on="1"/>
        <pt x="273" y="825" on="1"/>
        <pt x="274" y="824" on="1"/>
        <pt x="275" y="824" on="1"/>
        <pt x="275" y="825" on="1"/>
      </contour>
      <contour>
        <pt x="358" y="759" on="1"/>
        <pt x="358" y="758" on="1"/>
        <pt x="360" y="758" on="1"/>
        <pt x="361" y="758" on="1"/>
        <pt x="361" y="759" on="1"/>
      </contour>
      <contour>
        <pt x="409" y="797" on="1"/>
        <pt x="409" y="796" on="1"/>
        <pt x="409" y="795" on="1"/>
      </contour>
      <contour>
        <pt x="243" y="823" on="1"/>
        <pt x="242" y="823" on="1"/>
        <pt x="242" y="822" on="1"/>
        <pt x="243" y="822" on="1"/>
        <pt x="244" y="823" on="1"/>
      </contour>
      <contour>
        <pt x="226" y="800" on="1"/>
        <pt x="227" y="799" on="1"/>
        <pt x="228" y="799" on="0"/>
        <pt x="229" y="800" on="1"/>
      </contour>
      <contour>
        <pt x="227" y="819" on="1"/>
        <pt x="226" y="819" on="1"/>
        <pt x="228" y="819" on="1"/>
        <pt x="229" y="819" on="1"/>
      </contour>
    </TTGlyph>
    <TTGlyph name="B" xMin="-13" yMin="-41" xMax="531" yMax="632">
      <contour>
        <pt x="50" y="632" on="1"/>
        <pt x="62" y="628" on="1"/>
        <pt x="113" y="632" on="0"/>
        <pt x="297" y="632" on="1"/>
        <pt x="345" y="617" on="1"/>
        <pt x="391" y="611" on="0"/>
        <pt x="407" y="598" on="1"/>
        <pt x="481" y="533" on="0"/>
        <pt x="481" y="486" on="1"/>
        <pt x="476" y="460" on="0"/>
        <pt x="460" y="404" on="1"/>
        <pt x="425" y="368" on="0"/>
        <pt x="394" y="345" on="1"/>
        <pt x="394" y="336" on="0"/>
        <pt x="413" y="329" on="1"/>
        <pt x="423" y="322" on="0"/>
        <pt x="445" y="313" on="1"/>
        <pt x="457" y="301" on="0"/>
        <pt x="484" y="265" on="1"/>
        <pt x="520" y="229" on="0"/>
        <pt x="526" y="178" on="1"/>
        <pt x="527" y="167" on="1"/>
        <pt x="527" y="157" on="0"/>
        <pt x="520" y="157" on="1"/>
        <pt x="520" y="156" on="1"/>
        <pt x="520" y="150" on="0"/>
        <pt x="531" y="130" on="1"/>
        <pt x="531" y="121" on="1"/>
        <pt x="531" y="112" on="0"/>
        <pt x="517" y="81" on="1"/>
        <pt x="517" y="68" on="0"/>
        <pt x="495" y="64" on="1"/>
        <pt x="482" y="64" on="0"/>
        <pt x="469" y="46" on="1"/>
        <pt x="469" y="44" on="1"/>
        <pt x="469" y="42" on="0"/>
        <pt x="477" y="40" on="1"/>
        <pt x="477" y="39" on="1"/>
        <pt x="475" y="34" on="0"/>
        <pt x="470" y="34" on="1"/>
        <pt x="470" y="40" on="0"/>
        <pt x="467" y="40" on="1"/>
        <pt x="465" y="40" on="0"/>
        <pt x="463" y="32" on="1"/>
        <pt x="445" y="32" on="0"/>
        <pt x="420" y="16" on="1"/>
        <pt x="420" y="14" on="1"/>
        <pt x="423" y="14" on="1"/>
        <pt x="429" y="14" on="0"/>
        <pt x="452" y="24" on="1"/>
        <pt x="452" y="23" on="1"/>
        <pt x="437" y="9" on="0"/>
        <pt x="391" y="-1" on="1"/>
        <pt x="327" y="-30" on="0"/>
        <pt x="133" y="-30" on="1"/>
        <pt x="133" y="-28" on="1"/>
        <pt x="132" y="-23" on="1"/>
        <pt x="86" y="-23" on="0"/>
        <pt x="48" y="-41" on="1"/>
        <pt x="32" y="-41" on="0"/>
        <pt x="32" y="14" on="1"/>
        <pt x="32" y="22" on="0"/>
        <pt x="92" y="39" on="1"/>
        <pt x="136" y="44" on="0"/>
        <pt x="136" y="48" on="1"/>
        <pt x="136" y="49" on="1"/>
        <pt x="130" y="49" on="0"/>
        <pt x="122" y="133" on="1"/>
        <pt x="120" y="166" on="0"/>
        <pt x="116" y="178" on="1"/>
        <pt x="116" y="189" on="0"/>
        <pt x="124" y="207" on="1"/>
        <pt x="122" y="279" on="0"/>
        <pt x="113" y="279" on="1"/>
        <pt x="107" y="279" on="0"/>
        <pt x="103" y="442" on="1"/>
        <pt x="103" y="544" on="1"/>
        <pt x="81" y="553" on="0"/>
        <pt x="74" y="553" on="1"/>
        <pt x="67" y="553" on="1"/>
        <pt x="60" y="553" on="0"/>
        <pt x="58" y="548" on="1"/>
        <pt x="58" y="546" on="1"/>
        <pt x="59" y="538" on="1"/>
        <pt x="59" y="536" on="0"/>
        <pt x="45" y="505" on="1"/>
        <pt x="45" y="503" on="1"/>
        <pt x="29" y="502" on="1"/>
        <pt x="26" y="507" on="0"/>
        <pt x="10" y="508" on="1"/>
        <pt x="1" y="508" on="0"/>
        <pt x="-2" y="567" on="1"/>
        <pt x="-5" y="584" on="0"/>
        <pt x="-13" y="606" on="1"/>
        <pt x="2" y="627" on="0"/>
        <pt x="20" y="627" on="1"/>
        <pt x="20" y="629" on="0"/>
      </contour>
      <contour>
        <pt x="143" y="599" on="1"/>
        <pt x="145" y="598" on="1"/>
        <pt x="173" y="598" on="1"/>
        <pt x="211" y="598" on="0"/>
        <pt x="211" y="606" on="1"/>
        <pt x="211" y="607" on="1"/>
        <pt x="211" y="608" on="0"/>
        <pt x="205" y="610" on="1"/>
        <pt x="146" y="607" on="0"/>
      </contour>
      <contour>
        <pt x="98" y="602" on="1"/>
        <pt x="124" y="594" on="1"/>
        <pt x="126" y="594" on="1"/>
        <pt x="132" y="594" on="0"/>
        <pt x="136" y="600" on="1"/>
        <pt x="136" y="605" on="0"/>
        <pt x="113" y="607" on="1"/>
        <pt x="98" y="606" on="0"/>
      </contour>
      <contour>
        <pt x="238" y="607" on="1"/>
        <pt x="233" y="607" on="1"/>
        <pt x="233" y="604" on="1"/>
        <pt x="238" y="604" on="1"/>
      </contour>
      <contour>
        <pt x="400" y="583" on="1"/>
        <pt x="397" y="580" on="1"/>
        <pt x="397" y="579" on="1"/>
        <pt x="401" y="574" on="1"/>
        <pt x="407" y="574" on="1"/>
        <pt x="409" y="577" on="1"/>
        <pt x="409" y="578" on="1"/>
        <pt x="405" y="583" on="1"/>
      </contour>
      <contour>
        <pt x="161" y="569" on="1"/>
        <pt x="161" y="567" on="1"/>
        <pt x="164" y="563" on="1"/>
        <pt x="168" y="563" on="1"/>
        <pt x="219" y="568" on="0"/>
        <pt x="223" y="575" on="1"/>
        <pt x="221" y="577" on="1"/>
        <pt x="161" y="574" on="0"/>
      </contour>
      <contour>
        <pt x="168" y="542" on="1"/>
        <pt x="176" y="327" on="0"/>
        <pt x="182" y="327" on="1"/>
        <pt x="185" y="325" on="1"/>
        <pt x="186" y="325" on="1"/>
        <pt x="277" y="346" on="1"/>
        <pt x="337" y="354" on="0"/>
        <pt x="337" y="362" on="1"/>
        <pt x="409" y="418" on="0"/>
        <pt x="409" y="439" on="1"/>
        <pt x="409" y="445" on="1"/>
        <pt x="398" y="502" on="0"/>
        <pt x="398" y="509" on="1"/>
        <pt x="398" y="535" on="0"/>
        <pt x="363" y="558" on="1"/>
        <pt x="350" y="561" on="0"/>
        <pt x="314" y="562" on="1"/>
        <pt x="168" y="554" on="0"/>
      </contour>
      <contour>
        <pt x="400" y="553" on="1"/>
        <pt x="391" y="553" on="1"/>
        <pt x="391" y="550" on="1"/>
        <pt x="409" y="534" on="0"/>
        <pt x="409" y="505" on="1"/>
        <pt x="417" y="476" on="0"/>
        <pt x="420" y="471" on="1"/>
        <pt x="422" y="471" on="1"/>
        <pt x="422" y="480" on="1"/>
        <pt x="413" y="553" on="0"/>
      </contour>
      <contour>
        <pt x="455" y="531" on="1"/>
        <pt x="452" y="531" on="1"/>
        <pt x="452" y="528" on="1"/>
        <pt x="457" y="524" on="1"/>
        <pt x="460" y="524" on="1"/>
        <pt x="460" y="527" on="1"/>
      </contour>
      <contour>
        <pt x="437" y="508" on="1"/>
        <pt x="434" y="505" on="1"/>
        <pt x="435" y="501" on="1"/>
        <pt x="438" y="501" on="1"/>
        <pt x="444" y="506" on="1"/>
        <pt x="441" y="508" on="1"/>
      </contour>
      <contour>
        <pt x="444" y="482" on="1"/>
        <pt x="441" y="484" on="1"/>
        <pt x="440" y="483" on="1"/>
        <pt x="440" y="478" on="1"/>
        <pt x="442" y="476" on="1"/>
        <pt x="444" y="477" on="1"/>
      </contour>
      <contour>
        <pt x="116" y="457" on="1"/>
        <pt x="113" y="454" on="1"/>
        <pt x="113" y="445" on="1"/>
        <pt x="116" y="443" on="1"/>
        <pt x="117" y="443" on="1"/>
        <pt x="120" y="445" on="1"/>
        <pt x="120" y="449" on="1"/>
        <pt x="120" y="456" on="0"/>
      </contour>
      <contour>
        <pt x="384" y="366" on="1"/>
        <pt x="380" y="362" on="1"/>
        <pt x="383" y="362" on="1"/>
        <pt x="385" y="364" on="1"/>
        <pt x="385" y="366" on="1"/>
      </contour>
      <contour>
        <pt x="239" y="322" on="1"/>
        <pt x="242" y="322" on="1"/>
        <pt x="242" y="321" on="1"/>
        <pt x="304" y="326" on="0"/>
        <pt x="304" y="332" on="1"/>
        <pt x="304" y="333" on="1"/>
        <pt x="299" y="333" on="1"/>
        <pt x="244" y="332" on="0"/>
      </contour>
      <contour>
        <pt x="345" y="323" on="1"/>
        <pt x="345" y="321" on="1"/>
        <pt x="346" y="321" on="1"/>
        <pt x="367" y="321" on="0"/>
        <pt x="400" y="311" on="1"/>
        <pt x="403" y="311" on="0"/>
        <pt x="403" y="315" on="1"/>
        <pt x="397" y="329" on="0"/>
        <pt x="376" y="329" on="1"/>
        <pt x="365" y="329" on="1"/>
        <pt x="345" y="329" on="0"/>
      </contour>
      <contour>
        <pt x="416" y="308" on="1"/>
        <pt x="416" y="307" on="1"/>
        <pt x="428" y="293" on="0"/>
        <pt x="438" y="293" on="1"/>
        <pt x="438" y="294" on="1"/>
        <pt x="438" y="304" on="0"/>
      </contour>
      <contour>
        <pt x="243" y="286" on="1"/>
        <pt x="243" y="284" on="0"/>
        <pt x="247" y="284" on="1"/>
        <pt x="274" y="285" on="0"/>
        <pt x="304" y="292" on="1"/>
        <pt x="339" y="293" on="1"/>
        <pt x="351" y="293" on="1"/>
        <pt x="358" y="294" on="1"/>
        <pt x="358" y="296" on="1"/>
        <pt x="358" y="301" on="0"/>
        <pt x="328" y="301" on="1"/>
        <pt x="310" y="301" on="1"/>
        <pt x="256" y="301" on="0"/>
      </contour>
      <contour>
        <pt x="233" y="290" on="1"/>
        <pt x="229" y="290" on="1"/>
        <pt x="229" y="288" on="1"/>
        <pt x="233" y="288" on="1"/>
      </contour>
      <contour>
        <pt x="385" y="290" on="1"/>
        <pt x="383" y="290" on="1"/>
        <pt x="383" y="286" on="1"/>
        <pt x="385" y="286" on="1"/>
      </contour>
      <contour>
        <pt x="180" y="276" on="1"/>
        <pt x="180" y="274" on="1"/>
        <pt x="183" y="274" on="1"/>
        <pt x="208" y="277" on="0"/>
        <pt x="208" y="282" on="1"/>
        <pt x="205" y="282" on="1"/>
        <pt x="196" y="282" on="0"/>
      </contour>
      <contour>
        <pt x="178" y="261" on="1"/>
        <pt x="175" y="256" on="1"/>
        <pt x="174" y="234" on="1"/>
        <pt x="178" y="63" on="0"/>
        <pt x="189" y="40" on="1"/>
        <pt x="194" y="23" on="0"/>
        <pt x="213" y="23" on="1"/>
        <pt x="302" y="19" on="1"/>
        <pt x="356" y="22" on="0"/>
        <pt x="434" y="65" on="1"/>
        <pt x="472" y="103" on="0"/>
        <pt x="472" y="117" on="1"/>
        <pt x="476" y="117" on="0"/>
        <pt x="477" y="127" on="1"/>
        <pt x="477" y="130" on="1"/>
        <pt x="477" y="175" on="0"/>
        <pt x="450" y="226" on="1"/>
        <pt x="422" y="256" on="0"/>
        <pt x="405" y="256" on="1"/>
        <pt x="397" y="256" on="1"/>
        <pt x="391" y="258" on="0"/>
        <pt x="391" y="259" on="1"/>
        <pt x="391" y="263" on="0"/>
        <pt x="398" y="263" on="1"/>
        <pt x="398" y="265" on="1"/>
        <pt x="391" y="275" on="0"/>
        <pt x="376" y="275" on="1"/>
        <pt x="375" y="275" on="1"/>
        <pt x="375" y="274" on="1"/>
        <pt x="380" y="268" on="1"/>
        <pt x="380" y="266" on="1"/>
        <pt x="378" y="266" on="1"/>
        <pt x="332" y="281" on="0"/>
        <pt x="304" y="281" on="1"/>
        <pt x="299" y="281" on="1"/>
        <pt x="230" y="281" on="0"/>
      </contour>
      <contour>
        <pt x="444" y="273" on="1"/>
        <pt x="441" y="271" on="1"/>
        <pt x="445" y="256" on="0"/>
        <pt x="466" y="240" on="1"/>
        <pt x="469" y="240" on="1"/>
        <pt x="469" y="244" on="1"/>
        <pt x="466" y="258" on="0"/>
        <pt x="445" y="273" on="1"/>
      </contour>
      <contour>
        <pt x="432" y="38" on="1"/>
        <pt x="434" y="36" on="1"/>
        <pt x="435" y="36" on="1"/>
        <pt x="448" y="36" on="0"/>
        <pt x="455" y="51" on="1"/>
        <pt x="455" y="52" on="1"/>
        <pt x="454" y="52" on="1"/>
        <pt x="432" y="45" on="0"/>
      </contour>
      <contour>
        <pt x="148" y="46" on="1"/>
        <pt x="142" y="46" on="1"/>
        <pt x="142" y="45" on="1"/>
        <pt x="143" y="41" on="0"/>
        <pt x="149" y="41" on="1"/>
        <pt x="149" y="44" on="1"/>
      </contour>
      <contour>
        <pt x="405" y="26" on="1"/>
        <pt x="405" y="22" on="1"/>
        <pt x="409" y="22" on="1"/>
        <pt x="416" y="22" on="0"/>
        <pt x="422" y="31" on="1"/>
        <pt x="422" y="34" on="1"/>
        <pt x="405" y="31" on="0"/>
      </contour>
      <contour>
        <pt x="121" y="9" on="1"/>
        <pt x="114" y="9" on="1"/>
        <pt x="114" y="4" on="1"/>
        <pt x="121" y="4" on="1"/>
        <pt x="126" y="4" on="1"/>
        <pt x="132" y="4" on="1"/>
        <pt x="132" y="9" on="1"/>
        <pt x="126" y="9" on="1"/>
      </contour>
      <contour>
        <pt x="215" y="-1" on="1"/>
        <pt x="213" y="-3" on="1"/>
        <pt x="218" y="-3" on="1"/>
      </contour>
      <contour>
        <pt x="76" y="-5" on="1"/>
        <pt x="73" y="-6" on="1"/>
        <pt x="75" y="-11" on="0"/>
        <pt x="81" y="-11" on="1"/>
        <pt x="85" y="-6" on="1"/>
        <pt x="83" y="-5" on="1"/>
      </contour>
    </TTGlyph>
    <TTGlyph name="C" xMin="12" yMin="-45" xMax="566" yMax="661">
      <contour>
        <pt x="290" y="661" on="1"/>
        <pt x="299" y="661" on="1"/>
        <pt x="348" y="661" on="0"/>
        <pt x="407" y="626" on="1"/>
        <pt x="439" y="597" on="0"/>
        <pt x="446" y="597" on="1"/>
        <pt x="452" y="597" on="1"/>
        <pt x="460" y="602" on="0"/>
        <pt x="460" y="608" on="1"/>
        <pt x="460" y="610" on="1"/>
        <pt x="455" y="625" on="1"/>
        <pt x="455" y="629" on="0"/>
        <pt x="462" y="630" on="1"/>
        <pt x="468" y="628" on="0"/>
        <pt x="473" y="622" on="1"/>
        <pt x="475" y="622" on="1"/>
        <pt x="475" y="625" on="1"/>
        <pt x="475" y="636" on="0"/>
        <pt x="460" y="649" on="1"/>
        <pt x="464" y="652" on="0"/>
        <pt x="481" y="652" on="1"/>
        <pt x="485" y="652" on="0"/>
        <pt x="517" y="632" on="1"/>
        <pt x="524" y="632" on="0"/>
        <pt x="524" y="625" on="1"/>
        <pt x="524" y="531" on="1"/>
        <pt x="524" y="465" on="0"/>
        <pt x="514" y="455" on="1"/>
        <pt x="513" y="452" on="1"/>
        <pt x="516" y="448" on="1"/>
        <pt x="516" y="447" on="1"/>
        <pt x="516" y="432" on="0"/>
        <pt x="472" y="432" on="1"/>
        <pt x="462" y="427" on="0"/>
        <pt x="459" y="427" on="1"/>
        <pt x="455" y="427" on="1"/>
        <pt x="455" y="443" on="0"/>
        <pt x="432" y="484" on="1"/>
        <pt x="415" y="550" on="0"/>
        <pt x="400" y="562" on="1"/>
        <pt x="384" y="581" on="0"/>
        <pt x="310" y="593" on="1"/>
        <pt x="281" y="596" on="1"/>
        <pt x="242" y="592" on="1"/>
        <pt x="235" y="599" on="1"/>
        <pt x="217" y="597" on="0"/>
        <pt x="171" y="556" on="1"/>
        <pt x="169" y="548" on="1"/>
        <pt x="169" y="546" on="1"/>
        <pt x="173" y="546" on="1"/>
        <pt x="214" y="580" on="0"/>
        <pt x="232" y="589" on="1"/>
        <pt x="232" y="587" on="1"/>
        <pt x="208" y="561" on="0"/>
        <pt x="144" y="520" on="1"/>
        <pt x="117" y="500" on="0"/>
        <pt x="103" y="465" on="1"/>
        <pt x="78" y="408" on="0"/>
        <pt x="78" y="353" on="1"/>
        <pt x="78" y="258" on="0"/>
        <pt x="101" y="215" on="1"/>
        <pt x="141" y="106" on="0"/>
        <pt x="193" y="60" on="1"/>
        <pt x="260" y="23" on="0"/>
        <pt x="320" y="23" on="1"/>
        <pt x="336" y="23" on="1"/>
        <pt x="366" y="23" on="0"/>
        <pt x="401" y="45" on="1"/>
        <pt x="413" y="68" on="0"/>
        <pt x="454" y="101" on="1"/>
        <pt x="488" y="128" on="0"/>
        <pt x="488" y="145" on="1"/>
        <pt x="488" y="148" on="1"/>
        <pt x="487" y="175" on="1"/>
        <pt x="487" y="178" on="0"/>
        <pt x="499" y="186" on="1"/>
        <pt x="499" y="190" on="0"/>
        <pt x="504" y="193" on="1"/>
        <pt x="507" y="193" on="1"/>
        <pt x="531" y="189" on="1"/>
        <pt x="548" y="189" on="1"/>
        <pt x="556" y="189" on="0"/>
        <pt x="556" y="175" on="1"/>
        <pt x="566" y="129" on="0"/>
        <pt x="566" y="106" on="1"/>
        <pt x="566" y="55" on="0"/>
        <pt x="553" y="22" on="1"/>
        <pt x="553" y="19" on="1"/>
        <pt x="554" y="12" on="1"/>
        <pt x="549" y="4" on="1"/>
        <pt x="549" y="2" on="1"/>
        <pt x="549" y="0" on="0"/>
        <pt x="566" y="-3" on="1"/>
        <pt x="566" y="-5" on="1"/>
        <pt x="500" y="-37" on="1"/>
        <pt x="498" y="-37" on="1"/>
        <pt x="482" y="-16" on="0"/>
        <pt x="473" y="12" on="1"/>
        <pt x="472" y="13" on="1"/>
        <pt x="459" y="8" on="0"/>
        <pt x="427" y="-12" on="1"/>
        <pt x="348" y="-45" on="0"/>
        <pt x="330" y="-45" on="1"/>
        <pt x="270" y="-27" on="1"/>
        <pt x="258" y="-25" on="1"/>
        <pt x="252" y="-25" on="1"/>
        <pt x="239" y="-29" on="1"/>
        <pt x="216" y="-29" on="0"/>
        <pt x="165" y="-8" on="1"/>
        <pt x="124" y="2" on="0"/>
        <pt x="95" y="47" on="1"/>
        <pt x="25" y="148" on="0"/>
        <pt x="25" y="203" on="1"/>
        <pt x="16" y="239" on="0"/>
        <pt x="16" y="258" on="1"/>
        <pt x="17" y="268" on="0"/>
        <pt x="29" y="268" on="1"/>
        <pt x="31" y="259" on="1"/>
        <pt x="31" y="254" on="1"/>
        <pt x="35" y="254" on="1"/>
        <pt x="39" y="257" on="1"/>
        <pt x="39" y="261" on="1"/>
        <pt x="39" y="274" on="0"/>
        <pt x="16" y="279" on="1"/>
        <pt x="13" y="279" on="0"/>
        <pt x="12" y="388" on="1"/>
        <pt x="12" y="412" on="0"/>
        <pt x="39" y="477" on="1"/>
        <pt x="41" y="477" on="0"/>
        <pt x="44" y="506" on="1"/>
        <pt x="48" y="507" on="0"/>
        <pt x="52" y="529" on="1"/>
        <pt x="82" y="563" on="0"/>
        <pt x="126" y="592" on="1"/>
        <pt x="145" y="610" on="0"/>
        <pt x="184" y="627" on="1"/>
        <pt x="259" y="661" on="0"/>
      </contour>
      <contour>
        <pt x="256" y="639" on="1"/>
        <pt x="256" y="636" on="1"/>
        <pt x="258" y="636" on="1"/>
        <pt x="271" y="637" on="0"/>
        <pt x="271" y="642" on="1"/>
        <pt x="268" y="643" on="1"/>
        <pt x="267" y="643" on="1"/>
        <pt x="257" y="643" on="0"/>
      </contour>
      <contour>
        <pt x="322" y="643" on="1"/>
        <pt x="321" y="643" on="1"/>
        <pt x="321" y="640" on="1"/>
        <pt x="337" y="637" on="1"/>
        <pt x="339" y="637" on="1"/>
        <pt x="341" y="640" on="1"/>
        <pt x="341" y="643" on="0"/>
      </contour>
      <contour>
        <pt x="170" y="607" on="1"/>
        <pt x="170" y="605" on="1"/>
        <pt x="171" y="605" on="1"/>
        <pt x="188" y="609" on="0"/>
        <pt x="210" y="624" on="1"/>
        <pt x="210" y="625" on="1"/>
        <pt x="208" y="626" on="1"/>
        <pt x="207" y="626" on="1"/>
        <pt x="185" y="622" on="0"/>
      </contour>
      <contour>
        <pt x="316" y="616" on="1"/>
        <pt x="316" y="612" on="0"/>
        <pt x="359" y="605" on="1"/>
        <pt x="364" y="601" on="1"/>
        <pt x="371" y="601" on="1"/>
        <pt x="374" y="605" on="1"/>
        <pt x="374" y="607" on="1"/>
        <pt x="364" y="607" on="0"/>
        <pt x="353" y="617" on="1"/>
        <pt x="334" y="625" on="0"/>
        <pt x="326" y="625" on="1"/>
        <pt x="316" y="625" on="0"/>
      </contour>
      <contour>
        <pt x="435" y="587" on="1"/>
        <pt x="432" y="587" on="1"/>
        <pt x="432" y="585" on="1"/>
        <pt x="440" y="573" on="0"/>
        <pt x="447" y="573" on="1"/>
        <pt x="448" y="573" on="1"/>
        <pt x="452" y="576" on="1"/>
        <pt x="452" y="577" on="1"/>
        <pt x="443" y="587" on="0"/>
      </contour>
      <contour>
        <pt x="160" y="566" on="1"/>
        <pt x="163" y="566" on="1"/>
        <pt x="167" y="567" on="0"/>
        <pt x="169" y="571" on="1"/>
        <pt x="167" y="571" on="1"/>
        <pt x="163" y="571" on="0"/>
      </contour>
      <contour>
        <pt x="149" y="553" on="1"/>
        <pt x="153" y="553" on="1"/>
        <pt x="157" y="556" on="1"/>
        <pt x="157" y="560" on="1"/>
        <pt x="149" y="560" on="0"/>
      </contour>
      <contour>
        <pt x="447" y="556" on="1"/>
        <pt x="445" y="553" on="1"/>
        <pt x="445" y="551" on="1"/>
        <pt x="448" y="549" on="1"/>
        <pt x="452" y="553" on="1"/>
        <pt x="448" y="556" on="1"/>
      </contour>
      <contour>
        <pt x="82" y="529" on="1"/>
        <pt x="94" y="529" on="0"/>
        <pt x="99" y="538" on="1"/>
        <pt x="99" y="541" on="1"/>
        <pt x="95" y="541" on="1"/>
        <pt x="85" y="541" on="0"/>
      </contour>
      <contour>
        <pt x="481" y="491" on="1"/>
        <pt x="479" y="489" on="1"/>
        <pt x="479" y="486" on="1"/>
        <pt x="482" y="485" on="1"/>
        <pt x="485" y="488" on="1"/>
        <pt x="484" y="491" on="1"/>
      </contour>
      <contour>
        <pt x="465" y="467" on="1"/>
        <pt x="465" y="465" on="1"/>
        <pt x="482" y="470" on="0"/>
        <pt x="482" y="475" on="1"/>
        <pt x="480" y="479" on="0"/>
        <pt x="477" y="481" on="1"/>
        <pt x="473" y="481" on="1"/>
        <pt x="465" y="473" on="0"/>
      </contour>
      <contour>
        <pt x="469" y="451" on="1"/>
        <pt x="465" y="447" on="1"/>
        <pt x="465" y="442" on="1"/>
        <pt x="469" y="442" on="1"/>
        <pt x="475" y="442" on="0"/>
        <pt x="477" y="447" on="1"/>
        <pt x="477" y="448" on="1"/>
        <pt x="475" y="451" on="1"/>
      </contour>
      <contour>
        <pt x="66" y="407" on="1"/>
        <pt x="66" y="405" on="1"/>
        <pt x="69" y="405" on="1"/>
        <pt x="74" y="409" on="1"/>
        <pt x="74" y="416" on="1"/>
        <pt x="70" y="416" on="1"/>
        <pt x="66" y="413" on="0"/>
      </contour>
      <contour>
        <pt x="35" y="397" on="1"/>
        <pt x="33" y="397" on="1"/>
        <pt x="29" y="382" on="1"/>
        <pt x="29" y="373" on="1"/>
        <pt x="31" y="373" on="1"/>
        <pt x="35" y="373" on="0"/>
        <pt x="35" y="383" on="1"/>
      </contour>
      <contour>
        <pt x="31" y="363" on="1"/>
        <pt x="27" y="363" on="1"/>
        <pt x="27" y="358" on="1"/>
        <pt x="31" y="358" on="1"/>
        <pt x="33" y="360" on="1"/>
      </contour>
      <contour>
        <pt x="58" y="283" on="1"/>
        <pt x="58" y="265" on="1"/>
        <pt x="60" y="241" on="0"/>
        <pt x="85" y="205" on="1"/>
        <pt x="87" y="203" on="1"/>
        <pt x="91" y="203" on="1"/>
        <pt x="91" y="208" on="1"/>
        <pt x="72" y="265" on="0"/>
        <pt x="64" y="322" on="1"/>
        <pt x="63" y="322" on="1"/>
        <pt x="58" y="322" on="0"/>
      </contour>
      <contour>
        <pt x="39" y="316" on="1"/>
        <pt x="38" y="316" on="1"/>
        <pt x="37" y="310" on="1"/>
        <pt x="37" y="301" on="1"/>
        <pt x="40" y="297" on="1"/>
        <pt x="43" y="300" on="1"/>
        <pt x="43" y="306" on="1"/>
        <pt x="43" y="315" on="0"/>
      </contour>
      <contour>
        <pt x="37" y="242" on="1"/>
        <pt x="34" y="242" on="1"/>
        <pt x="34" y="239" on="1"/>
        <pt x="38" y="236" on="1"/>
        <pt x="39" y="236" on="1"/>
        <pt x="39" y="239" on="1"/>
      </contour>
      <contour>
        <pt x="60" y="202" on="1"/>
        <pt x="57" y="200" on="1"/>
        <pt x="57" y="194" on="0"/>
        <pt x="62" y="192" on="1"/>
        <pt x="63" y="192" on="1"/>
        <pt x="66" y="193" on="1"/>
        <pt x="66" y="196" on="1"/>
      </contour>
      <contour>
        <pt x="59" y="175" on="1"/>
        <pt x="58" y="175" on="1"/>
        <pt x="58" y="173" on="1"/>
        <pt x="62" y="151" on="0"/>
        <pt x="69" y="151" on="1"/>
        <pt x="70" y="151" on="1"/>
        <pt x="74" y="151" on="0"/>
        <pt x="74" y="155" on="1"/>
      </contour>
      <contour>
        <pt x="512" y="149" on="1"/>
        <pt x="509" y="148" on="1"/>
        <pt x="509" y="146" on="1"/>
        <pt x="514" y="141" on="1"/>
        <pt x="516" y="141" on="1"/>
        <pt x="527" y="143" on="0"/>
        <pt x="527" y="146" on="1"/>
        <pt x="527" y="148" on="1"/>
        <pt x="526" y="149" on="1"/>
      </contour>
      <contour>
        <pt x="523" y="126" on="1"/>
        <pt x="523" y="122" on="1"/>
        <pt x="526" y="116" on="0"/>
        <pt x="531" y="116" on="1"/>
        <pt x="535" y="120" on="0"/>
        <pt x="535" y="128" on="1"/>
        <pt x="535" y="133" on="1"/>
        <pt x="535" y="136" on="0"/>
        <pt x="531" y="136" on="1"/>
        <pt x="523" y="133" on="0"/>
      </contour>
      <contour>
        <pt x="512" y="123" on="1"/>
        <pt x="509" y="121" on="1"/>
        <pt x="509" y="108" on="1"/>
        <pt x="513" y="104" on="1"/>
        <pt x="514" y="104" on="1"/>
        <pt x="517" y="107" on="1"/>
        <pt x="517" y="114" on="1"/>
        <pt x="517" y="121" on="0"/>
      </contour>
      <contour>
        <pt x="112" y="113" on="1"/>
        <pt x="112" y="112" on="1"/>
        <pt x="128" y="81" on="0"/>
        <pt x="139" y="81" on="1"/>
        <pt x="139" y="85" on="1"/>
        <pt x="120" y="111" on="0"/>
      </contour>
      <contour>
        <pt x="79" y="110" on="1"/>
        <pt x="77" y="107" on="1"/>
        <pt x="79" y="104" on="1"/>
        <pt x="81" y="104" on="1"/>
        <pt x="84" y="107" on="1"/>
        <pt x="81" y="110" on="1"/>
      </contour>
      <contour>
        <pt x="481" y="99" on="1"/>
        <pt x="479" y="97" on="1"/>
        <pt x="479" y="94" on="1"/>
        <pt x="484" y="94" on="1"/>
        <pt x="487" y="97" on="1"/>
        <pt x="487" y="99" on="1"/>
      </contour>
      <contour>
        <pt x="517" y="99" on="1"/>
        <pt x="513" y="99" on="1"/>
        <pt x="513" y="95" on="1"/>
        <pt x="516" y="95" on="1"/>
        <pt x="517" y="98" on="1"/>
      </contour>
      <contour>
        <pt x="89" y="94" on="1"/>
        <pt x="88" y="94" on="1"/>
        <pt x="88" y="93" on="1"/>
        <pt x="88" y="90" on="0"/>
        <pt x="94" y="79" on="1"/>
        <pt x="99" y="79" on="1"/>
        <pt x="99" y="81" on="1"/>
        <pt x="99" y="88" on="0"/>
      </contour>
      <contour>
        <pt x="472" y="81" on="1"/>
        <pt x="472" y="79" on="1"/>
        <pt x="473" y="79" on="1"/>
        <pt x="479" y="82" on="1"/>
        <pt x="479" y="85" on="1"/>
        <pt x="477" y="85" on="1"/>
        <pt x="472" y="83" on="0"/>
      </contour>
      <contour>
        <pt x="149" y="76" on="1"/>
        <pt x="146" y="74" on="1"/>
        <pt x="146" y="61" on="0"/>
        <pt x="165" y="57" on="1"/>
        <pt x="167" y="57" on="1"/>
        <pt x="171" y="60" on="1"/>
        <pt x="163" y="71" on="0"/>
      </contour>
      <contour>
        <pt x="520" y="74" on="1"/>
        <pt x="519" y="74" on="1"/>
        <pt x="519" y="67" on="1"/>
        <pt x="522" y="64" on="1"/>
        <pt x="523" y="64" on="1"/>
        <pt x="523" y="72" on="1"/>
      </contour>
      <contour>
        <pt x="107" y="70" on="1"/>
        <pt x="104" y="70" on="1"/>
        <pt x="112" y="47" on="0"/>
        <pt x="124" y="40" on="1"/>
        <pt x="130" y="40" on="1"/>
        <pt x="130" y="47" on="1"/>
        <pt x="123" y="58" on="0"/>
      </contour>
      <contour>
        <pt x="182" y="42" on="1"/>
        <pt x="176" y="42" on="1"/>
        <pt x="176" y="41" on="1"/>
        <pt x="176" y="38" on="0"/>
        <pt x="203" y="32" on="1"/>
        <pt x="203" y="34" on="1"/>
        <pt x="198" y="42" on="0"/>
      </contour>
      <contour>
        <pt x="452" y="29" on="1"/>
        <pt x="452" y="27" on="1"/>
        <pt x="459" y="27" on="0"/>
        <pt x="463" y="34" on="1"/>
        <pt x="463" y="35" on="1"/>
        <pt x="462" y="35" on="1"/>
        <pt x="454" y="35" on="0"/>
      </contour>
      <contour>
        <pt x="517" y="29" on="1"/>
        <pt x="516" y="27" on="1"/>
        <pt x="517" y="22" on="1"/>
        <pt x="522" y="23" on="1"/>
        <pt x="522" y="27" on="1"/>
        <pt x="519" y="29" on="1"/>
      </contour>
      <contour>
        <pt x="157" y="16" on="1"/>
        <pt x="155" y="13" on="1"/>
        <pt x="156" y="9" on="0"/>
        <pt x="198" y="-4" on="1"/>
        <pt x="198" y="-8" on="0"/>
        <pt x="215" y="-8" on="1"/>
        <pt x="220" y="-6" on="1"/>
        <pt x="220" y="-5" on="1"/>
        <pt x="219" y="-1" on="0"/>
        <pt x="183" y="13" on="1"/>
        <pt x="180" y="16" on="0"/>
        <pt x="166" y="16" on="1"/>
      </contour>
      <contour>
        <pt x="205" y="16" on="1"/>
        <pt x="204" y="15" on="1"/>
        <pt x="204" y="13" on="1"/>
        <pt x="230" y="-4" on="0"/>
        <pt x="268" y="-4" on="1"/>
        <pt x="275" y="-4" on="1"/>
        <pt x="277" y="-2" on="1"/>
        <pt x="224" y="16" on="0"/>
      </contour>
      <contour>
        <pt x="286" y="5" on="1"/>
        <pt x="298" y="-8" on="0"/>
        <pt x="326" y="-8" on="1"/>
        <pt x="359" y="-5" on="0"/>
        <pt x="359" y="2" on="1"/>
        <pt x="359" y="4" on="1"/>
        <pt x="359" y="9" on="0"/>
        <pt x="334" y="9" on="1"/>
        <pt x="319" y="9" on="1"/>
        <pt x="286" y="9" on="0"/>
      </contour>
      <contour>
        <pt x="403" y="5" on="1"/>
        <pt x="401" y="2" on="1"/>
        <pt x="405" y="2" on="1"/>
        <pt x="407" y="4" on="1"/>
        <pt x="406" y="5" on="1"/>
      </contour>
      <contour>
        <pt x="519" y="-6" on="1"/>
        <pt x="504" y="-8" on="1"/>
        <pt x="504" y="-12" on="1"/>
        <pt x="509" y="-16" on="1"/>
        <pt x="514" y="-16" on="1"/>
        <pt x="538" y="-12" on="0"/>
        <pt x="538" y="-8" on="1"/>
        <pt x="538" y="-6" on="1"/>
      </contour>
      <contour>
        <pt x="341" y="-23" on="1"/>
        <pt x="312" y="-31" on="1"/>
        <pt x="312" y="-34" on="1"/>
        <pt x="328" y="-37" on="1"/>
        <pt x="334" y="-37" on="1"/>
        <pt x="344" y="-37" on="0"/>
        <pt x="384" y="-15" on="1"/>
        <pt x="384" y="-12" on="1"/>
        <pt x="383" y="-12" on="1"/>
        <pt x="374" y="-12" on="0"/>
      </contour>
    </TTGlyph>
    <TTGlyph name="Cacute" xMin="12" yMin="-45" xMax="566" yMax="889">
      <component glyphName="C" x="0" y="0" flags="0x1004"/>
      <component glyphName="acute" x="168" y="283" flags="0x1004"/>
    </TTGlyph>
    <TTGlyph name="Ccaron" xMin="12" yMin="-45" xMax="566" yMax="847">
      <component glyphName="C" x="0" y="0" flags="0x1004"/>
      <component glyphName="caron" x="144" y="301" flags="0x1004"/>
    </TTGlyph>
    <TTGlyph name="Ccedilla" xMin="12" yMin="-313" xMax="566" yMax="661">
      <contour>
        <pt x="290" y="661" on="1"/>
        <pt x="299" y="661" on="1"/>
        <pt x="348" y="661" on="0"/>
        <pt x="407" y="626" on="1"/>
        <pt x="439" y="597" on="0"/>
        <pt x="446" y="597" on="1"/>
        <pt x="452" y="597" on="1"/>
        <pt x="460" y="602" on="0"/>
        <pt x="460" y="608" on="1"/>
        <pt x="460" y="610" on="1"/>
        <pt x="455" y="625" on="1"/>
        <pt x="455" y="629" on="0"/>
        <pt x="462" y="630" on="1"/>
        <pt x="468" y="628" on="0"/>
        <pt x="473" y="622" on="1"/>
        <pt x="475" y="622" on="1"/>
        <pt x="475" y="625" on="1"/>
        <pt x="475" y="636" on="0"/>
        <pt x="460" y="649" on="1"/>
        <pt x="464" y="652" on="0"/>
        <pt x="481" y="652" on="1"/>
        <pt x="485" y="652" on="0"/>
        <pt x="517" y="632" on="1"/>
        <pt x="524" y="632" on="0"/>
        <pt x="524" y="625" on="1"/>
        <pt x="524" y="531" on="1"/>
        <pt x="524" y="465" on="0"/>
        <pt x="514" y="455" on="1"/>
        <pt x="513" y="452" on="1"/>
        <pt x="516" y="448" on="1"/>
        <pt x="516" y="447" on="1"/>
        <pt x="516" y="432" on="0"/>
        <pt x="472" y="432" on="1"/>
        <pt x="462" y="427" on="0"/>
        <pt x="459" y="427" on="1"/>
        <pt x="455" y="427" on="1"/>
        <pt x="455" y="443" on="0"/>
        <pt x="432" y="484" on="1"/>
        <pt x="415" y="550" on="0"/>
        <pt x="400" y="562" on="1"/>
        <pt x="384" y="581" on="0"/>
        <pt x="310" y="593" on="1"/>
        <pt x="281" y="596" on="1"/>
        <pt x="242" y="592" on="1"/>
        <pt x="235" y="599" on="1"/>
        <pt x="217" y="597" on="0"/>
        <pt x="171" y="556" on="1"/>
        <pt x="169" y="548" on="1"/>
        <pt x="169" y="546" on="1"/>
        <pt x="173" y="546" on="1"/>
        <pt x="214" y="580" on="0"/>
        <pt x="232" y="589" on="1"/>
        <pt x="232" y="587" on="1"/>
        <pt x="208" y="561" on="0"/>
        <pt x="144" y="520" on="1"/>
        <pt x="117" y="500" on="0"/>
        <pt x="103" y="465" on="1"/>
        <pt x="78" y="408" on="0"/>
        <pt x="78" y="353" on="1"/>
        <pt x="78" y="258" on="0"/>
        <pt x="101" y="215" on="1"/>
        <pt x="141" y="106" on="0"/>
        <pt x="193" y="60" on="1"/>
        <pt x="260" y="23" on="0"/>
        <pt x="320" y="23" on="1"/>
        <pt x="336" y="23" on="1"/>
        <pt x="366" y="23" on="0"/>
        <pt x="401" y="45" on="1"/>
        <pt x="413" y="68" on="0"/>
        <pt x="454" y="101" on="1"/>
        <pt x="488" y="128" on="0"/>
        <pt x="488" y="145" on="1"/>
        <pt x="488" y="148" on="1"/>
        <pt x="487" y="175" on="1"/>
        <pt x="487" y="178" on="0"/>
        <pt x="499" y="186" on="1"/>
        <pt x="499" y="190" on="0"/>
        <pt x="504" y="193" on="1"/>
        <pt x="507" y="193" on="1"/>
        <pt x="531" y="189" on="1"/>
        <pt x="548" y="189" on="1"/>
        <pt x="556" y="189" on="0"/>
        <pt x="556" y="175" on="1"/>
        <pt x="566" y="129" on="0"/>
        <pt x="566" y="106" on="1"/>
        <pt x="566" y="55" on="0"/>
        <pt x="553" y="22" on="1"/>
        <pt x="553" y="19" on="1"/>
        <pt x="554" y="12" on="1"/>
        <pt x="549" y="4" on="1"/>
        <pt x="549" y="2" on="1"/>
        <pt x="549" y="0" on="0"/>
        <pt x="566" y="-3" on="1"/>
        <pt x="566" y="-5" on="1"/>
        <pt x="500" y="-37" on="1"/>
        <pt x="498" y="-37" on="1"/>
        <pt x="482" y="-16" on="0"/>
        <pt x="473" y="12" on="1"/>
        <pt x="472" y="13" on="1"/>
        <pt x="459" y="8" on="0"/>
        <pt x="427" y="-12" on="1"/>
        <pt x="348" y="-45" on="0"/>
        <pt x="330" y="-45" on="1"/>
        <pt x="270" y="-27" on="1"/>
        <pt x="258" y="-25" on="1"/>
        <pt x="258" y="-27" on="1"/>
        <pt x="254" y="-32" on="0"/>
        <pt x="246" y="-72" on="1"/>
        <pt x="239" y="-87" on="0"/>
        <pt x="239" y="-99" on="1"/>
        <pt x="241" y="-99" on="1"/>
        <pt x="258" y="-99" on="0"/>
        <pt x="258" y="-95" on="1"/>
        <pt x="251" y="-90" on="1"/>
        <pt x="251" y="-88" on="1"/>
        <pt x="251" y="-77" on="0"/>
        <pt x="300" y="-76" on="1"/>
        <pt x="304" y="-76" on="1"/>
        <pt x="340" y="-76" on="0"/>
        <pt x="355" y="-92" on="1"/>
        <pt x="397" y="-115" on="1"/>
        <pt x="405" y="-122" on="1"/>
        <pt x="405" y="-123" on="1"/>
        <pt x="391" y="-115" on="1"/>
        <pt x="389" y="-115" on="1"/>
        <pt x="389" y="-117" on="1"/>
        <pt x="394" y="-128" on="0"/>
        <pt x="401" y="-129" on="1"/>
        <pt x="401" y="-130" on="0"/>
        <pt x="406" y="-130" on="1"/>
        <pt x="413" y="-130" on="1"/>
        <pt x="418" y="-132" on="0"/>
        <pt x="418" y="-135" on="1"/>
        <pt x="410" y="-135" on="0"/>
        <pt x="410" y="-138" on="1"/>
        <pt x="412" y="-141" on="0"/>
        <pt x="424" y="-146" on="1"/>
        <pt x="427" y="-146" on="0"/>
        <pt x="429" y="-166" on="1"/>
        <pt x="429" y="-185" on="1"/>
        <pt x="440" y="-205" on="0"/>
        <pt x="427" y="-221" on="1"/>
        <pt x="426" y="-221" on="1"/>
        <pt x="419" y="-219" on="0"/>
        <pt x="418" y="-212" on="1"/>
        <pt x="420" y="-207" on="0"/>
        <pt x="423" y="-205" on="1"/>
        <pt x="420" y="-203" on="1"/>
        <pt x="412" y="-203" on="0"/>
        <pt x="405" y="-221" on="1"/>
        <pt x="405" y="-224" on="0"/>
        <pt x="412" y="-224" on="1"/>
        <pt x="412" y="-225" on="1"/>
        <pt x="412" y="-226" on="1"/>
        <pt x="396" y="-251" on="0"/>
        <pt x="361" y="-282" on="1"/>
        <pt x="361" y="-283" on="1"/>
        <pt x="366" y="-283" on="0"/>
        <pt x="394" y="-260" on="1"/>
        <pt x="398" y="-256" on="0"/>
        <pt x="422" y="-231" on="1"/>
        <pt x="423" y="-231" on="1"/>
        <pt x="423" y="-232" on="1"/>
        <pt x="408" y="-255" on="0"/>
        <pt x="341" y="-300" on="0"/>
        <pt x="307" y="-308" on="1"/>
        <pt x="230" y="-313" on="0"/>
        <pt x="211" y="-313" on="1"/>
        <pt x="205" y="-312" on="0"/>
        <pt x="166" y="-310" on="1"/>
        <pt x="165" y="-310" on="1"/>
        <pt x="165" y="-309" on="1"/>
        <pt x="175" y="-265" on="1"/>
        <pt x="175" y="-252" on="0"/>
        <pt x="193" y="-252" on="1"/>
        <pt x="196" y="-251" on="1"/>
        <pt x="206" y="-257" on="0"/>
        <pt x="210" y="-257" on="1"/>
        <pt x="212" y="-257" on="1"/>
        <pt x="218" y="-257" on="0"/>
        <pt x="252" y="-254" on="0"/>
        <pt x="253" y="-254" on="1"/>
        <pt x="300" y="-260" on="0"/>
        <pt x="336" y="-216" on="1"/>
        <pt x="373" y="-174" on="0"/>
        <pt x="353" y="-160" on="1"/>
        <pt x="347" y="-153" on="0"/>
        <pt x="319" y="-144" on="1"/>
        <pt x="305" y="-137" on="0"/>
        <pt x="287" y="-137" on="1"/>
        <pt x="285" y="-137" on="1"/>
        <pt x="262" y="-137" on="0"/>
        <pt x="206" y="-152" on="1"/>
        <pt x="194" y="-153" on="1"/>
        <pt x="193" y="-151" on="1"/>
        <pt x="193" y="-149" on="1"/>
        <pt x="193" y="-143" on="1"/>
        <pt x="193" y="-137" on="0"/>
        <pt x="191" y="-111" on="0"/>
        <pt x="190" y="-93" on="1"/>
        <pt x="199" y="-81" on="0"/>
        <pt x="203" y="-23" on="1"/>
        <pt x="203" y="-22" on="1"/>
        <pt x="165" y="-8" on="1"/>
        <pt x="124" y="2" on="0"/>
        <pt x="95" y="47" on="1"/>
        <pt x="25" y="148" on="0"/>
        <pt x="25" y="203" on="1"/>
        <pt x="16" y="239" on="0"/>
        <pt x="16" y="258" on="1"/>
        <pt x="17" y="268" on="0"/>
        <pt x="29" y="268" on="1"/>
        <pt x="31" y="259" on="1"/>
        <pt x="31" y="254" on="1"/>
        <pt x="35" y="254" on="1"/>
        <pt x="39" y="257" on="1"/>
        <pt x="39" y="261" on="1"/>
        <pt x="39" y="274" on="0"/>
        <pt x="16" y="279" on="1"/>
        <pt x="13" y="279" on="0"/>
        <pt x="12" y="388" on="1"/>
        <pt x="12" y="412" on="0"/>
        <pt x="39" y="477" on="1"/>
        <pt x="41" y="477" on="0"/>
        <pt x="44" y="506" on="1"/>
        <pt x="48" y="507" on="0"/>
        <pt x="52" y="529" on="1"/>
        <pt x="82" y="563" on="0"/>
        <pt x="126" y="592" on="1"/>
        <pt x="145" y="610" on="0"/>
        <pt x="184" y="627" on="1"/>
        <pt x="259" y="661" on="0"/>
      </contour>
      <contour>
        <pt x="58" y="283" on="1"/>
        <pt x="58" y="265" on="1"/>
        <pt x="60" y="241" on="0"/>
        <pt x="85" y="205" on="1"/>
        <pt x="87" y="203" on="1"/>
        <pt x="91" y="203" on="1"/>
        <pt x="91" y="208" on="1"/>
        <pt x="72" y="265" on="0"/>
        <pt x="64" y="322" on="1"/>
        <pt x="63" y="322" on="1"/>
        <pt x="58" y="322" on="0"/>
      </contour>
      <contour>
        <pt x="286" y="5" on="1"/>
        <pt x="298" y="-8" on="0"/>
        <pt x="326" y="-8" on="1"/>
        <pt x="359" y="-5" on="0"/>
        <pt x="359" y="2" on="1"/>
        <pt x="359" y="4" on="1"/>
        <pt x="359" y="9" on="0"/>
        <pt x="334" y="9" on="1"/>
        <pt x="319" y="9" on="1"/>
        <pt x="286" y="9" on="0"/>
      </contour>
      <contour>
        <pt x="238" y="-301" on="1"/>
        <pt x="238" y="-302" on="1"/>
        <pt x="240" y="-303" on="1"/>
        <pt x="243" y="-303" on="0"/>
        <pt x="257" y="-302" on="0"/>
        <pt x="285" y="-301" on="0"/>
        <pt x="298" y="-301" on="1"/>
        <pt x="304" y="-301" on="0"/>
        <pt x="332" y="-286" on="1"/>
        <pt x="340" y="-281" on="0"/>
        <pt x="340" y="-278" on="1"/>
        <pt x="340" y="-277" on="1"/>
        <pt x="339" y="-276" on="1"/>
        <pt x="337" y="-276" on="1"/>
        <pt x="328" y="-276" on="0"/>
        <pt x="305" y="-290" on="1"/>
        <pt x="270" y="-297" on="0"/>
        <pt x="249" y="-297" on="1"/>
        <pt x="238" y="-300" on="0"/>
      </contour>
      <contour>
        <pt x="341" y="-23" on="1"/>
        <pt x="312" y="-31" on="1"/>
        <pt x="312" y="-34" on="1"/>
        <pt x="328" y="-37" on="1"/>
        <pt x="334" y="-37" on="1"/>
        <pt x="344" y="-37" on="0"/>
        <pt x="384" y="-15" on="1"/>
        <pt x="384" y="-12" on="1"/>
        <pt x="383" y="-12" on="1"/>
        <pt x="374" y="-12" on="0"/>
      </contour>
      <contour>
        <pt x="308" y="-101" on="1"/>
        <pt x="300" y="-131" on="0"/>
        <pt x="313" y="-131" on="1"/>
        <pt x="317" y="-131" on="1"/>
        <pt x="321" y="-131" on="0"/>
        <pt x="333" y="-103" on="1"/>
        <pt x="333" y="-100" on="1"/>
        <pt x="331" y="-98" on="0"/>
        <pt x="326" y="-98" on="1"/>
        <pt x="317" y="-98" on="1"/>
        <pt x="310" y="-98" on="0"/>
      </contour>
      <contour>
        <pt x="316" y="616" on="1"/>
        <pt x="316" y="612" on="0"/>
        <pt x="359" y="605" on="1"/>
        <pt x="364" y="601" on="1"/>
        <pt x="371" y="601" on="1"/>
        <pt x="374" y="605" on="1"/>
        <pt x="374" y="607" on="1"/>
        <pt x="364" y="607" on="0"/>
        <pt x="353" y="617" on="1"/>
        <pt x="334" y="625" on="0"/>
        <pt x="326" y="625" on="1"/>
        <pt x="316" y="625" on="0"/>
      </contour>
      <contour>
        <pt x="157" y="16" on="1"/>
        <pt x="155" y="13" on="1"/>
        <pt x="156" y="9" on="0"/>
        <pt x="198" y="-4" on="1"/>
        <pt x="198" y="-6" on="0"/>
        <pt x="205" y="-7" on="1"/>
        <pt x="207" y="-2" on="0"/>
        <pt x="210" y="-2" on="1"/>
        <pt x="211" y="-2" on="1"/>
        <pt x="211" y="-1" on="1"/>
        <pt x="210" y="2" on="1"/>
        <pt x="202" y="4" on="0"/>
        <pt x="183" y="13" on="1"/>
        <pt x="180" y="16" on="0"/>
        <pt x="166" y="16" on="1"/>
      </contour>
      <contour>
        <pt x="257" y="-2" on="1"/>
        <pt x="257" y="-3" on="1"/>
        <pt x="261" y="-4" on="0"/>
        <pt x="268" y="-4" on="1"/>
        <pt x="275" y="-4" on="1"/>
        <pt x="277" y="-2" on="1"/>
        <pt x="224" y="16" on="0"/>
        <pt x="205" y="16" on="1"/>
        <pt x="204" y="15" on="1"/>
        <pt x="204" y="13" on="1"/>
        <pt x="212" y="7" on="0"/>
        <pt x="228" y="2" on="1"/>
        <pt x="241" y="2" on="1"/>
        <pt x="254" y="2" on="0"/>
      </contour>
      <contour>
        <pt x="107" y="70" on="1"/>
        <pt x="104" y="70" on="1"/>
        <pt x="112" y="47" on="0"/>
        <pt x="124" y="40" on="1"/>
        <pt x="130" y="40" on="1"/>
        <pt x="130" y="47" on="1"/>
        <pt x="123" y="58" on="0"/>
      </contour>
      <contour>
        <pt x="170" y="607" on="1"/>
        <pt x="170" y="605" on="1"/>
        <pt x="171" y="605" on="1"/>
        <pt x="188" y="609" on="0"/>
        <pt x="210" y="624" on="1"/>
        <pt x="210" y="625" on="1"/>
        <pt x="208" y="626" on="1"/>
        <pt x="207" y="626" on="1"/>
        <pt x="185" y="622" on="0"/>
      </contour>
      <contour>
        <pt x="218" y="-26" on="1"/>
        <pt x="218" y="-41" on="1"/>
        <pt x="237" y="-41" on="1"/>
        <pt x="239" y="-37" on="0"/>
        <pt x="239" y="-31" on="1"/>
        <pt x="239" y="-29" on="1"/>
        <pt x="230" y="-29" on="0"/>
      </contour>
      <contour>
        <pt x="112" y="113" on="1"/>
        <pt x="112" y="112" on="1"/>
        <pt x="128" y="81" on="0"/>
        <pt x="139" y="81" on="1"/>
        <pt x="139" y="85" on="1"/>
        <pt x="120" y="111" on="0"/>
      </contour>
      <contour>
        <pt x="149" y="76" on="1"/>
        <pt x="146" y="74" on="1"/>
        <pt x="146" y="61" on="0"/>
        <pt x="165" y="57" on="1"/>
        <pt x="167" y="57" on="1"/>
        <pt x="171" y="60" on="1"/>
        <pt x="163" y="71" on="0"/>
      </contour>
      <contour>
        <pt x="519" y="-6" on="1"/>
        <pt x="504" y="-8" on="1"/>
        <pt x="504" y="-12" on="1"/>
        <pt x="509" y="-16" on="1"/>
        <pt x="514" y="-16" on="1"/>
        <pt x="538" y="-12" on="0"/>
        <pt x="538" y="-8" on="1"/>
        <pt x="538" y="-6" on="1"/>
      </contour>
      <contour>
        <pt x="523" y="126" on="1"/>
        <pt x="523" y="122" on="1"/>
        <pt x="526" y="116" on="0"/>
        <pt x="531" y="116" on="1"/>
        <pt x="535" y="120" on="0"/>
        <pt x="535" y="128" on="1"/>
        <pt x="535" y="133" on="1"/>
        <pt x="535" y="136" on="0"/>
        <pt x="531" y="136" on="1"/>
        <pt x="523" y="133" on="0"/>
      </contour>
      <contour>
        <pt x="465" y="467" on="1"/>
        <pt x="465" y="465" on="1"/>
        <pt x="482" y="470" on="0"/>
        <pt x="482" y="475" on="1"/>
        <pt x="480" y="479" on="0"/>
        <pt x="477" y="481" on="1"/>
        <pt x="473" y="481" on="1"/>
        <pt x="465" y="473" on="0"/>
      </contour>
      <contour>
        <pt x="304" y="-90" on="1"/>
        <pt x="304" y="-91" on="1"/>
        <pt x="323" y="-91" on="1"/>
        <pt x="346" y="-91" on="0"/>
        <pt x="346" y="-89" on="1"/>
        <pt x="346" y="-86" on="0"/>
        <pt x="319" y="-86" on="1"/>
      </contour>
      <contour>
        <pt x="435" y="587" on="1"/>
        <pt x="432" y="587" on="1"/>
        <pt x="432" y="585" on="1"/>
        <pt x="440" y="573" on="0"/>
        <pt x="447" y="573" on="1"/>
        <pt x="448" y="573" on="1"/>
        <pt x="452" y="576" on="1"/>
        <pt x="452" y="577" on="1"/>
        <pt x="443" y="587" on="0"/>
      </contour>
      <contour>
        <pt x="182" y="42" on="1"/>
        <pt x="176" y="42" on="1"/>
        <pt x="176" y="41" on="1"/>
        <pt x="176" y="38" on="0"/>
        <pt x="203" y="32" on="1"/>
        <pt x="203" y="34" on="1"/>
        <pt x="198" y="42" on="0"/>
      </contour>
      <contour>
        <pt x="59" y="175" on="1"/>
        <pt x="58" y="175" on="1"/>
        <pt x="58" y="173" on="1"/>
        <pt x="62" y="151" on="0"/>
        <pt x="69" y="151" on="1"/>
        <pt x="70" y="151" on="1"/>
        <pt x="74" y="151" on="0"/>
        <pt x="74" y="155" on="1"/>
      </contour>
      <contour>
        <pt x="202" y="-304" on="1"/>
        <pt x="203" y="-304" on="1"/>
        <pt x="205" y="-304" on="1"/>
        <pt x="207" y="-304" on="0"/>
        <pt x="221" y="-302" on="1"/>
        <pt x="229" y="-302" on="1"/>
        <pt x="236" y="-301" on="0"/>
        <pt x="236" y="-297" on="1"/>
        <pt x="232" y="-297" on="1"/>
        <pt x="202" y="-302" on="0"/>
      </contour>
      <contour>
        <pt x="512" y="149" on="1"/>
        <pt x="509" y="148" on="1"/>
        <pt x="509" y="146" on="1"/>
        <pt x="514" y="141" on="1"/>
        <pt x="516" y="141" on="1"/>
        <pt x="527" y="143" on="0"/>
        <pt x="527" y="146" on="1"/>
        <pt x="527" y="148" on="1"/>
        <pt x="526" y="149" on="1"/>
      </contour>
      <contour>
        <pt x="82" y="529" on="1"/>
        <pt x="94" y="529" on="0"/>
        <pt x="99" y="538" on="1"/>
        <pt x="99" y="541" on="1"/>
        <pt x="95" y="541" on="1"/>
        <pt x="85" y="541" on="0"/>
      </contour>
      <contour>
        <pt x="512" y="123" on="1"/>
        <pt x="509" y="121" on="1"/>
        <pt x="509" y="108" on="1"/>
        <pt x="513" y="104" on="1"/>
        <pt x="514" y="104" on="1"/>
        <pt x="517" y="107" on="1"/>
        <pt x="517" y="114" on="1"/>
        <pt x="517" y="121" on="0"/>
      </contour>
      <contour>
        <pt x="35" y="397" on="1"/>
        <pt x="33" y="397" on="1"/>
        <pt x="29" y="382" on="1"/>
        <pt x="29" y="373" on="1"/>
        <pt x="31" y="373" on="1"/>
        <pt x="35" y="373" on="0"/>
        <pt x="35" y="383" on="1"/>
      </contour>
      <contour>
        <pt x="39" y="316" on="1"/>
        <pt x="38" y="316" on="1"/>
        <pt x="37" y="310" on="1"/>
        <pt x="37" y="301" on="1"/>
        <pt x="40" y="297" on="1"/>
        <pt x="43" y="300" on="1"/>
        <pt x="43" y="306" on="1"/>
        <pt x="43" y="315" on="0"/>
      </contour>
      <contour>
        <pt x="322" y="643" on="1"/>
        <pt x="321" y="643" on="1"/>
        <pt x="321" y="640" on="1"/>
        <pt x="337" y="637" on="1"/>
        <pt x="339" y="637" on="1"/>
        <pt x="341" y="640" on="1"/>
        <pt x="341" y="643" on="0"/>
      </contour>
      <contour>
        <pt x="469" y="451" on="1"/>
        <pt x="465" y="447" on="1"/>
        <pt x="465" y="442" on="1"/>
        <pt x="469" y="442" on="1"/>
        <pt x="475" y="442" on="0"/>
        <pt x="477" y="447" on="1"/>
        <pt x="477" y="448" on="1"/>
        <pt x="475" y="451" on="1"/>
      </contour>
      <contour>
        <pt x="89" y="94" on="1"/>
        <pt x="88" y="94" on="1"/>
        <pt x="88" y="93" on="1"/>
        <pt x="88" y="90" on="0"/>
        <pt x="94" y="79" on="1"/>
        <pt x="99" y="79" on="1"/>
        <pt x="99" y="81" on="1"/>
        <pt x="99" y="88" on="0"/>
      </contour>
      <contour>
        <pt x="256" y="639" on="1"/>
        <pt x="256" y="636" on="1"/>
        <pt x="258" y="636" on="1"/>
        <pt x="271" y="637" on="0"/>
        <pt x="271" y="642" on="1"/>
        <pt x="268" y="643" on="1"/>
        <pt x="267" y="643" on="1"/>
        <pt x="257" y="643" on="0"/>
      </contour>
      <contour>
        <pt x="206" y="-134" on="1"/>
        <pt x="203" y="-136" on="1"/>
        <pt x="203" y="-141" on="1"/>
        <pt x="205" y="-143" on="1"/>
        <pt x="213" y="-143" on="1"/>
        <pt x="213" y="-142" on="1"/>
        <pt x="213" y="-137" on="0"/>
        <pt x="207" y="-134" on="1"/>
      </contour>
      <contour>
        <pt x="66" y="407" on="1"/>
        <pt x="66" y="405" on="1"/>
        <pt x="69" y="405" on="1"/>
        <pt x="74" y="409" on="1"/>
        <pt x="74" y="416" on="1"/>
        <pt x="70" y="416" on="1"/>
        <pt x="66" y="413" on="0"/>
      </contour>
      <contour>
        <pt x="60" y="202" on="1"/>
        <pt x="57" y="200" on="1"/>
        <pt x="57" y="194" on="0"/>
        <pt x="62" y="192" on="1"/>
        <pt x="63" y="192" on="1"/>
        <pt x="66" y="193" on="1"/>
        <pt x="66" y="196" on="1"/>
      </contour>
      <contour>
        <pt x="452" y="29" on="1"/>
        <pt x="452" y="27" on="1"/>
        <pt x="459" y="27" on="0"/>
        <pt x="463" y="34" on="1"/>
        <pt x="463" y="35" on="1"/>
        <pt x="462" y="35" on="1"/>
        <pt x="454" y="35" on="0"/>
      </contour>
      <contour>
        <pt x="276" y="-90" on="1"/>
        <pt x="276" y="-91" on="1"/>
        <pt x="279" y="-92" on="1"/>
        <pt x="283" y="-92" on="1"/>
        <pt x="292" y="-91" on="1"/>
        <pt x="292" y="-89" on="1"/>
        <pt x="279" y="-88" on="1"/>
        <pt x="276" y="-88" on="0"/>
      </contour>
      <contour>
        <pt x="239" y="-132" on="1"/>
        <pt x="239" y="-133" on="1"/>
        <pt x="243" y="-135" on="1"/>
        <pt x="247" y="-135" on="0"/>
        <pt x="251" y="-131" on="1"/>
        <pt x="247" y="-131" on="1"/>
        <pt x="239" y="-131" on="0"/>
      </contour>
      <contour>
        <pt x="149" y="553" on="1"/>
        <pt x="153" y="553" on="1"/>
        <pt x="157" y="556" on="1"/>
        <pt x="157" y="560" on="1"/>
        <pt x="149" y="560" on="0"/>
      </contour>
      <contour>
        <pt x="481" y="99" on="1"/>
        <pt x="479" y="97" on="1"/>
        <pt x="479" y="94" on="1"/>
        <pt x="484" y="94" on="1"/>
        <pt x="487" y="97" on="1"/>
        <pt x="487" y="99" on="1"/>
      </contour>
      <contour>
        <pt x="520" y="74" on="1"/>
        <pt x="519" y="74" on="1"/>
        <pt x="519" y="67" on="1"/>
        <pt x="522" y="64" on="1"/>
        <pt x="523" y="64" on="1"/>
        <pt x="523" y="72" on="1"/>
      </contour>
      <contour>
        <pt x="472" y="81" on="1"/>
        <pt x="472" y="79" on="1"/>
        <pt x="473" y="79" on="1"/>
        <pt x="479" y="82" on="1"/>
        <pt x="479" y="85" on="1"/>
        <pt x="477" y="85" on="1"/>
        <pt x="472" y="83" on="0"/>
      </contour>
      <contour>
        <pt x="517" y="29" on="1"/>
        <pt x="516" y="27" on="1"/>
        <pt x="517" y="22" on="1"/>
        <pt x="522" y="23" on="1"/>
        <pt x="522" y="27" on="1"/>
        <pt x="519" y="29" on="1"/>
      </contour>
      <contour>
        <pt x="187" y="-297" on="1"/>
        <pt x="185" y="-298" on="1"/>
        <pt x="187" y="-300" on="0"/>
        <pt x="190" y="-300" on="1"/>
        <pt x="195" y="-300" on="0"/>
        <pt x="197" y="-298" on="1"/>
        <pt x="195" y="-297" on="1"/>
      </contour>
      <contour>
        <pt x="481" y="491" on="1"/>
        <pt x="479" y="489" on="1"/>
        <pt x="479" y="486" on="1"/>
        <pt x="482" y="485" on="1"/>
        <pt x="485" y="488" on="1"/>
        <pt x="484" y="491" on="1"/>
      </contour>
      <contour>
        <pt x="447" y="556" on="1"/>
        <pt x="445" y="553" on="1"/>
        <pt x="445" y="551" on="1"/>
        <pt x="448" y="549" on="1"/>
        <pt x="452" y="553" on="1"/>
        <pt x="448" y="556" on="1"/>
      </contour>
      <contour>
        <pt x="160" y="566" on="1"/>
        <pt x="163" y="566" on="1"/>
        <pt x="167" y="567" on="0"/>
        <pt x="169" y="571" on="1"/>
        <pt x="167" y="571" on="1"/>
        <pt x="163" y="571" on="0"/>
      </contour>
      <contour>
        <pt x="31" y="363" on="1"/>
        <pt x="27" y="363" on="1"/>
        <pt x="27" y="358" on="1"/>
        <pt x="31" y="358" on="1"/>
        <pt x="33" y="360" on="1"/>
      </contour>
      <contour>
        <pt x="37" y="242" on="1"/>
        <pt x="34" y="242" on="1"/>
        <pt x="34" y="239" on="1"/>
        <pt x="38" y="236" on="1"/>
        <pt x="39" y="236" on="1"/>
        <pt x="39" y="239" on="1"/>
      </contour>
      <contour>
        <pt x="241" y="-264" on="1"/>
        <pt x="233" y="-265" on="1"/>
        <pt x="233" y="-266" on="1"/>
        <pt x="241" y="-266" on="1"/>
        <pt x="245" y="-265" on="1"/>
        <pt x="245" y="-264" on="1"/>
      </contour>
      <contour>
        <pt x="333" y="-135" on="1"/>
        <pt x="332" y="-135" on="1"/>
        <pt x="332" y="-138" on="1"/>
        <pt x="336" y="-140" on="1"/>
        <pt x="337" y="-140" on="1"/>
        <pt x="337" y="-139" on="1"/>
        <pt x="337" y="-135" on="0"/>
      </contour>
      <contour>
        <pt x="79" y="110" on="1"/>
        <pt x="77" y="107" on="1"/>
        <pt x="79" y="104" on="1"/>
        <pt x="81" y="104" on="1"/>
        <pt x="84" y="107" on="1"/>
        <pt x="81" y="110" on="1"/>
      </contour>
      <contour>
        <pt x="396" y="-132" on="1"/>
        <pt x="391" y="-128" on="1"/>
        <pt x="391" y="-131" on="0"/>
        <pt x="395" y="-135" on="1"/>
        <pt x="396" y="-135" on="1"/>
      </contour>
      <contour>
        <pt x="517" y="99" on="1"/>
        <pt x="513" y="99" on="1"/>
        <pt x="513" y="95" on="1"/>
        <pt x="516" y="95" on="1"/>
        <pt x="517" y="98" on="1"/>
      </contour>
      <contour>
        <pt x="397" y="-171" on="1"/>
        <pt x="395" y="-171" on="1"/>
        <pt x="394" y="-176" on="1"/>
        <pt x="394" y="-178" on="1"/>
        <pt x="397" y="-176" on="1"/>
      </contour>
      <contour>
        <pt x="403" y="5" on="1"/>
        <pt x="401" y="2" on="1"/>
        <pt x="405" y="2" on="1"/>
        <pt x="407" y="4" on="1"/>
        <pt x="406" y="5" on="1"/>
      </contour>
      <contour>
        <pt x="397" y="-162" on="1"/>
        <pt x="395" y="-164" on="1"/>
        <pt x="395" y="-165" on="1"/>
        <pt x="399" y="-165" on="1"/>
        <pt x="400" y="-164" on="1"/>
        <pt x="400" y="-162" on="1"/>
      </contour>
      <contour>
        <pt x="394" y="-153" on="1"/>
        <pt x="391" y="-150" on="1"/>
        <pt x="391" y="-153" on="1"/>
        <pt x="392" y="-155" on="1"/>
        <pt x="394" y="-155" on="1"/>
      </contour>
      <contour>
        <pt x="422" y="-227" on="1"/>
        <pt x="425" y="-225" on="1"/>
        <pt x="427" y="-226" on="1"/>
        <pt x="425" y="-229" on="1"/>
        <pt x="422" y="-228" on="1"/>
      </contour>
      <contour>
        <pt x="340" y="-289" on="1"/>
        <pt x="338" y="-290" on="1"/>
        <pt x="338" y="-292" on="1"/>
        <pt x="339" y="-292" on="1"/>
        <pt x="342" y="-290" on="1"/>
        <pt x="342" y="-289" on="1"/>
      </contour>
      <contour>
        <pt x="413" y="-221" on="1"/>
        <pt x="416" y="-219" on="1"/>
        <pt x="418" y="-219" on="1"/>
        <pt x="418" y="-220" on="1"/>
        <pt x="416" y="-221" on="1"/>
      </contour>
      <contour>
        <pt x="391" y="-145" on="1"/>
        <pt x="387" y="-142" on="1"/>
        <pt x="387" y="-145" on="1"/>
        <pt x="390" y="-146" on="1"/>
      </contour>
      <contour>
        <pt x="217" y="-57" on="1"/>
        <pt x="215" y="-57" on="1"/>
        <pt x="215" y="-59" on="1"/>
        <pt x="217" y="-59" on="1"/>
      </contour>
      <contour>
        <pt x="385" y="-140" on="1"/>
        <pt x="386" y="-140" on="1"/>
        <pt x="386" y="-139" on="1"/>
      </contour>
      <contour>
        <pt x="373" y="-164" on="1"/>
        <pt x="373" y="-162" on="1"/>
      </contour>
    </TTGlyph>
    <TTGlyph name="Ccircumflex" xMin="12" yMin="-45" xMax="566" yMax="880">
      <component glyphName="C" x="0" y="0" flags="0x1004"/>
      <component glyphName="circumflex" x="135" y="294" flags="0x1004"/>
    </TTGlyph>
    <TTGlyph name="Cdotaccent" xMin="12" yMin="-45" xMax="566" yMax="822">
      <component glyphName="C" x="0" y="0" flags="0x1004"/>
      <component glyphName="dotaccent" x="236" y="294" flags="0x1004"/>
    </TTGlyph>
    <TTGlyph name="D" xMin="17" yMin="-47" xMax="622" yMax="711">
      <contour>
        <pt x="177" y="709" on="1"/>
        <pt x="191" y="709" on="1"/>
        <pt x="196" y="711" on="1"/>
        <pt x="201" y="709" on="1"/>
        <pt x="211" y="709" on="1"/>
        <pt x="271" y="709" on="0"/>
        <pt x="352" y="681" on="1"/>
        <pt x="432" y="642" on="0"/>
        <pt x="447" y="625" on="1"/>
        <pt x="495" y="592" on="1"/>
        <pt x="504" y="583" on="0"/>
        <pt x="506" y="580" on="1"/>
        <pt x="506" y="578" on="1"/>
        <pt x="505" y="578" on="1"/>
        <pt x="474" y="600" on="0"/>
        <pt x="467" y="600" on="1"/>
        <pt x="466" y="600" on="1"/>
        <pt x="463" y="598" on="1"/>
        <pt x="463" y="597" on="1"/>
        <pt x="463" y="584" on="0"/>
        <pt x="493" y="565" on="1"/>
        <pt x="534" y="515" on="1"/>
        <pt x="546" y="490" on="0"/>
        <pt x="568" y="434" on="1"/>
        <pt x="578" y="412" on="0"/>
        <pt x="585" y="412" on="1"/>
        <pt x="589" y="416" on="1"/>
        <pt x="589" y="418" on="1"/>
        <pt x="589" y="423" on="0"/>
        <pt x="584" y="428" on="1"/>
        <pt x="589" y="434" on="1"/>
        <pt x="592" y="434" on="1"/>
        <pt x="618" y="341" on="0"/>
        <pt x="618" y="302" on="1"/>
        <pt x="622" y="238" on="1"/>
        <pt x="621" y="232" on="1"/>
        <pt x="616" y="232" on="1"/>
        <pt x="614" y="232" on="1"/>
        <pt x="600" y="213" on="0"/>
        <pt x="592" y="177" on="1"/>
        <pt x="544" y="110" on="0"/>
        <pt x="544" y="98" on="1"/>
        <pt x="545" y="98" on="1"/>
        <pt x="560" y="98" on="0"/>
        <pt x="578" y="136" on="1"/>
        <pt x="583" y="137" on="1"/>
        <pt x="584" y="136" on="1"/>
        <pt x="565" y="93" on="0"/>
        <pt x="553" y="93" on="1"/>
        <pt x="496" y="42" on="0"/>
        <pt x="433" y="5" on="1"/>
        <pt x="404" y="-20" on="0"/>
        <pt x="358" y="-31" on="1"/>
        <pt x="302" y="-36" on="0"/>
        <pt x="286" y="-45" on="1"/>
        <pt x="278" y="-47" on="1"/>
        <pt x="256" y="-42" on="0"/>
        <pt x="157" y="-34" on="1"/>
        <pt x="138" y="-28" on="0"/>
        <pt x="102" y="-28" on="1"/>
        <pt x="90" y="-28" on="0"/>
        <pt x="85" y="-32" on="1"/>
        <pt x="81" y="-32" on="0"/>
        <pt x="67" y="-18" on="1"/>
        <pt x="63" y="-18" on="1"/>
        <pt x="60" y="-18" on="0"/>
        <pt x="56" y="-34" on="1"/>
        <pt x="54" y="-34" on="1"/>
        <pt x="54" y="-35" on="1"/>
        <pt x="46" y="-33" on="0"/>
        <pt x="46" y="-16" on="1"/>
        <pt x="49" y="56" on="1"/>
        <pt x="48" y="56" on="1"/>
        <pt x="48" y="58" on="1"/>
        <pt x="50" y="63" on="0"/>
        <pt x="55" y="63" on="1"/>
        <pt x="94" y="59" on="1"/>
        <pt x="98" y="59" on="1"/>
        <pt x="104" y="59" on="0"/>
        <pt x="112" y="61" on="1"/>
        <pt x="156" y="50" on="1"/>
        <pt x="160" y="54" on="1"/>
        <pt x="160" y="59" on="1"/>
        <pt x="157" y="73" on="1"/>
        <pt x="160" y="88" on="0"/>
        <pt x="160" y="131" on="1"/>
        <pt x="160" y="187" on="0"/>
        <pt x="150" y="187" on="1"/>
        <pt x="149" y="192" on="1"/>
        <pt x="154" y="382" on="0"/>
        <pt x="166" y="526" on="1"/>
        <pt x="172" y="558" on="0"/>
        <pt x="172" y="571" on="1"/>
        <pt x="172" y="580" on="1"/>
        <pt x="172" y="599" on="0"/>
        <pt x="155" y="599" on="1"/>
        <pt x="121" y="599" on="1"/>
        <pt x="120" y="599" on="0"/>
        <pt x="120" y="593" on="1"/>
        <pt x="115" y="592" on="1"/>
        <pt x="45" y="595" on="1"/>
        <pt x="20" y="592" on="1"/>
        <pt x="17" y="596" on="1"/>
        <pt x="17" y="643" on="1"/>
        <pt x="17" y="686" on="0"/>
        <pt x="27" y="686" on="1"/>
        <pt x="41" y="697" on="0"/>
        <pt x="71" y="697" on="1"/>
        <pt x="118" y="709" on="0"/>
      </contour>
      <contour>
        <pt x="199" y="701" on="1"/>
        <pt x="152" y="697" on="1"/>
        <pt x="155" y="694" on="1"/>
        <pt x="177" y="694" on="1"/>
        <pt x="201" y="694" on="0"/>
        <pt x="201" y="699" on="1"/>
      </contour>
      <contour>
        <pt x="102" y="691" on="1"/>
        <pt x="104" y="686" on="0"/>
        <pt x="140" y="682" on="1"/>
        <pt x="148" y="682" on="1"/>
        <pt x="150" y="686" on="1"/>
        <pt x="136" y="697" on="0"/>
        <pt x="131" y="697" on="1"/>
        <pt x="102" y="695" on="0"/>
      </contour>
      <contour>
        <pt x="256" y="680" on="1"/>
        <pt x="254" y="678" on="1"/>
        <pt x="272" y="669" on="0"/>
        <pt x="275" y="669" on="1"/>
        <pt x="278" y="669" on="1"/>
        <pt x="281" y="671" on="1"/>
        <pt x="272" y="680" on="0"/>
        <pt x="261" y="680" on="1"/>
      </contour>
      <contour>
        <pt x="49" y="670" on="1"/>
        <pt x="46" y="666" on="1"/>
        <pt x="46" y="664" on="1"/>
        <pt x="48" y="656" on="0"/>
        <pt x="49" y="656" on="1"/>
        <pt x="52" y="656" on="1"/>
        <pt x="58" y="662" on="0"/>
        <pt x="64" y="662" on="1"/>
        <pt x="77" y="661" on="1"/>
        <pt x="77" y="664" on="1"/>
        <pt x="59" y="670" on="1"/>
      </contour>
      <contour>
        <pt x="301" y="668" on="1"/>
        <pt x="297" y="668" on="1"/>
        <pt x="297" y="665" on="1"/>
        <pt x="301" y="665" on="1"/>
      </contour>
      <contour>
        <pt x="344" y="666" on="1"/>
        <pt x="338" y="666" on="1"/>
        <pt x="338" y="665" on="1"/>
        <pt x="345" y="660" on="0"/>
        <pt x="416" y="630" on="1"/>
        <pt x="427" y="621" on="1"/>
        <pt x="430" y="621" on="1"/>
        <pt x="430" y="635" on="0"/>
        <pt x="357" y="665" on="1"/>
      </contour>
      <contour>
        <pt x="175" y="650" on="1"/>
        <pt x="175" y="649" on="1"/>
        <pt x="175" y="639" on="0"/>
        <pt x="226" y="639" on="1"/>
        <pt x="236" y="649" on="0"/>
        <pt x="241" y="649" on="1"/>
        <pt x="261" y="649" on="0"/>
        <pt x="261" y="652" on="1"/>
        <pt x="261" y="655" on="1"/>
        <pt x="254" y="656" on="1"/>
        <pt x="251" y="656" on="1"/>
        <pt x="218" y="652" on="1"/>
        <pt x="208" y="657" on="0"/>
        <pt x="202" y="657" on="1"/>
        <pt x="199" y="657" on="1"/>
        <pt x="175" y="656" on="0"/>
      </contour>
      <contour>
        <pt x="331" y="647" on="1"/>
        <pt x="328" y="647" on="1"/>
        <pt x="328" y="646" on="1"/>
        <pt x="332" y="642" on="0"/>
        <pt x="373" y="625" on="1"/>
        <pt x="376" y="625" on="1"/>
        <pt x="380" y="630" on="1"/>
        <pt x="380" y="637" on="0"/>
      </contour>
      <contour>
        <pt x="70" y="643" on="1"/>
        <pt x="67" y="640" on="1"/>
        <pt x="70" y="637" on="1"/>
        <pt x="73" y="637" on="1"/>
        <pt x="75" y="640" on="1"/>
        <pt x="73" y="643" on="1"/>
      </contour>
      <contour>
        <pt x="398" y="627" on="1"/>
        <pt x="391" y="627" on="1"/>
        <pt x="391" y="620" on="0"/>
        <pt x="380" y="620" on="1"/>
        <pt x="380" y="616" on="1"/>
        <pt x="381" y="614" on="0"/>
        <pt x="414" y="598" on="1"/>
        <pt x="412" y="595" on="1"/>
        <pt x="414" y="589" on="0"/>
        <pt x="424" y="585" on="1"/>
        <pt x="430" y="585" on="1"/>
        <pt x="439" y="589" on="1"/>
        <pt x="449" y="587" on="1"/>
        <pt x="449" y="589" on="1"/>
        <pt x="449" y="590" on="0"/>
        <pt x="427" y="597" on="1"/>
        <pt x="427" y="598" on="1"/>
        <pt x="427" y="600" on="0"/>
        <pt x="430" y="600" on="1"/>
        <pt x="432" y="602" on="1"/>
        <pt x="432" y="603" on="1"/>
        <pt x="412" y="623" on="0"/>
      </contour>
      <contour>
        <pt x="58" y="621" on="1"/>
        <pt x="55" y="618" on="1"/>
        <pt x="69" y="615" on="1"/>
        <pt x="70" y="615" on="1"/>
        <pt x="70" y="616" on="1"/>
        <pt x="67" y="621" on="0"/>
        <pt x="61" y="621" on="1"/>
      </contour>
      <contour>
        <pt x="80" y="614" on="1"/>
        <pt x="83" y="610" on="1"/>
        <pt x="89" y="610" on="1"/>
        <pt x="94" y="610" on="0"/>
        <pt x="96" y="615" on="1"/>
        <pt x="96" y="617" on="1"/>
        <pt x="90" y="617" on="1"/>
        <pt x="82" y="617" on="0"/>
      </contour>
      <contour>
        <pt x="239" y="581" on="1"/>
        <pt x="243" y="524" on="1"/>
        <pt x="243" y="463" on="0"/>
        <pt x="236" y="463" on="1"/>
        <pt x="232" y="481" on="0"/>
        <pt x="230" y="481" on="1"/>
        <pt x="226" y="480" on="0"/>
        <pt x="226" y="473" on="1"/>
        <pt x="226" y="448" on="1"/>
        <pt x="226" y="434" on="0"/>
        <pt x="231" y="434" on="1"/>
        <pt x="238" y="436" on="1"/>
        <pt x="239" y="434" on="1"/>
        <pt x="236" y="420" on="0"/>
        <pt x="236" y="380" on="1"/>
        <pt x="240" y="236" on="1"/>
        <pt x="240" y="110" on="0"/>
        <pt x="218" y="50" on="1"/>
        <pt x="218" y="44" on="1"/>
        <pt x="218" y="36" on="0"/>
        <pt x="301" y="27" on="1"/>
        <pt x="354" y="27" on="0"/>
        <pt x="427" y="67" on="1"/>
        <pt x="487" y="120" on="0"/>
        <pt x="493" y="142" on="1"/>
        <pt x="506" y="163" on="0"/>
        <pt x="521" y="254" on="1"/>
        <pt x="521" y="263" on="1"/>
        <pt x="521" y="360" on="0"/>
        <pt x="509" y="382" on="1"/>
        <pt x="467" y="482" on="1"/>
        <pt x="430" y="539" on="0"/>
        <pt x="398" y="552" on="1"/>
        <pt x="272" y="602" on="0"/>
        <pt x="265" y="602" on="1"/>
        <pt x="239" y="590" on="0"/>
      </contour>
      <contour>
        <pt x="185" y="596" on="1"/>
        <pt x="185" y="590" on="0"/>
        <pt x="193" y="590" on="1"/>
        <pt x="195" y="590" on="1"/>
        <pt x="200" y="596" on="1"/>
        <pt x="200" y="599" on="1"/>
        <pt x="187" y="599" on="1"/>
        <pt x="185" y="599" on="0"/>
      </contour>
      <contour>
        <pt x="360" y="595" on="1"/>
        <pt x="360" y="593" on="1"/>
        <pt x="372" y="580" on="0"/>
        <pt x="382" y="580" on="1"/>
        <pt x="382" y="585" on="1"/>
        <pt x="366" y="595" on="0"/>
      </contour>
      <contour>
        <pt x="448" y="575" on="1"/>
        <pt x="448" y="573" on="1"/>
        <pt x="450" y="569" on="0"/>
        <pt x="461" y="562" on="1"/>
        <pt x="464" y="562" on="1"/>
        <pt x="464" y="563" on="1"/>
        <pt x="464" y="571" on="0"/>
      </contour>
      <contour>
        <pt x="517" y="560" on="1"/>
        <pt x="518" y="560" on="1"/>
        <pt x="529" y="558" on="0"/>
        <pt x="553" y="509" on="1"/>
        <pt x="567" y="495" on="0"/>
        <pt x="567" y="489" on="1"/>
        <pt x="567" y="486" on="1"/>
        <pt x="565" y="486" on="1"/>
        <pt x="555" y="486" on="0"/>
        <pt x="540" y="517" on="1"/>
        <pt x="540" y="526" on="0"/>
      </contour>
      <contour>
        <pt x="455" y="550" on="1"/>
        <pt x="455" y="545" on="1"/>
        <pt x="460" y="537" on="0"/>
        <pt x="483" y="520" on="1"/>
        <pt x="486" y="520" on="1"/>
        <pt x="488" y="523" on="1"/>
        <pt x="488" y="526" on="1"/>
        <pt x="470" y="555" on="0"/>
        <pt x="468" y="555" on="1"/>
        <pt x="464" y="555" on="1"/>
        <pt x="458" y="555" on="0"/>
      </contour>
      <contour>
        <pt x="180" y="519" on="1"/>
        <pt x="182" y="508" on="1"/>
        <pt x="182" y="498" on="1"/>
        <pt x="185" y="494" on="1"/>
        <pt x="187" y="494" on="1"/>
        <pt x="191" y="494" on="0"/>
        <pt x="191" y="540" on="0"/>
        <pt x="187" y="552" on="1"/>
        <pt x="185" y="552" on="1"/>
        <pt x="182" y="552" on="0"/>
      </contour>
      <contour>
        <pt x="565" y="479" on="1"/>
        <pt x="565" y="481" on="1"/>
        <pt x="567" y="481" on="1"/>
        <pt x="585" y="458" on="0"/>
        <pt x="585" y="442" on="1"/>
        <pt x="585" y="439" on="1"/>
        <pt x="583" y="439" on="1"/>
        <pt x="575" y="439" on="0"/>
      </contour>
      <contour>
        <pt x="513" y="476" on="1"/>
        <pt x="508" y="476" on="1"/>
        <pt x="508" y="464" on="1"/>
        <pt x="518" y="418" on="0"/>
        <pt x="542" y="391" on="1"/>
        <pt x="544" y="391" on="1"/>
        <pt x="528" y="452" on="0"/>
      </contour>
      <contour>
        <pt x="177" y="469" on="1"/>
        <pt x="175" y="469" on="1"/>
        <pt x="172" y="457" on="1"/>
        <pt x="172" y="454" on="1"/>
        <pt x="175" y="454" on="1"/>
        <pt x="177" y="464" on="1"/>
      </contour>
      <contour>
        <pt x="236" y="454" on="1"/>
        <pt x="239" y="455" on="1"/>
        <pt x="241" y="455" on="1"/>
        <pt x="241" y="452" on="1"/>
        <pt x="239" y="449" on="1"/>
        <pt x="236" y="449" on="1"/>
      </contour>
      <contour>
        <pt x="167" y="308" on="1"/>
        <pt x="167" y="296" on="1"/>
        <pt x="167" y="269" on="0"/>
        <pt x="170" y="254" on="1"/>
        <pt x="174" y="254" on="1"/>
        <pt x="182" y="347" on="1"/>
        <pt x="182" y="384" on="0"/>
        <pt x="175" y="439" on="1"/>
        <pt x="167" y="439" on="0"/>
      </contour>
      <contour>
        <pt x="577" y="395" on="1"/>
        <pt x="574" y="393" on="1"/>
        <pt x="574" y="391" on="1"/>
        <pt x="575" y="389" on="1"/>
        <pt x="571" y="381" on="0"/>
        <pt x="571" y="375" on="1"/>
        <pt x="580" y="345" on="1"/>
        <pt x="584" y="345" on="1"/>
        <pt x="590" y="358" on="0"/>
        <pt x="590" y="365" on="1"/>
        <pt x="590" y="372" on="1"/>
        <pt x="585" y="395" on="0"/>
        <pt x="578" y="395" on="1"/>
      </contour>
      <contour>
        <pt x="544" y="322" on="1"/>
        <pt x="540" y="322" on="1"/>
        <pt x="538" y="316" on="1"/>
        <pt x="538" y="297" on="1"/>
        <pt x="538" y="261" on="0"/>
        <pt x="528" y="228" on="1"/>
        <pt x="528" y="225" on="1"/>
        <pt x="530" y="224" on="1"/>
        <pt x="534" y="224" on="1"/>
        <pt x="542" y="224" on="0"/>
        <pt x="549" y="252" on="1"/>
        <pt x="553" y="256" on="0"/>
        <pt x="553" y="265" on="1"/>
        <pt x="553" y="284" on="1"/>
        <pt x="553" y="322" on="0"/>
      </contour>
      <contour>
        <pt x="618" y="211" on="1"/>
        <pt x="618" y="215" on="1"/>
        <pt x="619" y="215" on="1"/>
        <pt x="621" y="207" on="1"/>
        <pt x="621" y="198" on="0"/>
        <pt x="596" y="148" on="1"/>
        <pt x="592" y="145" on="1"/>
        <pt x="590" y="145" on="1"/>
        <pt x="595" y="163" on="0"/>
      </contour>
      <contour>
        <pt x="536" y="165" on="1"/>
        <pt x="536" y="164" on="1"/>
        <pt x="538" y="164" on="1"/>
        <pt x="545" y="164" on="0"/>
        <pt x="558" y="177" on="1"/>
        <pt x="558" y="178" on="1"/>
        <pt x="558" y="187" on="0"/>
        <pt x="553" y="189" on="1"/>
        <pt x="552" y="189" on="1"/>
        <pt x="536" y="173" on="0"/>
      </contour>
      <contour>
        <pt x="225" y="164" on="1"/>
        <pt x="221" y="164" on="1"/>
        <pt x="220" y="151" on="1"/>
        <pt x="220" y="149" on="1"/>
        <pt x="221" y="143" on="1"/>
        <pt x="222" y="143" on="1"/>
        <pt x="225" y="146" on="1"/>
      </contour>
      <contour>
        <pt x="492" y="93" on="1"/>
        <pt x="492" y="88" on="1"/>
        <pt x="496" y="88" on="1"/>
        <pt x="547" y="130" on="0"/>
        <pt x="552" y="155" on="1"/>
        <pt x="552" y="157" on="1"/>
        <pt x="514" y="139" on="0"/>
      </contour>
      <contour>
        <pt x="181" y="81" on="1"/>
        <pt x="182" y="74" on="1"/>
        <pt x="184" y="74" on="1"/>
        <pt x="192" y="74" on="0"/>
        <pt x="193" y="81" on="1"/>
        <pt x="189" y="130" on="0"/>
        <pt x="181" y="130" on="0"/>
      </contour>
      <contour>
        <pt x="454" y="77" on="1"/>
        <pt x="455" y="74" on="1"/>
        <pt x="459" y="74" on="1"/>
        <pt x="463" y="75" on="0"/>
        <pt x="467" y="81" on="1"/>
        <pt x="467" y="85" on="1"/>
        <pt x="467" y="86" on="0"/>
        <pt x="463" y="86" on="1"/>
        <pt x="458" y="86" on="0"/>
      </contour>
      <contour>
        <pt x="447" y="76" on="1"/>
        <pt x="443" y="73" on="1"/>
        <pt x="445" y="70" on="1"/>
        <pt x="448" y="70" on="1"/>
        <pt x="451" y="73" on="1"/>
        <pt x="451" y="76" on="1"/>
      </contour>
      <contour>
        <pt x="356" y="7" on="1"/>
        <pt x="356" y="5" on="1"/>
        <pt x="358" y="5" on="1"/>
        <pt x="401" y="5" on="0"/>
        <pt x="493" y="64" on="1"/>
        <pt x="495" y="66" on="1"/>
        <pt x="495" y="67" on="1"/>
        <pt x="431" y="47" on="0"/>
        <pt x="405" y="29" on="1"/>
        <pt x="364" y="16" on="0"/>
      </contour>
      <contour>
        <pt x="69" y="50" on="1"/>
        <pt x="65" y="46" on="1"/>
        <pt x="67" y="39" on="1"/>
        <pt x="61" y="22" on="0"/>
        <pt x="61" y="13" on="1"/>
        <pt x="61" y="10" on="1"/>
        <pt x="65" y="5" on="1"/>
        <pt x="67" y="5" on="1"/>
        <pt x="71" y="10" on="1"/>
        <pt x="71" y="23" on="1"/>
        <pt x="71" y="34" on="0"/>
        <pt x="79" y="34" on="1"/>
        <pt x="90" y="34" on="1"/>
        <pt x="93" y="36" on="1"/>
        <pt x="93" y="40" on="1"/>
        <pt x="93" y="50" on="0"/>
        <pt x="74" y="50" on="1"/>
      </contour>
      <contour>
        <pt x="121" y="36" on="1"/>
        <pt x="118" y="34" on="1"/>
        <pt x="118" y="32" on="1"/>
        <pt x="121" y="29" on="1"/>
        <pt x="127" y="29" on="1"/>
        <pt x="130" y="31" on="1"/>
        <pt x="128" y="36" on="0"/>
      </contour>
      <contour>
        <pt x="133" y="13" on="1"/>
        <pt x="133" y="11" on="1"/>
        <pt x="133" y="5" on="0"/>
        <pt x="185" y="-10" on="1"/>
        <pt x="214" y="-13" on="1"/>
        <pt x="228" y="-11" on="0"/>
        <pt x="228" y="-8" on="1"/>
        <pt x="228" y="-5" on="1"/>
        <pt x="146" y="13" on="0"/>
      </contour>
      <contour>
        <pt x="83" y="13" on="1"/>
        <pt x="80" y="10" on="1"/>
        <pt x="83" y="7" on="1"/>
        <pt x="86" y="11" on="1"/>
        <pt x="86" y="13" on="1"/>
      </contour>
      <contour>
        <pt x="254" y="2" on="1"/>
        <pt x="251" y="0" on="1"/>
        <pt x="251" y="-5" on="0"/>
        <pt x="288" y="-6" on="1"/>
        <pt x="301" y="-6" on="1"/>
        <pt x="303" y="-5" on="1"/>
        <pt x="303" y="-3" on="1"/>
        <pt x="303" y="2" on="0"/>
        <pt x="281" y="2" on="1"/>
      </contour>
      <contour>
        <pt x="362" y="-3" on="1"/>
        <pt x="375" y="-3" on="1"/>
        <pt x="379" y="1" on="1"/>
        <pt x="379" y="2" on="1"/>
        <pt x="375" y="2" on="1"/>
        <pt x="362" y="1" on="0"/>
      </contour>
      <contour>
        <pt x="244" y="-8" on="1"/>
        <pt x="240" y="-8" on="1"/>
        <pt x="240" y="-10" on="1"/>
        <pt x="244" y="-10" on="1"/>
      </contour>
      <contour>
        <pt x="288" y="-24" on="1"/>
        <pt x="254" y="-28" on="1"/>
        <pt x="254" y="-31" on="1"/>
        <pt x="272" y="-37" on="0"/>
        <pt x="281" y="-37" on="1"/>
        <pt x="286" y="-37" on="1"/>
        <pt x="300" y="-37" on="0"/>
        <pt x="301" y="-28" on="1"/>
        <pt x="297" y="-24" on="0"/>
      </contour>
    </TTGlyph>
    <TTGlyph name="Dcaron" xMin="17" yMin="-47" xMax="622" yMax="911">
      <component glyphName="D" x="0" y="0" flags="0x1004"/>
      <component glyphName="caron" x="160" y="365" flags="0x1004"/>
    </TTGlyph>
    <TTGlyph name="Dcroat" xMin="17" yMin="-47" xMax="622" yMax="711">
      <contour>
        <pt x="177" y="709" on="1"/>
        <pt x="191" y="709" on="1"/>
        <pt x="196" y="711" on="1"/>
        <pt x="201" y="709" on="1"/>
        <pt x="211" y="709" on="1"/>
        <pt x="271" y="709" on="0"/>
        <pt x="352" y="681" on="1"/>
        <pt x="432" y="642" on="0"/>
        <pt x="447" y="625" on="1"/>
        <pt x="495" y="592" on="1"/>
        <pt x="504" y="583" on="0"/>
        <pt x="506" y="580" on="1"/>
        <pt x="506" y="578" on="1"/>
        <pt x="505" y="578" on="1"/>
        <pt x="474" y="600" on="0"/>
        <pt x="467" y="600" on="1"/>
        <pt x="466" y="600" on="1"/>
        <pt x="463" y="598" on="1"/>
        <pt x="463" y="597" on="1"/>
        <pt x="463" y="584" on="0"/>
        <pt x="493" y="565" on="1"/>
        <pt x="534" y="515" on="1"/>
        <pt x="546" y="490" on="0"/>
        <pt x="568" y="434" on="1"/>
        <pt x="578" y="412" on="0"/>
        <pt x="585" y="412" on="1"/>
        <pt x="589" y="416" on="1"/>
        <pt x="589" y="418" on="1"/>
        <pt x="589" y="423" on="0"/>
        <pt x="584" y="428" on="1"/>
        <pt x="589" y="434" on="1"/>
        <pt x="592" y="434" on="1"/>
        <pt x="618" y="341" on="0"/>
        <pt x="618" y="302" on="1"/>
        <pt x="622" y="238" on="1"/>
        <pt x="621" y="232" on="1"/>
        <pt x="616" y="232" on="1"/>
        <pt x="614" y="232" on="1"/>
        <pt x="600" y="213" on="0"/>
        <pt x="592" y="177" on="1"/>
        <pt x="544" y="110" on="0"/>
        <pt x="544" y="98" on="1"/>
        <pt x="545" y="98" on="1"/>
        <pt x="560" y="98" on="0"/>
        <pt x="578" y="136" on="1"/>
        <pt x="583" y="137" on="1"/>
        <pt x="584" y="136" on="1"/>
        <pt x="565" y="93" on="0"/>
        <pt x="553" y="93" on="1"/>
        <pt x="496" y="42" on="0"/>
        <pt x="433" y="5" on="1"/>
        <pt x="404" y="-20" on="0"/>
        <pt x="358" y="-31" on="1"/>
        <pt x="302" y="-36" on="0"/>
        <pt x="286" y="-45" on="1"/>
        <pt x="278" y="-47" on="1"/>
        <pt x="256" y="-42" on="0"/>
        <pt x="157" y="-34" on="1"/>
        <pt x="138" y="-28" on="0"/>
        <pt x="102" y="-28" on="1"/>
        <pt x="90" y="-28" on="0"/>
        <pt x="85" y="-32" on="1"/>
        <pt x="81" y="-32" on="0"/>
        <pt x="67" y="-18" on="1"/>
        <pt x="63" y="-18" on="1"/>
        <pt x="60" y="-18" on="0"/>
        <pt x="56" y="-34" on="1"/>
        <pt x="54" y="-34" on="1"/>
        <pt x="54" y="-35" on="1"/>
        <pt x="46" y="-33" on="0"/>
        <pt x="46" y="-16" on="1"/>
        <pt x="49" y="56" on="1"/>
        <pt x="48" y="56" on="1"/>
        <pt x="48" y="58" on="1"/>
        <pt x="50" y="63" on="0"/>
        <pt x="55" y="63" on="1"/>
        <pt x="94" y="59" on="1"/>
        <pt x="98" y="59" on="1"/>
        <pt x="104" y="59" on="0"/>
        <pt x="112" y="61" on="1"/>
        <pt x="156" y="50" on="1"/>
        <pt x="160" y="54" on="1"/>
        <pt x="160" y="59" on="1"/>
        <pt x="157" y="73" on="1"/>
        <pt x="160" y="88" on="0"/>
        <pt x="160" y="131" on="1"/>
        <pt x="160" y="187" on="0"/>
        <pt x="150" y="187" on="1"/>
        <pt x="149" y="192" on="1"/>
        <pt x="151" y="269" on="1"/>
        <pt x="126" y="265" on="0"/>
        <pt x="109" y="265" on="1"/>
        <pt x="109" y="267" on="1"/>
        <pt x="109" y="273" on="0"/>
        <pt x="152" y="280" on="1"/>
        <pt x="153" y="292" on="1"/>
        <pt x="102" y="283" on="0"/>
        <pt x="102" y="267" on="1"/>
        <pt x="94" y="264" on="1"/>
        <pt x="59" y="264" on="0"/>
        <pt x="59" y="334" on="1"/>
        <pt x="59" y="353" on="0"/>
        <pt x="138" y="362" on="1"/>
        <pt x="138" y="364" on="0"/>
        <pt x="148" y="364" on="1"/>
        <pt x="155" y="363" on="1"/>
        <pt x="161" y="473" on="0"/>
        <pt x="166" y="526" on="1"/>
        <pt x="172" y="558" on="0"/>
        <pt x="172" y="571" on="1"/>
        <pt x="172" y="580" on="1"/>
        <pt x="172" y="599" on="0"/>
        <pt x="155" y="599" on="1"/>
        <pt x="121" y="599" on="1"/>
        <pt x="120" y="599" on="0"/>
        <pt x="120" y="593" on="1"/>
        <pt x="115" y="592" on="1"/>
        <pt x="45" y="595" on="1"/>
        <pt x="20" y="592" on="1"/>
        <pt x="17" y="596" on="1"/>
        <pt x="17" y="643" on="1"/>
        <pt x="17" y="686" on="0"/>
        <pt x="27" y="686" on="1"/>
        <pt x="41" y="697" on="0"/>
        <pt x="71" y="697" on="1"/>
        <pt x="118" y="709" on="0"/>
      </contour>
      <contour>
        <pt x="340" y="384" on="1"/>
        <pt x="346" y="384" on="1"/>
        <pt x="351" y="384" on="0"/>
        <pt x="357" y="306" on="1"/>
        <pt x="358" y="306" on="1"/>
        <pt x="358" y="295" on="0"/>
        <pt x="256" y="289" on="1"/>
        <pt x="244" y="285" on="0"/>
        <pt x="238" y="284" on="1"/>
        <pt x="240" y="236" on="1"/>
        <pt x="240" y="110" on="0"/>
        <pt x="218" y="50" on="1"/>
        <pt x="218" y="44" on="1"/>
        <pt x="218" y="36" on="0"/>
        <pt x="301" y="27" on="1"/>
        <pt x="354" y="27" on="0"/>
        <pt x="427" y="67" on="1"/>
        <pt x="487" y="120" on="0"/>
        <pt x="493" y="142" on="1"/>
        <pt x="506" y="163" on="0"/>
        <pt x="521" y="254" on="1"/>
        <pt x="521" y="263" on="1"/>
        <pt x="521" y="360" on="0"/>
        <pt x="509" y="382" on="1"/>
        <pt x="467" y="482" on="1"/>
        <pt x="430" y="539" on="0"/>
        <pt x="398" y="552" on="1"/>
        <pt x="272" y="602" on="0"/>
        <pt x="265" y="602" on="1"/>
        <pt x="239" y="590" on="0"/>
        <pt x="239" y="581" on="1"/>
        <pt x="243" y="524" on="1"/>
        <pt x="243" y="463" on="0"/>
        <pt x="236" y="463" on="1"/>
        <pt x="232" y="481" on="0"/>
        <pt x="230" y="481" on="1"/>
        <pt x="226" y="480" on="0"/>
        <pt x="226" y="473" on="1"/>
        <pt x="226" y="448" on="1"/>
        <pt x="226" y="434" on="0"/>
        <pt x="231" y="434" on="1"/>
        <pt x="238" y="436" on="1"/>
        <pt x="239" y="434" on="1"/>
        <pt x="236" y="420" on="0"/>
        <pt x="236" y="380" on="1"/>
        <pt x="236" y="369" on="1"/>
      </contour>
      <contour>
        <pt x="356" y="7" on="1"/>
        <pt x="356" y="5" on="1"/>
        <pt x="358" y="5" on="1"/>
        <pt x="401" y="5" on="0"/>
        <pt x="493" y="64" on="1"/>
        <pt x="495" y="66" on="1"/>
        <pt x="495" y="67" on="1"/>
        <pt x="431" y="47" on="0"/>
        <pt x="405" y="29" on="1"/>
        <pt x="364" y="16" on="0"/>
      </contour>
      <contour>
        <pt x="544" y="322" on="1"/>
        <pt x="540" y="322" on="1"/>
        <pt x="538" y="316" on="1"/>
        <pt x="538" y="297" on="1"/>
        <pt x="538" y="261" on="0"/>
        <pt x="528" y="228" on="1"/>
        <pt x="528" y="225" on="1"/>
        <pt x="530" y="224" on="1"/>
        <pt x="534" y="224" on="1"/>
        <pt x="542" y="224" on="0"/>
        <pt x="549" y="252" on="1"/>
        <pt x="553" y="256" on="0"/>
        <pt x="553" y="265" on="1"/>
        <pt x="553" y="284" on="1"/>
        <pt x="553" y="322" on="0"/>
      </contour>
      <contour>
        <pt x="492" y="93" on="1"/>
        <pt x="492" y="88" on="1"/>
        <pt x="496" y="88" on="1"/>
        <pt x="547" y="130" on="0"/>
        <pt x="552" y="155" on="1"/>
        <pt x="552" y="157" on="1"/>
        <pt x="514" y="139" on="0"/>
      </contour>
      <contour>
        <pt x="398" y="627" on="1"/>
        <pt x="391" y="627" on="1"/>
        <pt x="391" y="620" on="0"/>
        <pt x="380" y="620" on="1"/>
        <pt x="380" y="616" on="1"/>
        <pt x="381" y="614" on="0"/>
        <pt x="414" y="598" on="1"/>
        <pt x="412" y="595" on="1"/>
        <pt x="414" y="589" on="0"/>
        <pt x="424" y="585" on="1"/>
        <pt x="430" y="585" on="1"/>
        <pt x="439" y="589" on="1"/>
        <pt x="449" y="587" on="1"/>
        <pt x="449" y="589" on="1"/>
        <pt x="449" y="590" on="0"/>
        <pt x="427" y="597" on="1"/>
        <pt x="427" y="598" on="1"/>
        <pt x="427" y="600" on="0"/>
        <pt x="430" y="600" on="1"/>
        <pt x="432" y="602" on="1"/>
        <pt x="432" y="603" on="1"/>
        <pt x="412" y="623" on="0"/>
      </contour>
      <contour>
        <pt x="133" y="13" on="1"/>
        <pt x="133" y="11" on="1"/>
        <pt x="133" y="5" on="0"/>
        <pt x="185" y="-10" on="1"/>
        <pt x="214" y="-13" on="1"/>
        <pt x="228" y="-11" on="0"/>
        <pt x="228" y="-8" on="1"/>
        <pt x="228" y="-5" on="1"/>
        <pt x="146" y="13" on="0"/>
      </contour>
      <contour>
        <pt x="175" y="650" on="1"/>
        <pt x="175" y="649" on="1"/>
        <pt x="175" y="639" on="0"/>
        <pt x="226" y="639" on="1"/>
        <pt x="236" y="649" on="0"/>
        <pt x="241" y="649" on="1"/>
        <pt x="261" y="649" on="0"/>
        <pt x="261" y="652" on="1"/>
        <pt x="261" y="655" on="1"/>
        <pt x="254" y="656" on="1"/>
        <pt x="251" y="656" on="1"/>
        <pt x="218" y="652" on="1"/>
        <pt x="208" y="657" on="0"/>
        <pt x="202" y="657" on="1"/>
        <pt x="199" y="657" on="1"/>
        <pt x="175" y="656" on="0"/>
      </contour>
      <contour>
        <pt x="513" y="476" on="1"/>
        <pt x="508" y="476" on="1"/>
        <pt x="508" y="464" on="1"/>
        <pt x="518" y="418" on="0"/>
        <pt x="542" y="391" on="1"/>
        <pt x="544" y="391" on="1"/>
        <pt x="528" y="452" on="0"/>
      </contour>
      <contour>
        <pt x="250" y="304" on="1"/>
        <pt x="250" y="302" on="1"/>
        <pt x="251" y="302" on="1"/>
        <pt x="340" y="307" on="0"/>
        <pt x="340" y="311" on="1"/>
        <pt x="340" y="312" on="1"/>
        <pt x="340" y="316" on="0"/>
        <pt x="334" y="319" on="1"/>
        <pt x="333" y="319" on="1"/>
        <pt x="301" y="319" on="0"/>
      </contour>
      <contour>
        <pt x="344" y="666" on="1"/>
        <pt x="338" y="666" on="1"/>
        <pt x="338" y="665" on="1"/>
        <pt x="345" y="660" on="0"/>
        <pt x="416" y="630" on="1"/>
        <pt x="427" y="621" on="1"/>
        <pt x="430" y="621" on="1"/>
        <pt x="430" y="635" on="0"/>
        <pt x="357" y="665" on="1"/>
      </contour>
      <contour>
        <pt x="175" y="439" on="1"/>
        <pt x="168" y="439" on="0"/>
        <pt x="167" y="361" on="1"/>
        <pt x="177" y="361" on="1"/>
        <pt x="182" y="362" on="1"/>
        <pt x="180" y="398" on="0"/>
      </contour>
      <contour>
        <pt x="577" y="395" on="1"/>
        <pt x="574" y="393" on="1"/>
        <pt x="574" y="391" on="1"/>
        <pt x="575" y="389" on="1"/>
        <pt x="571" y="381" on="0"/>
        <pt x="571" y="375" on="1"/>
        <pt x="580" y="345" on="1"/>
        <pt x="584" y="345" on="1"/>
        <pt x="590" y="358" on="0"/>
        <pt x="590" y="365" on="1"/>
        <pt x="590" y="372" on="1"/>
        <pt x="585" y="395" on="0"/>
        <pt x="578" y="395" on="1"/>
      </contour>
      <contour>
        <pt x="69" y="50" on="1"/>
        <pt x="65" y="46" on="1"/>
        <pt x="67" y="39" on="1"/>
        <pt x="61" y="22" on="0"/>
        <pt x="61" y="13" on="1"/>
        <pt x="61" y="10" on="1"/>
        <pt x="65" y="5" on="1"/>
        <pt x="67" y="5" on="1"/>
        <pt x="71" y="10" on="1"/>
        <pt x="71" y="23" on="1"/>
        <pt x="71" y="34" on="0"/>
        <pt x="79" y="34" on="1"/>
        <pt x="90" y="34" on="1"/>
        <pt x="93" y="36" on="1"/>
        <pt x="93" y="40" on="1"/>
        <pt x="93" y="50" on="0"/>
        <pt x="74" y="50" on="1"/>
      </contour>
      <contour>
        <pt x="517" y="560" on="1"/>
        <pt x="518" y="560" on="1"/>
        <pt x="529" y="558" on="0"/>
        <pt x="553" y="509" on="1"/>
        <pt x="567" y="495" on="0"/>
        <pt x="567" y="489" on="1"/>
        <pt x="567" y="486" on="1"/>
        <pt x="565" y="486" on="1"/>
        <pt x="555" y="486" on="0"/>
        <pt x="540" y="517" on="1"/>
        <pt x="540" y="526" on="0"/>
      </contour>
      <contour>
        <pt x="455" y="550" on="1"/>
        <pt x="455" y="545" on="1"/>
        <pt x="460" y="537" on="0"/>
        <pt x="483" y="520" on="1"/>
        <pt x="486" y="520" on="1"/>
        <pt x="488" y="523" on="1"/>
        <pt x="488" y="526" on="1"/>
        <pt x="470" y="555" on="0"/>
        <pt x="468" y="555" on="1"/>
        <pt x="464" y="555" on="1"/>
        <pt x="458" y="555" on="0"/>
      </contour>
      <contour>
        <pt x="181" y="81" on="1"/>
        <pt x="182" y="74" on="1"/>
        <pt x="184" y="74" on="1"/>
        <pt x="192" y="74" on="0"/>
        <pt x="193" y="81" on="1"/>
        <pt x="189" y="130" on="0"/>
        <pt x="181" y="130" on="0"/>
      </contour>
      <contour>
        <pt x="102" y="691" on="1"/>
        <pt x="104" y="686" on="0"/>
        <pt x="140" y="682" on="1"/>
        <pt x="148" y="682" on="1"/>
        <pt x="150" y="686" on="1"/>
        <pt x="136" y="697" on="0"/>
        <pt x="131" y="697" on="1"/>
        <pt x="102" y="695" on="0"/>
      </contour>
      <contour>
        <pt x="180" y="519" on="1"/>
        <pt x="182" y="508" on="1"/>
        <pt x="182" y="498" on="1"/>
        <pt x="185" y="494" on="1"/>
        <pt x="187" y="494" on="1"/>
        <pt x="191" y="494" on="0"/>
        <pt x="191" y="540" on="0"/>
        <pt x="187" y="552" on="1"/>
        <pt x="185" y="552" on="1"/>
        <pt x="182" y="552" on="0"/>
      </contour>
      <contour>
        <pt x="331" y="647" on="1"/>
        <pt x="328" y="647" on="1"/>
        <pt x="328" y="646" on="1"/>
        <pt x="332" y="642" on="0"/>
        <pt x="373" y="625" on="1"/>
        <pt x="376" y="625" on="1"/>
        <pt x="380" y="630" on="1"/>
        <pt x="380" y="637" on="0"/>
      </contour>
      <contour>
        <pt x="288" y="-24" on="1"/>
        <pt x="254" y="-28" on="1"/>
        <pt x="254" y="-31" on="1"/>
        <pt x="272" y="-37" on="0"/>
        <pt x="281" y="-37" on="1"/>
        <pt x="286" y="-37" on="1"/>
        <pt x="300" y="-37" on="0"/>
        <pt x="301" y="-28" on="1"/>
        <pt x="297" y="-24" on="0"/>
      </contour>
      <contour>
        <pt x="282" y="336" on="1"/>
        <pt x="303" y="336" on="1"/>
        <pt x="337" y="338" on="0"/>
        <pt x="338" y="344" on="1"/>
        <pt x="338" y="346" on="1"/>
        <pt x="333" y="347" on="1"/>
        <pt x="282" y="340" on="0"/>
      </contour>
      <contour>
        <pt x="618" y="211" on="1"/>
        <pt x="618" y="215" on="1"/>
        <pt x="619" y="215" on="1"/>
        <pt x="621" y="207" on="1"/>
        <pt x="621" y="198" on="0"/>
        <pt x="596" y="148" on="1"/>
        <pt x="592" y="145" on="1"/>
        <pt x="590" y="145" on="1"/>
        <pt x="595" y="163" on="0"/>
      </contour>
      <contour>
        <pt x="254" y="2" on="1"/>
        <pt x="251" y="0" on="1"/>
        <pt x="251" y="-5" on="0"/>
        <pt x="288" y="-6" on="1"/>
        <pt x="301" y="-6" on="1"/>
        <pt x="303" y="-5" on="1"/>
        <pt x="303" y="-3" on="1"/>
        <pt x="303" y="2" on="0"/>
        <pt x="281" y="2" on="1"/>
      </contour>
      <contour>
        <pt x="565" y="479" on="1"/>
        <pt x="565" y="481" on="1"/>
        <pt x="567" y="481" on="1"/>
        <pt x="585" y="458" on="0"/>
        <pt x="585" y="442" on="1"/>
        <pt x="585" y="439" on="1"/>
        <pt x="583" y="439" on="1"/>
        <pt x="575" y="439" on="0"/>
      </contour>
      <contour>
        <pt x="536" y="165" on="1"/>
        <pt x="536" y="164" on="1"/>
        <pt x="538" y="164" on="1"/>
        <pt x="545" y="164" on="0"/>
        <pt x="558" y="177" on="1"/>
        <pt x="558" y="178" on="1"/>
        <pt x="558" y="187" on="0"/>
        <pt x="553" y="189" on="1"/>
        <pt x="552" y="189" on="1"/>
        <pt x="536" y="173" on="0"/>
      </contour>
      <contour>
        <pt x="49" y="670" on="1"/>
        <pt x="46" y="666" on="1"/>
        <pt x="46" y="664" on="1"/>
        <pt x="48" y="656" on="0"/>
        <pt x="49" y="656" on="1"/>
        <pt x="52" y="656" on="1"/>
        <pt x="58" y="662" on="0"/>
        <pt x="64" y="662" on="1"/>
        <pt x="77" y="661" on="1"/>
        <pt x="77" y="664" on="1"/>
        <pt x="59" y="670" on="1"/>
      </contour>
      <contour>
        <pt x="199" y="701" on="1"/>
        <pt x="152" y="697" on="1"/>
        <pt x="155" y="694" on="1"/>
        <pt x="177" y="694" on="1"/>
        <pt x="201" y="694" on="0"/>
        <pt x="201" y="699" on="1"/>
      </contour>
      <contour>
        <pt x="256" y="680" on="1"/>
        <pt x="254" y="678" on="1"/>
        <pt x="272" y="669" on="0"/>
        <pt x="275" y="669" on="1"/>
        <pt x="278" y="669" on="1"/>
        <pt x="281" y="671" on="1"/>
        <pt x="272" y="680" on="0"/>
        <pt x="261" y="680" on="1"/>
      </contour>
      <contour>
        <pt x="360" y="595" on="1"/>
        <pt x="360" y="593" on="1"/>
        <pt x="372" y="580" on="0"/>
        <pt x="382" y="580" on="1"/>
        <pt x="382" y="585" on="1"/>
        <pt x="366" y="595" on="0"/>
      </contour>
      <contour>
        <pt x="80" y="337" on="1"/>
        <pt x="76" y="334" on="1"/>
        <pt x="76" y="321" on="1"/>
        <pt x="78" y="319" on="1"/>
        <pt x="80" y="319" on="1"/>
        <pt x="84" y="319" on="0"/>
        <pt x="85" y="331" on="1"/>
        <pt x="85" y="336" on="1"/>
        <pt x="82" y="337" on="1"/>
      </contour>
      <contour>
        <pt x="167" y="283" on="1"/>
        <pt x="176" y="283" on="1"/>
        <pt x="177" y="296" on="1"/>
        <pt x="170" y="296" on="0"/>
        <pt x="167" y="295" on="1"/>
      </contour>
      <contour>
        <pt x="185" y="596" on="1"/>
        <pt x="185" y="590" on="0"/>
        <pt x="193" y="590" on="1"/>
        <pt x="195" y="590" on="1"/>
        <pt x="200" y="596" on="1"/>
        <pt x="200" y="599" on="1"/>
        <pt x="187" y="599" on="1"/>
        <pt x="185" y="599" on="0"/>
      </contour>
      <contour>
        <pt x="454" y="77" on="1"/>
        <pt x="455" y="74" on="1"/>
        <pt x="459" y="74" on="1"/>
        <pt x="463" y="75" on="0"/>
        <pt x="467" y="81" on="1"/>
        <pt x="467" y="85" on="1"/>
        <pt x="467" y="86" on="0"/>
        <pt x="463" y="86" on="1"/>
        <pt x="458" y="86" on="0"/>
      </contour>
      <contour>
        <pt x="167" y="272" on="1"/>
        <pt x="170" y="254" on="1"/>
        <pt x="174" y="254" on="1"/>
        <pt x="175" y="273" on="1"/>
      </contour>
      <contour>
        <pt x="448" y="575" on="1"/>
        <pt x="448" y="573" on="1"/>
        <pt x="450" y="569" on="0"/>
        <pt x="461" y="562" on="1"/>
        <pt x="464" y="562" on="1"/>
        <pt x="464" y="563" on="1"/>
        <pt x="464" y="571" on="0"/>
      </contour>
      <contour>
        <pt x="80" y="614" on="1"/>
        <pt x="83" y="610" on="1"/>
        <pt x="89" y="610" on="1"/>
        <pt x="94" y="610" on="0"/>
        <pt x="96" y="615" on="1"/>
        <pt x="96" y="617" on="1"/>
        <pt x="90" y="617" on="1"/>
        <pt x="82" y="617" on="0"/>
      </contour>
      <contour>
        <pt x="225" y="164" on="1"/>
        <pt x="221" y="164" on="1"/>
        <pt x="220" y="151" on="1"/>
        <pt x="220" y="149" on="1"/>
        <pt x="221" y="143" on="1"/>
        <pt x="222" y="143" on="1"/>
        <pt x="225" y="146" on="1"/>
      </contour>
      <contour>
        <pt x="270" y="355" on="1"/>
        <pt x="283" y="355" on="1"/>
        <pt x="292" y="355" on="0"/>
        <pt x="293" y="361" on="1"/>
        <pt x="293" y="362" on="1"/>
        <pt x="292" y="362" on="1"/>
        <pt x="270" y="359" on="0"/>
      </contour>
      <contour>
        <pt x="169" y="337" on="1"/>
        <pt x="169" y="334" on="1"/>
        <pt x="171" y="334" on="1"/>
        <pt x="178" y="334" on="0"/>
        <pt x="181" y="335" on="1"/>
        <pt x="182" y="341" on="1"/>
        <pt x="174" y="339" on="0"/>
      </contour>
      <contour>
        <pt x="121" y="36" on="1"/>
        <pt x="118" y="34" on="1"/>
        <pt x="118" y="32" on="1"/>
        <pt x="121" y="29" on="1"/>
        <pt x="127" y="29" on="1"/>
        <pt x="130" y="31" on="1"/>
        <pt x="128" y="36" on="0"/>
      </contour>
      <contour>
        <pt x="362" y="-3" on="1"/>
        <pt x="375" y="-3" on="1"/>
        <pt x="379" y="1" on="1"/>
        <pt x="379" y="2" on="1"/>
        <pt x="375" y="2" on="1"/>
        <pt x="362" y="1" on="0"/>
      </contour>
      <contour>
        <pt x="177" y="469" on="1"/>
        <pt x="175" y="469" on="1"/>
        <pt x="172" y="457" on="1"/>
        <pt x="172" y="454" on="1"/>
        <pt x="175" y="454" on="1"/>
        <pt x="177" y="464" on="1"/>
      </contour>
      <contour>
        <pt x="58" y="621" on="1"/>
        <pt x="55" y="618" on="1"/>
        <pt x="69" y="615" on="1"/>
        <pt x="70" y="615" on="1"/>
        <pt x="70" y="616" on="1"/>
        <pt x="67" y="621" on="0"/>
        <pt x="61" y="621" on="1"/>
      </contour>
      <contour>
        <pt x="320" y="368" on="1"/>
        <pt x="314" y="366" on="1"/>
        <pt x="314" y="364" on="1"/>
        <pt x="323" y="364" on="1"/>
        <pt x="329" y="365" on="1"/>
        <pt x="329" y="368" on="1"/>
      </contour>
      <contour>
        <pt x="447" y="76" on="1"/>
        <pt x="443" y="73" on="1"/>
        <pt x="445" y="70" on="1"/>
        <pt x="448" y="70" on="1"/>
        <pt x="451" y="73" on="1"/>
        <pt x="451" y="76" on="1"/>
      </contour>
      <contour>
        <pt x="110" y="337" on="1"/>
        <pt x="106" y="334" on="1"/>
        <pt x="106" y="333" on="1"/>
        <pt x="112" y="333" on="1"/>
        <pt x="113" y="336" on="1"/>
        <pt x="113" y="337" on="1"/>
      </contour>
      <contour>
        <pt x="236" y="454" on="1"/>
        <pt x="239" y="455" on="1"/>
        <pt x="241" y="455" on="1"/>
        <pt x="241" y="452" on="1"/>
        <pt x="239" y="449" on="1"/>
        <pt x="236" y="449" on="1"/>
      </contour>
      <contour>
        <pt x="70" y="643" on="1"/>
        <pt x="67" y="640" on="1"/>
        <pt x="70" y="637" on="1"/>
        <pt x="73" y="637" on="1"/>
        <pt x="75" y="640" on="1"/>
        <pt x="73" y="643" on="1"/>
      </contour>
      <contour>
        <pt x="78" y="310" on="1"/>
        <pt x="76" y="308" on="1"/>
        <pt x="76" y="305" on="1"/>
        <pt x="78" y="305" on="1"/>
        <pt x="81" y="308" on="1"/>
        <pt x="81" y="310" on="1"/>
      </contour>
      <contour>
        <pt x="83" y="13" on="1"/>
        <pt x="80" y="10" on="1"/>
        <pt x="83" y="7" on="1"/>
        <pt x="86" y="11" on="1"/>
        <pt x="86" y="13" on="1"/>
      </contour>
      <contour>
        <pt x="263" y="334" on="1"/>
        <pt x="260" y="334" on="1"/>
        <pt x="260" y="331" on="1"/>
        <pt x="265" y="331" on="1"/>
      </contour>
      <contour>
        <pt x="301" y="668" on="1"/>
        <pt x="297" y="668" on="1"/>
        <pt x="297" y="665" on="1"/>
        <pt x="301" y="665" on="1"/>
      </contour>
      <contour>
        <pt x="244" y="-8" on="1"/>
        <pt x="240" y="-8" on="1"/>
        <pt x="240" y="-10" on="1"/>
        <pt x="244" y="-10" on="1"/>
      </contour>
    </TTGlyph>
</ttFont>
